<svg width="16" height="16" viewBox="0 0 16 16" fill="none" xmlns="http://www.w3.org/2000/svg">
<rect opacity="0.01" width="16" height="16" fill="black"/>
<path fill-rule="evenodd" clip-rule="evenodd" d="M8 1C4.13438 1 1 4.13438 1 8C1 11.8656 4.13438 15 8 15C11.8656 15 15 11.8656 15 8C15 4.13438 11.8656 1 8 1Z" fill="#FF4D4F"/>
<path fill-rule="evenodd" clip-rule="evenodd" d="M10.5843 10.6594L9.55303 10.6547L7.9999 8.80314L6.44834 10.6531L5.41553 10.6578C5.34678 10.6578 5.29053 10.6031 5.29053 10.5328C5.29053 10.5031 5.30146 10.475 5.32021 10.4516L7.35303 8.0297L5.32021 5.60939C5.30146 5.58595 5.29053 5.55782 5.29053 5.52814C5.29053 5.45939 5.34678 5.40314 5.41553 5.40314L6.44834 5.40782L7.9999 7.25939L9.55147 5.40939L10.5827 5.4047C10.6515 5.4047 10.7077 5.45939 10.7077 5.5297C10.7077 5.55939 10.6968 5.58751 10.678 5.61095L8.64834 8.03126L10.6796 10.4531C10.6983 10.4766 10.7093 10.5047 10.7093 10.5344C10.7093 10.6031 10.653 10.6594 10.5843 10.6594Z" fill="white"/>
</svg>
