<svg preserveAspectRatio="none" width="100%" height="100%" overflow="visible" style="display: block;" viewBox="0 0 14 14" fill="none" xmlns="http://www.w3.org/2000/svg">
<path id="&#229;&#189;&#162;&#231;&#138;&#182;" fill-rule="evenodd" clip-rule="evenodd" d="M7 0C3.13438 0 0 3.13438 0 7C0 10.8656 3.13438 14 7 14C10.8656 14 14 10.8656 14 7C14 3.13438 10.8656 0 7 0ZM7.5 10.375C7.5 10.4438 7.44375 10.5 7.375 10.5H6.625C6.55625 10.5 6.5 10.4438 6.5 10.375V6.125C6.5 6.05625 6.55625 6 6.625 6H7.375C7.44375 6 7.5 6.05625 7.5 6.125V10.375ZM7 5C6.58594 5 6.25 4.66406 6.25 4.25C6.25 3.83594 6.58594 3.5 7 3.5C7.41406 3.5 7.75 3.83594 7.75 4.25C7.75 4.66406 7.41406 5 7 5Z" fill="var(--fill-0, #1890FF)"/>
</svg>
