<svg width="16" height="16" viewBox="0 0 16 16" fill="none" xmlns="http://www.w3.org/2000/svg">
<rect opacity="0.01" width="16" height="16" fill="black"/>
<path fill-rule="evenodd" clip-rule="evenodd" d="M8 1C4.13438 1 1 4.13438 1 8C1 11.8656 4.13438 15 8 15C11.8656 15 15 11.8656 15 8C15 4.13438 11.8656 1 8 1Z" fill="#52C41A"/>
<path fill-rule="evenodd" clip-rule="evenodd" d="M11.0236 5.71406L7.73301 10.2766C7.53457 10.5531 7.12364 10.5531 6.9252 10.2766L4.97676 7.57656C4.91739 7.49375 4.97676 7.37812 5.07832 7.37812H5.81114C5.97051 7.37812 6.12207 7.45469 6.21582 7.58594L7.32832 9.12969L9.78457 5.72344C9.87832 5.59375 10.0283 5.51562 10.1893 5.51562H10.9221C11.0236 5.51562 11.083 5.63125 11.0236 5.71406Z" fill="white"/>
</svg>
