<svg width="72" height="72" viewBox="0 0 72 72" fill="none" xmlns="http://www.w3.org/2000/svg">
<g clip-path="url(#clip0_48_308)">
<rect width="72" height="72" rx="8" fill="white" fill-opacity="0.78"/>
<rect x="45.3843" y="48.4408" width="12.983" height="13.5537" fill="#F7CFCE"/>
<path fill-rule="evenodd" clip-rule="evenodd" d="M45.3843 38.5014H58.3672V50.5364C58.3672 50.5364 57.2954 55.0496 51.9599 55.2127C46.6244 55.3758 45.3843 50.1197 45.3843 50.1197L45.3843 38.5014Z" fill="#F3BBBA"/>
<path fill-rule="evenodd" clip-rule="evenodd" d="M42.9239 39.405C42.9239 39.405 40.5537 39.405 39.9232 40.8121C39.2927 42.2192 39.3209 44.5763 41.4235 45.583C43.5261 46.5897 44.0409 46.6336 44.0409 46.6336L42.9239 39.405Z" fill="#F3BBBA"/>
<path fill-rule="evenodd" clip-rule="evenodd" d="M60.8271 39.405C60.8271 39.405 63.1973 39.405 63.8278 40.8121C64.4582 42.2192 64.43 44.5763 62.3274 45.583C60.2248 46.5897 59.7101 46.6336 59.7101 46.6336L60.8271 39.405Z" fill="#F3BBBA"/>
<ellipse cx="52.3231" cy="42.3416" rx="9.17762" ry="11.5207" fill="#F7CFCE"/>
<path fill-rule="evenodd" clip-rule="evenodd" d="M42.9893 39.3985C42.9893 39.3985 42.9385 32.301 47.6643 33.0095C52.3901 33.718 54.0539 32.2917 54.8162 32.089C55.5785 31.8863 59.672 30.8951 61.1664 39.8567C61.1664 39.8567 62.7067 35.0313 62.3405 30.867C61.9742 26.7027 57.9756 25.2536 57.9756 25.0372C57.9756 24.8208 57.4527 21.3333 52.9957 21.3333C48.5387 21.3333 43.6827 23.7224 41.7478 28.0117C40.8244 30.0587 40.5756 33.1341 41.4414 36.0013C41.785 37.1393 42.9893 39.3985 42.9893 39.3985Z" fill="#313B3C"/>
<path fill-rule="evenodd" clip-rule="evenodd" d="M45.2333 57.0248L23.1831 64.7677L23 76H84.3333V65.5699L58.65 57.0248C58.65 57.0248 56.1506 60.5727 51.9417 60.5727C47.7327 60.5727 45.2333 57.0248 45.2333 57.0248Z" fill="#00CCC7"/>
<rect x="21.4497" y="46.3126" width="18.375" height="18.9143" fill="#FFD9D8"/>
<path fill-rule="evenodd" clip-rule="evenodd" d="M21.4497 33.7031H39.8247V49.7515C39.8247 49.7515 38.3078 55.7698 30.7563 55.9873C23.2048 56.2047 21.4497 49.1958 21.4497 49.1958L21.4497 33.7031Z" fill="#FAC4C3"/>
<path fill-rule="evenodd" clip-rule="evenodd" d="M18.6323 34.5725C18.6323 34.5725 15.3425 34.5725 14.4674 36.5245C13.5923 38.4764 13.6314 41.7461 16.5498 43.1426C19.4682 44.539 20.1827 44.6 20.1827 44.6L18.6323 34.5725Z" fill="#FAC4C3"/>
<path fill-rule="evenodd" clip-rule="evenodd" d="M43.3438 34.5725C43.3438 34.5725 46.6336 34.5725 47.5087 36.5245C48.3838 38.4764 48.3446 41.7461 45.4262 43.1426C42.5078 44.539 41.7934 44.6 41.7934 44.6L43.3438 34.5725Z" fill="#FAC4C3"/>
<path d="M43.2825 38.8434C43.2825 47.6113 37.6744 54.719 30.7565 54.719C23.8386 54.719 18.2305 47.6113 18.2305 38.8434C18.2305 30.0756 18.281 24.0918 30.7565 22.9679C41.5 22 43.2825 30.0756 43.2825 38.8434Z" fill="#FFD9D8"/>
<path fill-rule="evenodd" clip-rule="evenodd" d="M18.2303 34.5725C18.2303 34.5725 18.1602 24.9183 24.6734 25.8821C31.1866 26.8458 33.4798 24.9057 34.5304 24.63C35.581 24.3543 41.2228 23.0061 43.2823 35.1958C43.2823 35.1958 45.4052 28.6322 44.9005 22.9679C44.3958 17.3035 38.8848 15.3324 38.8848 15.0381C38.8848 14.7438 38.1641 10 32.0213 10C25.8785 10 19.1859 13.2496 16.5192 19.084C15.2465 21.8684 14.9037 26.0516 16.0968 29.9516C16.5704 31.4995 18.2303 34.5725 18.2303 34.5725Z" fill="#3D3D44"/>
<path fill-rule="evenodd" clip-rule="evenodd" d="M21.45 59.1404L-8.74925 69.5565L-9 84.6667H75V70.6356L39.825 59.1404C39.825 59.1404 36.4019 63.9132 30.6375 63.9132C24.8731 63.9132 21.45 59.1404 21.45 59.1404Z" fill="#6CA3FF"/>
</g>
<defs>
<clipPath id="clip0_48_308">
<rect width="72" height="72" rx="8" fill="white"/>
</clipPath>
</defs>
</svg>
