<svg width="72" height="72" viewBox="0 0 72 72" fill="none" xmlns="http://www.w3.org/2000/svg">
<g clip-path="url(#clip0_38_270)">
<rect width="72" height="72" rx="8" fill="white" fill-opacity="0.78"/>
<mask id="mask0_38_270" style="mask-type:luminance" maskUnits="userSpaceOnUse" x="0" y="0" width="72" height="72">
<rect width="72" height="72" rx="8" fill="white"/>
</mask>
<g mask="url(#mask0_38_270)">
<rect x="27.0552" y="44.3126" width="18.4722" height="18.9143" fill="#FFD9D8"/>
<path fill-rule="evenodd" clip-rule="evenodd" d="M27.0552 31.7031H45.5274V47.7515C45.5274 47.7515 44.0024 53.7698 36.411 53.9873C28.8196 54.2047 27.0552 47.1958 27.0552 47.1958L27.0552 31.7031Z" fill="#FAC4C3"/>
<path fill-rule="evenodd" clip-rule="evenodd" d="M24.2229 32.5725C24.2229 32.5725 20.9157 32.5725 20.0359 34.5245C19.1562 36.4764 19.1956 39.7461 22.1294 41.1426C25.0633 42.539 25.7815 42.6 25.7815 42.6L24.2229 32.5725Z" fill="#FAC4C3"/>
<path fill-rule="evenodd" clip-rule="evenodd" d="M49.0657 32.5725C49.0657 32.5725 52.3729 32.5725 53.2526 34.5245C54.1324 36.4764 54.093 39.7461 51.1592 41.1426C48.2253 42.539 47.5071 42.6 47.5071 42.6L49.0657 32.5725Z" fill="#FAC4C3"/>
<path d="M49.004 36.8434C49.004 45.6113 43.3662 52.719 36.4116 52.719C29.4571 52.719 23.8193 45.6113 23.8193 36.8434C23.8193 28.0756 23.8193 19.5 36.4116 20.9679C49.004 20.9679 49.004 28.0756 49.004 36.8434Z" fill="#FFD9D8"/>
<path fill-rule="evenodd" clip-rule="evenodd" d="M23.8192 32.5725C23.8192 32.5725 23.7487 22.9183 30.2964 23.8821C36.8441 24.8458 39.1494 22.9057 40.2056 22.63C41.2617 22.3543 46.9334 21.0061 49.0038 33.1958C49.0038 33.1958 51.1379 26.6322 50.6305 20.9679C50.1231 15.3035 44.583 13.3324 44.583 13.0381C44.583 12.7438 43.8585 8 37.6832 8C31.5079 8 24.7799 11.2496 22.099 17.084C20.8196 19.8684 20.475 24.0516 21.6744 27.9516C22.1505 29.4995 23.8192 32.5725 23.8192 32.5725Z" fill="#3D3D44"/>
<path fill-rule="evenodd" clip-rule="evenodd" d="M27.0554 57.1404L-3.30359 67.5565L-3.55566 82.6667H80.8888V68.6356L45.5277 57.1404C45.5277 57.1404 42.0865 61.9132 36.2916 61.9132C30.4966 61.9132 27.0554 57.1404 27.0554 57.1404Z" fill="#6CA3FF"/>
<path d="M26.5723 35.1111L24 33.4815" stroke="#3D3D44" stroke-width="2" stroke-linecap="round"/>
<path d="M46.3163 35.3439L48.8887 33.4815" stroke="#3D3D44" stroke-width="2" stroke-linecap="round"/>
<path d="M34.9031 33.9471H38.9142" stroke="#3D3D44" stroke-width="2"/>
<ellipse cx="30.7826" cy="35.1111" rx="4.59458" ry="4.88889" fill="#3D3D44"/>
<ellipse cx="42.597" cy="35.1111" rx="4.59458" ry="4.88889" fill="#3D3D44"/>
</g>
</g>
<defs>
<clipPath id="clip0_38_270">
<rect width="72" height="72" rx="8" fill="white"/>
</clipPath>
</defs>
</svg>
