<svg width="72" height="72" viewBox="0 0 72 72" fill="none" xmlns="http://www.w3.org/2000/svg">
<g clip-path="url(#clip0_56_813)">
<rect width="72" height="72" rx="8" fill="white" fill-opacity="0.78"/>
<rect width="72" height="72" rx="8" fill="white"/>
<mask id="mask0_56_813" style="mask-type:luminance" maskUnits="userSpaceOnUse" x="0" y="0" width="72" height="72">
<rect width="72" height="72" rx="8" fill="white"/>
</mask>
<g mask="url(#mask0_56_813)">
<path fill-rule="evenodd" clip-rule="evenodd" d="M76.6798 42.8108L-14.2676 30.4834L-14.2676 64.9431L76.6798 77.2834V42.8108Z" fill="#D9D9D9"/>
<path fill-rule="evenodd" clip-rule="evenodd" d="M62.4529 64.0961C62.4529 64.0961 60.844 64.3453 60.0686 63.3131C59.2931 62.2809 59.2408 61.4179 59.3132 61.0772C59.3857 60.7364 59.5457 59.9835 60.6542 59.5637C61.7753 59.1391 63.8402 58.4196 66.3633 58.759C68.1086 58.9937 68.6457 59.3916 69.0761 59.6966C69.5065 60.0016 70.4285 60.8981 70.6318 61.2517C70.835 61.6053 70.6718 62.373 69.938 62.5735C69.2472 62.7622 62.4529 64.0961 62.4529 64.0961Z" fill="#EEF1F6"/>
<path fill-rule="evenodd" clip-rule="evenodd" d="M62.7913 63.6026C62.7913 63.6026 61.7381 63.8791 61.2836 63.8301C60.8313 63.7812 60.3261 63.6563 60.0683 63.3131C59.2928 62.2809 59.2405 61.4179 59.3129 61.0772C59.3853 60.7364 59.5454 59.9835 60.6538 59.5637C61.775 59.1391 63.8979 58.4766 66.3871 58.6055C68.0763 58.6929 68.6393 59.1548 69.1619 59.534C69.6845 59.9132 70.1326 60.5268 70.5313 61.0773C70.9299 61.6278 70.3801 62.2191 69.8891 62.2525C69.5566 62.2752 67.8639 62.2464 66.216 62.5445C64.7685 62.8062 62.7913 63.6026 62.7913 63.6026Z" fill="#BCBEC2"/>
<rect x="56.1602" y="41.1927" width="5.04" height="8.64" fill="#4A4B51"/>
<path fill-rule="evenodd" clip-rule="evenodd" d="M50.4834 47.9417C51.0405 47.4739 51.754 47.2342 52.4805 47.2709L65.9093 47.9475C66.7827 47.9915 67.1472 49.0853 66.4747 49.6444L64.2622 51.4841C63.7085 51.9446 63.0023 52.1808 62.2829 52.1463L48.8335 51.5011C47.9611 51.4593 47.5933 50.3687 48.2622 49.8071L50.4834 47.9417Z" fill="#3D3E43"/>
<path fill-rule="evenodd" clip-rule="evenodd" d="M37.0801 17.7463C37.0801 16.6466 38.002 15.7716 39.1002 15.8289L78.4602 17.8839C79.4803 17.9372 80.2801 18.7798 80.2801 19.8013V42.5003C80.2801 43.6001 79.358 44.4751 78.2597 44.4176L38.8997 42.3571C37.8797 42.3037 37.0801 41.4611 37.0801 40.4397V17.7463Z" fill="#3D3E43"/>
<mask id="mask1_56_813" style="mask-type:luminance" maskUnits="userSpaceOnUse" x="37" y="15" width="44" height="30">
<path fill-rule="evenodd" clip-rule="evenodd" d="M37.0801 17.7463C37.0801 16.6466 38.002 15.7716 39.1002 15.8289L78.4602 17.8839C79.4803 17.9372 80.2801 18.7798 80.2801 19.8013V42.5003C80.2801 43.6001 79.358 44.4751 78.2597 44.4176L38.8997 42.3571C37.8797 42.3037 37.0801 41.4611 37.0801 40.4397V17.7463Z" fill="white"/>
</mask>
<g mask="url(#mask1_56_813)">
<path fill-rule="evenodd" clip-rule="evenodd" d="M38.5195 17.1634L78.8395 19.1934V39.7189L38.5195 37.6834V17.1634Z" fill="#91A7F8"/>
<path fill-rule="evenodd" clip-rule="evenodd" d="M38.5195 17.1634L78.8395 19.1934V39.7189L38.5195 37.6834V17.1634Z" fill="#91A7F8"/>
<path fill-rule="evenodd" clip-rule="evenodd" d="M37.0801 39.1234L80.2801 41.3789V65.9003C80.2801 67.0001 79.358 67.8751 78.2597 67.8176L38.8997 65.757C37.8797 65.7036 37.0801 64.861 37.0801 63.8397V39.1234Z" fill="#EEF1F6"/>
</g>
<ellipse cx="58.6978" cy="41.9127" rx="0.648" ry="0.72" fill="#BCBEC2"/>
<path fill-rule="evenodd" clip-rule="evenodd" d="M44.6396 20.3317L49.6798 20.5855V25.6257L44.6396 25.3719V20.3317Z" stroke="#CFD8FC" stroke-linejoin="round"/>
<path fill-rule="evenodd" clip-rule="evenodd" d="M44.6396 29.6917L49.6798 29.9455V34.9857L44.6396 34.7318V29.6917Z" stroke="#CFD8FC" stroke-linejoin="round"/>
<path d="M45.8623 22.2863L46.9246 24.1731L51.1426 21.2681" stroke="#CFD8FC" stroke-linecap="round" stroke-linejoin="round"/>
<path d="M45.8623 31.6463L46.9246 33.5331L51.1426 30.6281" stroke="#CFD8FC" stroke-linecap="round" stroke-linejoin="round"/>
<path d="M52.5635 20.7324L62.6392 21.2396" stroke="#CFD8FC" stroke-width="1.44" stroke-linecap="round" stroke-linejoin="round"/>
<path fill-rule="evenodd" clip-rule="evenodd" d="M73.8594 23.8235L74.3588 23.8478C74.3722 23.5723 74.16 23.3379 73.8845 23.3241L73.8594 23.8235ZM73.835 24.3235L74.3343 24.3489L74.3344 24.3478L73.835 24.3235ZM73.8096 24.8225L73.7844 25.3218C74.0601 25.3357 74.2949 25.1236 74.3089 24.8479L73.8096 24.8225ZM64.7959 24.3684L64.2965 24.343C64.2898 24.4755 64.336 24.6052 64.4249 24.7036C64.5139 24.802 64.6383 24.8611 64.7707 24.8677L64.7959 24.3684ZM64.8467 23.3703L64.8718 22.871C64.5961 22.8571 64.3614 23.0693 64.3473 23.3449L64.8467 23.3703ZM63.124 23.009L63.6234 23.0344C63.6301 22.9019 63.5839 22.7722 63.495 22.6737C63.406 22.5753 63.2816 22.5163 63.1491 22.5096L63.124 23.009ZM63.0986 23.509L63.598 23.5344L63.598 23.5344L63.0986 23.509ZM63.0732 24.008L63.0481 24.5074C63.3238 24.5213 63.5586 24.3091 63.5726 24.0334L63.0732 24.008ZM52.9746 23.4992L52.4753 23.4738C52.4685 23.6063 52.5147 23.736 52.6036 23.8345C52.6926 23.9329 52.817 23.9919 52.9495 23.9986L52.9746 23.4992ZM53.0254 22.5012L53.0505 22.0018C52.7748 21.988 52.5401 22.2001 52.526 22.4758L53.0254 22.5012ZM73.8594 23.8235L73.36 23.7991L73.3356 24.2991L73.835 24.3235L74.3344 24.3478L74.3588 23.8478L73.8594 23.8235ZM73.835 24.3235L73.3356 24.298L73.3102 24.7971L73.8096 24.8225L74.3089 24.8479L74.3343 24.3489L73.835 24.3235ZM73.8096 24.8225L73.8347 24.3231L64.8211 23.869L64.7959 24.3684L64.7707 24.8677L73.7844 25.3218L73.8096 24.8225ZM64.7959 24.3684L65.2953 24.3938L65.346 23.3957L64.8467 23.3703L64.3473 23.3449L64.2965 24.343L64.7959 24.3684ZM64.8467 23.3703L64.8216 23.8697L73.8343 24.3228L73.8594 23.8235L73.8845 23.3241L64.8718 22.871L64.8467 23.3703ZM63.124 23.009L62.6247 22.9836L62.5993 23.4836L63.0986 23.509L63.598 23.5344L63.6234 23.0344L63.124 23.009ZM63.0986 23.509L62.5993 23.4836L62.5739 23.9826L63.0732 24.008L63.5726 24.0334L63.598 23.5344L63.0986 23.509ZM63.0732 24.008L63.0984 23.5087L52.9998 22.9999L52.9746 23.4992L52.9495 23.9986L63.0481 24.5074L63.0732 24.008ZM52.9746 23.4992L53.474 23.5246L53.5247 22.5266L53.0254 22.5012L52.526 22.4758L52.4753 23.4738L52.9746 23.4992ZM53.0254 22.5012L53.0003 23.0006L63.0989 23.5084L63.124 23.009L63.1491 22.5096L53.0505 22.0018L53.0254 22.5012Z" fill="#CFD8FC"/>
<path d="M73.8428 26.3437L73.8685 25.8444L73.8679 25.8444L73.8428 26.3437ZM74.3164 26.8681L74.8157 26.8939L74.8158 26.8933L74.3164 26.8681ZM73.792 27.3418L73.7669 27.8411L73.7672 27.8411L73.792 27.3418ZM61.5498 26.7256L61.5244 27.2249L61.5247 27.2249L61.5498 26.7256ZM61.0762 26.2011L60.5768 26.1757L60.5768 26.1765L61.0762 26.2011ZM61.6006 25.7275L61.5754 26.2269L61.5754 26.2269L61.6006 25.7275ZM59.4219 25.6172L59.4474 25.1178L59.447 25.1178L59.4219 25.6172ZM59.8965 26.1416L60.3958 26.167L60.3959 26.1665L59.8965 26.1416ZM59.3721 26.6162L59.347 27.1155L59.3476 27.1156L59.3721 26.6162ZM52.5371 26.2724L52.5117 26.7718L52.512 26.7718L52.5371 26.2724ZM52.0635 25.747L51.5641 25.7215L51.5641 25.7221L52.0635 25.747ZM52.5879 25.2734L52.5627 25.7728L52.5628 25.7728L52.5879 25.2734ZM73.8428 26.3437L73.817 26.8431L73.817 26.843L74.3164 26.8681L74.8158 26.8933C74.8435 26.342 74.4194 25.8728 73.8685 25.8444L73.8428 26.3437ZM74.3164 26.8681L73.8171 26.8424L73.8168 26.8424L73.792 27.3418L73.7672 27.8411C74.3178 27.8685 74.7874 27.445 74.8157 26.8939L74.3164 26.8681ZM73.792 27.3418L73.8171 26.8424L61.5749 26.2262L61.5498 26.7256L61.5247 27.2249L73.7669 27.8411L73.792 27.3418ZM61.5498 26.7256L61.5752 26.2262L61.5756 26.2258L61.0762 26.2011L60.5768 26.1765C60.5496 26.7265 60.9724 27.1968 61.5244 27.2249L61.5498 26.7256ZM61.0762 26.2011L61.5755 26.2265L61.5754 26.2269L61.6006 25.7275L61.6257 25.2281C61.0747 25.2004 60.6049 25.6241 60.5768 26.1757L61.0762 26.2011ZM61.6006 25.7275L61.5754 26.2269L73.8176 26.8431L73.8428 26.3437L73.8679 25.8444L61.6257 25.2281L61.6006 25.7275ZM59.4219 25.6172L59.3964 26.1165L59.3971 26.1167L59.8965 26.1416L60.3959 26.1665C60.4234 25.6145 59.9977 25.1459 59.4474 25.1178L59.4219 25.6172ZM59.8965 26.1416L59.3971 26.1162L59.3965 26.1168L59.3721 26.6162L59.3476 27.1156C59.8985 27.1426 60.3678 26.7178 60.3958 26.167L59.8965 26.1416ZM59.3721 26.6162L59.3972 26.1168L52.5622 25.7731L52.5371 26.2724L52.512 26.7718L59.347 27.1155L59.3721 26.6162ZM52.5371 26.2724L52.5625 25.7731C52.5619 25.773 52.5626 25.7731 52.5635 25.7735C52.564 25.7737 52.5638 25.7738 52.5634 25.7733C52.5629 25.7728 52.5628 25.7724 52.5628 25.7725C52.5629 25.7728 52.5628 25.773 52.5629 25.7719L52.0635 25.747L51.5641 25.7221C51.5367 26.2714 51.9586 26.7437 52.5117 26.7718L52.5371 26.2724ZM52.0635 25.747L52.5628 25.7726L52.5627 25.7728L52.5879 25.2734L52.613 24.774C52.0619 24.7463 51.5923 25.1701 51.5641 25.7215L52.0635 25.747ZM52.5879 25.2734L52.5628 25.7728L59.3968 26.1165L59.4219 25.6172L59.447 25.1178L52.613 24.774L52.5879 25.2734Z" fill="#CFD8FC"/>
<path d="M52.5605 30.0922L64.8154 30.7092" stroke="#CFD8FC" stroke-width="1.44" stroke-linecap="round"/>
<path d="M73.8438 33.183L73.8689 32.6837L73.8689 32.6837L73.8438 33.183ZM74.3184 33.7075L74.8177 33.7327L74.8177 33.7324L74.3184 33.7075ZM73.7939 34.1821L73.7688 34.6814L73.7688 34.6814L73.7939 34.1821ZM59.7471 33.4741L59.7215 33.9734L59.7219 33.9734L59.7471 33.4741ZM59.2734 32.9496L58.7741 32.924L58.7741 32.9245L59.2734 32.9496ZM59.7979 32.476L59.823 31.9766L59.8228 31.9766L59.7979 32.476ZM57.6406 32.3676L57.6661 31.8683L57.6658 31.8682L57.6406 32.3676ZM58.1143 32.892L58.6136 32.9174L58.6136 32.9172L58.1143 32.892ZM57.5898 33.3666L57.5647 33.866L57.5647 33.866L57.5898 33.3666ZM52.5498 33.1127L52.5244 33.6121L52.5246 33.6121L52.5498 33.1127ZM52.0762 32.5883L51.5768 32.5632L51.5768 32.5637L52.0762 32.5883ZM52.6006 32.1137L52.6257 31.6143L52.6257 31.6143L52.6006 32.1137ZM73.8438 33.183L73.8186 33.6824L73.819 33.6825L74.3184 33.7075L74.8177 33.7324C74.8453 33.1806 74.42 32.7114 73.8689 32.6837L73.8438 33.183ZM74.3184 33.7075L73.819 33.6822L73.8191 33.6827L73.7939 34.1821L73.7688 34.6814C74.321 34.7092 74.7899 34.2835 74.8177 33.7327L74.3184 33.7075ZM73.7939 34.1821L73.8191 33.6827L59.7722 32.9747L59.7471 33.4741L59.7219 33.9734L73.7688 34.6814L73.7939 34.1821ZM59.7471 33.4741L59.7726 32.9747L59.7728 32.9748L59.2734 32.9496L58.7741 32.9245C58.7463 33.4757 59.1702 33.9452 59.7215 33.9734L59.7471 33.4741ZM59.2734 32.9496L59.7728 32.9753L59.7729 32.9754L59.7979 32.476L59.8228 31.9766C59.272 31.9491 58.8024 32.3728 58.7741 32.924L59.2734 32.9496ZM59.7979 32.476L59.7727 32.9754L73.8186 33.6824L73.8438 33.183L73.8689 32.6837L59.823 31.9766L59.7979 32.476ZM57.6406 32.3676L57.6151 32.867L57.6149 32.8669L58.1143 32.892L58.6136 32.9172C58.6414 32.3661 58.2176 31.8964 57.6661 31.8683L57.6406 32.3676ZM58.1143 32.892L57.6149 32.8667L57.615 32.8673L57.5898 33.3666L57.5647 33.866C58.1171 33.8938 58.5857 33.4678 58.6136 32.9174L58.1143 32.892ZM57.5898 33.3666L57.615 32.8673L52.575 32.6134L52.5498 33.1127L52.5246 33.6121L57.5647 33.866L57.5898 33.3666ZM52.5498 33.1127L52.5752 32.6134L52.5756 32.613L52.0762 32.5883L51.5768 32.5637C51.5496 33.1136 51.9724 33.584 52.5244 33.6121L52.5498 33.1127ZM52.0762 32.5883L52.5755 32.6135L52.5755 32.6131L52.6006 32.1137L52.6257 31.6143C52.0735 31.5866 51.6045 32.0122 51.5768 32.5632L52.0762 32.5883ZM52.6006 32.1137L52.5754 32.6131L57.6155 32.867L57.6406 32.3676L57.6658 31.8682L52.6257 31.6143L52.6006 32.1137Z" fill="#CFD8FC"/>
<path d="M73.8623 35.704L73.8878 35.2047L73.8875 35.2046L73.8623 35.704ZM74.3369 36.2284L74.8363 36.2536L74.8363 36.2534L74.3369 36.2284ZM73.8125 36.703L73.7873 37.2024L73.788 37.2024L73.8125 36.703ZM66.9512 36.3573L66.9258 36.8567L66.926 36.8567L66.9512 36.3573ZM66.4775 35.8329L65.9782 35.8076L65.9782 35.808L66.4775 35.8329ZM67.002 35.3583L67.0271 34.8589L67.0271 34.8589L67.002 35.3583ZM64.8428 35.2499L64.8682 34.7506L64.8679 34.7505L64.8428 35.2499ZM65.3174 35.7743L65.8167 35.7996L65.8168 35.7992L65.3174 35.7743ZM64.793 36.2489L64.7678 36.7483L64.7685 36.7483L64.793 36.2489ZM52.5625 35.6327L52.5371 36.1321L52.5373 36.1321L52.5625 35.6327ZM52.0889 35.1083L51.5895 35.0829L51.5895 35.0833L52.0889 35.1083ZM52.6133 34.6347L52.5881 35.134L52.5882 35.134L52.6133 34.6347ZM73.8623 35.704L73.8368 36.2034L73.8375 36.2035L74.3369 36.2284L74.8363 36.2534C74.8639 35.7014 74.4381 35.2327 73.8878 35.2047L73.8623 35.704ZM74.3369 36.2284L73.8375 36.2032L73.837 36.2036L73.8125 36.703L73.788 37.2024C74.3389 37.2295 74.8085 36.8048 74.8363 36.2536L74.3369 36.2284ZM73.8125 36.703L73.8377 36.2037L66.9763 35.858L66.9512 36.3573L66.926 36.8567L73.7873 37.2024L73.8125 36.703ZM66.9512 36.3573L66.9765 35.858L66.9769 35.8578L66.4775 35.8329L65.9782 35.808C65.9507 36.3585 66.3739 36.8286 66.9258 36.8567L66.9512 36.3573ZM66.4775 35.8329L66.9769 35.8583L66.9768 35.8577L67.002 35.3583L67.0271 34.8589C66.4747 34.8311 66.0061 35.2571 65.9782 35.8076L66.4775 35.8329ZM67.002 35.3583L66.9768 35.8577L73.8371 36.2034L73.8623 35.704L73.8875 35.2046L67.0271 34.8589L67.002 35.3583ZM64.8428 35.2499L64.8173 35.7493L64.818 35.7494L65.3174 35.7743L65.8168 35.7992C65.8443 35.2473 65.4186 34.7786 64.8682 34.7506L64.8428 35.2499ZM65.3174 35.7743L64.818 35.7491L64.8174 35.7495L64.793 36.2489L64.7685 36.7483C65.3193 36.7753 65.7889 36.3507 65.8167 35.7996L65.3174 35.7743ZM64.793 36.2489L64.8181 35.7496L52.5877 35.1334L52.5625 35.6327L52.5373 36.1321L64.7678 36.7483L64.793 36.2489ZM52.5625 35.6327L52.5879 35.1334L52.5882 35.1333L52.0889 35.1083L51.5895 35.0833C51.5619 35.6341 51.9853 36.104 52.5371 36.1321L52.5625 35.6327ZM52.0889 35.1083L52.5882 35.1337L52.5881 35.134L52.6133 34.6347L52.6384 34.1353C52.0874 34.1076 51.6176 34.5312 51.5895 35.0829L52.0889 35.1083ZM52.6133 34.6347L52.5882 35.134L64.8177 35.7493L64.8428 35.2499L64.8679 34.7505L52.6384 34.1353L52.6133 34.6347Z" fill="#CFD8FC"/>
<path fill-rule="evenodd" clip-rule="evenodd" d="M36.2978 53.0877C36.8548 52.6199 37.5683 52.3802 38.2948 52.4168L67.2653 53.8766C68.1388 53.9206 68.5032 55.0144 67.8308 55.5735L61.0832 61.184C60.5295 61.6445 59.8233 61.8807 59.1039 61.8462L30.1128 60.4554C29.2404 60.4136 28.8726 59.3231 29.5415 58.7614L36.2978 53.0877Z" fill="#3D3E43"/>
<path fill-rule="evenodd" clip-rule="evenodd" d="M38.1702 54.1432C38.2628 54.0654 38.3814 54.0255 38.5022 54.0314L39.8442 54.0966C40.0622 54.1072 40.154 54.3797 39.9869 54.52L39.1009 55.2643C39.0083 55.3421 38.8897 55.382 38.7689 55.3762L37.4269 55.311C37.2089 55.3004 37.1171 55.0279 37.2842 54.8875L38.1702 54.1432Z" fill="#5F6169"/>
<path fill-rule="evenodd" clip-rule="evenodd" d="M36.0678 55.9115C36.1609 55.8333 36.2802 55.7933 36.4017 55.7997L39.8485 55.9808C40.0661 55.9922 40.1571 56.2642 39.9903 56.4042L39.1025 57.15C39.0094 57.2283 38.89 57.2682 38.7686 57.2618L35.3217 57.0807C35.1042 57.0693 35.0132 56.7974 35.1799 56.6573L36.0678 55.9115Z" fill="#5F6169"/>
<path fill-rule="evenodd" clip-rule="evenodd" d="M33.8518 57.7648C33.9444 57.687 34.063 57.647 34.1838 57.6529L35.5258 57.7181C35.7438 57.7287 35.8357 58.0012 35.6685 58.1416L34.7826 58.8858C34.69 58.9636 34.5714 59.0036 34.4506 58.9977L33.1086 58.9325C32.8906 58.9219 32.7987 58.6494 32.9658 58.509L33.8518 57.7648Z" fill="#5F6169"/>
<path fill-rule="evenodd" clip-rule="evenodd" d="M56.5286 55.0691C56.6212 54.9913 56.7398 54.9513 56.8606 54.9572L58.2026 55.0224C58.4206 55.033 58.5124 55.3055 58.3453 55.4459L57.4593 56.1901C57.3667 56.2679 57.2481 56.3078 57.1273 56.302L55.7853 56.2368C55.5673 56.2262 55.4755 55.9537 55.6426 55.8133L56.5286 55.0691Z" fill="#5F6169"/>
<path fill-rule="evenodd" clip-rule="evenodd" d="M56.5286 56.9555C56.6212 56.8777 56.7398 56.8378 56.8606 56.8436L58.2026 56.9089C58.4206 56.9194 58.5124 57.1919 58.3453 57.3323L57.4593 58.0766C57.3667 58.1544 57.2481 58.1943 57.1273 58.1885L55.7853 58.1232C55.5673 58.1126 55.4755 57.8401 55.6426 57.6998L56.5286 56.9555Z" fill="#5F6169"/>
<path fill-rule="evenodd" clip-rule="evenodd" d="M44.2473 54.4481C44.3399 54.3703 44.4585 54.3303 44.5793 54.3362L45.9213 54.4014C46.1393 54.412 46.2312 54.6845 46.0641 54.8249L45.1781 55.5691C45.0855 55.6469 44.9669 55.6869 44.8461 55.681L43.5041 55.6158C43.2861 55.6052 43.1942 55.3327 43.3613 55.1923L44.2473 54.4481Z" fill="#5F6169"/>
<path fill-rule="evenodd" clip-rule="evenodd" d="M44.2473 56.3346C44.3399 56.2568 44.4585 56.2168 44.5793 56.2227L45.9213 56.2879C46.1393 56.2985 46.2312 56.571 46.0641 56.7114L45.1781 57.4556C45.0855 57.5334 44.9669 57.5734 44.8461 57.5675L43.5041 57.5023C43.2861 57.4917 43.1942 57.2192 43.3613 57.0788L44.2473 56.3346Z" fill="#5F6169"/>
<path fill-rule="evenodd" clip-rule="evenodd" d="M39.928 58.0696C40.0206 57.9918 40.1392 57.9519 40.26 57.9577L41.602 58.023C41.82 58.0335 41.9118 58.3061 41.7447 58.4464L40.8588 59.1907C40.7661 59.2685 40.6475 59.3084 40.5267 59.3026L39.1847 59.2373C38.9667 59.2267 38.8749 58.9542 39.042 58.8139L39.928 58.0696Z" fill="#5F6169"/>
<path fill-rule="evenodd" clip-rule="evenodd" d="M58.2854 58.9955C58.378 58.9176 58.4966 58.8777 58.6174 58.8836L59.9594 58.9488C60.1774 58.9594 60.2693 59.2319 60.1021 59.3723L59.2162 60.1165C59.1236 60.1943 59.005 60.2342 58.8841 60.2284L57.5422 60.1632C57.3241 60.1526 57.2323 59.8801 57.3994 59.7397L58.2854 58.9955Z" fill="#5F6169"/>
<path fill-rule="evenodd" clip-rule="evenodd" d="M41.2043 54.2946C41.297 54.2168 41.4155 54.1769 41.5364 54.1827L42.8784 54.248C43.0964 54.2586 43.1882 54.5311 43.0211 54.6714L42.1351 55.4157C42.0425 55.4935 41.9239 55.5334 41.8031 55.5276L40.4611 55.4623C40.2431 55.4518 40.1513 55.1792 40.3184 55.0389L41.2043 54.2946Z" fill="#5F6169"/>
<path fill-rule="evenodd" clip-rule="evenodd" d="M41.2043 56.1811C41.297 56.1033 41.4155 56.0633 41.5364 56.0692L42.8784 56.1344C43.0964 56.145 43.1882 56.4175 43.0211 56.5579L42.1351 57.3021C42.0425 57.3799 41.9239 57.4199 41.8031 57.414L40.4611 57.3488C40.2431 57.3382 40.1513 57.0657 40.3184 56.9253L41.2043 56.1811Z" fill="#5F6169"/>
<path fill-rule="evenodd" clip-rule="evenodd" d="M36.885 57.9162C36.9776 57.8384 37.0962 57.7984 37.217 57.8043L38.559 57.8695C38.777 57.8801 38.8689 58.1526 38.7017 58.293L37.8158 59.0372C37.7232 59.115 37.6046 59.155 37.4838 59.1491L36.1418 59.0839C35.9238 59.0733 35.8319 58.8008 35.999 58.6604L36.885 57.9162Z" fill="#5F6169"/>
<path fill-rule="evenodd" clip-rule="evenodd" d="M59.5618 55.2205C59.6544 55.1427 59.773 55.1027 59.8938 55.1086L61.2358 55.1738C61.4538 55.1844 61.5456 55.4569 61.3785 55.5973L60.4925 56.3415C60.3999 56.4193 60.2813 56.4592 60.1605 56.4534L58.8185 56.3882C58.6005 56.3776 58.5087 56.1051 58.6758 55.9647L59.5618 55.2205Z" fill="#5F6169"/>
<path fill-rule="evenodd" clip-rule="evenodd" d="M46.0914 58.4176C46.1838 58.34 46.3021 58.3001 46.4226 58.3057L56.9147 58.7963C57.133 58.8065 57.2252 59.0793 57.0579 59.2198L56.1728 59.9633C56.0804 60.0409 55.9622 60.0809 55.8417 60.0753L45.3495 59.5846C45.1313 59.5744 45.0391 59.3016 45.2064 59.1611L46.0914 58.4176Z" fill="#5F6169"/>
<path fill-rule="evenodd" clip-rule="evenodd" d="M47.2815 54.5995C47.3741 54.5217 47.4927 54.4817 47.6135 54.4876L48.9555 54.5528C49.1735 54.5634 49.2654 54.8359 49.0982 54.9763L48.2123 55.7205C48.1196 55.7983 48.0011 55.8383 47.8802 55.8324L46.5382 55.7672C46.3202 55.7566 46.2284 55.4841 46.3955 55.3437L47.2815 54.5995Z" fill="#5F6169"/>
<path fill-rule="evenodd" clip-rule="evenodd" d="M47.2815 56.486C47.3741 56.4082 47.4927 56.3682 47.6135 56.3741L48.9555 56.4393C49.1735 56.4499 49.2654 56.7224 49.0982 56.8628L48.2123 57.607C48.1196 57.6848 48.0011 57.7247 47.8802 57.7189L46.5382 57.6537C46.3202 57.6431 46.2284 57.3706 46.3955 57.2302L47.2815 56.486Z" fill="#5F6169"/>
<path fill-rule="evenodd" clip-rule="evenodd" d="M42.9621 58.221C43.0548 58.1432 43.1734 58.1032 43.2942 58.1091L44.6362 58.1743C44.8542 58.1849 44.946 58.4574 44.7789 58.5978L43.8929 59.342C43.8003 59.4198 43.6817 59.4598 43.5609 59.4539L42.2189 59.3887C42.0009 59.3781 41.9091 59.1056 42.0762 58.9652L42.9621 58.221Z" fill="#5F6169"/>
<path fill-rule="evenodd" clip-rule="evenodd" d="M50.4114 54.7599C50.504 54.6821 50.6226 54.6421 50.7434 54.648L52.0854 54.7132C52.3034 54.7238 52.3952 54.9963 52.2281 55.1367L51.3422 55.8809C51.2495 55.9587 51.1309 55.9986 51.0101 55.9928L49.6681 55.9276C49.4501 55.917 49.3583 55.6445 49.5254 55.5041L50.4114 54.7599Z" fill="#5F6169"/>
<path fill-rule="evenodd" clip-rule="evenodd" d="M50.4114 56.6463C50.504 56.5685 50.6226 56.5286 50.7434 56.5344L52.0854 56.5996C52.3034 56.6102 52.3952 56.8827 52.2281 57.0231L51.3422 57.7673C51.2495 57.8452 51.1309 57.8851 51.0101 57.8792L49.6681 57.814C49.4501 57.8034 49.3583 57.5309 49.5254 57.3905L50.4114 56.6463Z" fill="#5F6169"/>
<path fill-rule="evenodd" clip-rule="evenodd" d="M53.4436 54.9112C53.5362 54.8334 53.6548 54.7935 53.7756 54.7993L55.1176 54.8645C55.3356 54.8751 55.4275 55.1476 55.2603 55.288L54.3744 56.0322C54.2818 56.11 54.1632 56.15 54.0424 56.1441L52.7004 56.0789C52.4823 56.0683 52.3905 55.7958 52.5576 55.6554L53.4436 54.9112Z" fill="#5F6169"/>
<path fill-rule="evenodd" clip-rule="evenodd" d="M53.4436 56.7977C53.5362 56.7199 53.6548 56.6799 53.7756 56.6858L55.1176 56.751C55.3356 56.7616 55.4275 57.0341 55.2603 57.1745L54.3744 57.9187C54.2818 57.9965 54.1632 58.0365 54.0424 58.0306L52.7004 57.9654C52.4823 57.9548 52.3905 57.6823 52.5576 57.5419L53.4436 56.7977Z" fill="#5F6169"/>
<path fill-rule="evenodd" clip-rule="evenodd" d="M62.9373 55.262C62.816 55.2561 62.697 55.2964 62.6043 55.3747L60.788 56.9085C60.6954 56.9866 60.5767 57.0269 60.4557 57.0212L59.8934 56.9947C59.7728 56.989 59.6545 57.029 59.5621 57.1066L58.6751 57.8517C58.508 57.992 58.5996 58.2644 58.8175 58.2752L61.1333 58.3903C61.2555 58.3963 61.3755 58.3555 61.4686 58.276L64.4295 55.7498C64.5949 55.6088 64.5025 55.3381 64.2854 55.3275L62.9373 55.262Z" fill="#5F6169"/>
<path fill-rule="evenodd" clip-rule="evenodd" d="M18.6801 22.2244C18.6801 22.2244 20.6219 24.585 20.5464 26.7476C20.522 27.4449 21.2931 29.1368 21.5114 29.4986C21.7297 29.8604 21.6567 30.003 21.3519 30.2032C21.0471 30.4033 20.5444 30.4616 20.4168 30.4572C20.2892 30.4527 20.267 30.4149 20.1143 31.0475C19.9616 31.6801 19.245 33.1565 18.7572 33.5712C18.2694 33.9858 17.5432 34.1389 16.8018 34.113C16.0604 34.0872 14.9902 33.8194 14.9902 33.8194C14.9902 33.8194 14.5086 38.7566 14.2179 39.5395C13.9272 40.3225 8.24939 36.8621 8.24939 36.8621C8.24939 36.8621 8.85933 34.49 8.7585 31.5032C8.65767 28.5164 7.95106 24.6948 7.95106 24.6948C7.95106 24.6948 12.6304 21.0753 12.6304 21.0753C12.6304 21.0753 18.6801 22.2244 18.6801 22.2244Z" fill="#F7CFCE"/>
<path d="M14.0671 22.7719C14.081 22.7719 15.4922 24.9987 15.4922 24.9987L14.9697 26.8938C14.9697 26.8938 14.9317 26.4616 14.7537 26.0556C14.5755 25.6498 14.1248 25.2454 13.5732 25.2454C13.0215 25.2456 12.3362 26.0111 12.3362 26.8937C12.3362 28.3188 12.992 28.0185 13.2732 28.4928C13.5539 28.9671 13.273 29.7913 12.8921 30.5344C12.5111 31.2778 11.6562 32.1854 10.57 32.6158C9.484 33.046 9.6155 32.3028 9.6155 33.6466C9.61544 34.9842 9.35624 37.174 9.35383 37.1943L8.90718 37.253C8.51096 37.0204 8.25781 36.8682 8.24853 36.8625C8.24853 36.8625 8.858 34.4898 8.75717 31.503C8.7511 31.3233 8.74247 31.1406 8.7323 30.9559L10.6808 28.4921L10.429 23.5585C10.4663 23.5504 14.045 22.7737 14.0671 22.7719Z" fill="#F3BBBA"/>
<path fill-rule="evenodd" clip-rule="evenodd" d="M-6.34635 67.7875C-6.31092 66.7729 -3.58953 46.6935 3.18295 39.5001C7.19566 35.238 7.8496 34.8728 9.79479 36.2856C11.2001 37.3062 12.9355 38.3487 14.611 39.3C16.2865 40.2514 16.4271 41.8151 17.5067 43.7621C18.5864 45.7091 21.418 49.4427 21.9357 50.3449C21.9743 51.3757 17.6152 55.2664 14.8661 56.3589C14.8661 56.3589 12.6819 68.0865 12.6843 73.1781L-5.11715 71.5345C-5.11715 71.5345 -6.38178 68.8022 -6.34635 67.7875Z" fill="#00CCC7"/>
<path fill-rule="evenodd" clip-rule="evenodd" d="M14.8669 56.3589C14.8669 56.3589 10.3619 52.8656 8.35645 48.6556C8.35645 48.6556 9.32563 52.3259 12.8089 56.63C12.7328 58.8089 12.2306 63.1771 11.5361 66.3184C10.8416 69.4597 10.6287 71.3813 10.6287 71.3813L13.5655 70.8294L14.8669 56.3589Z" fill="#02ACA7"/>
<path fill-rule="evenodd" clip-rule="evenodd" d="M15.0993 33.8461C15.0993 33.8461 14.3154 33.6586 13.9666 33.424C13.3277 32.9944 12.6113 32.3787 12.6113 32.3787C12.6113 32.3787 13.3631 33.5359 13.9207 34.0203C14.4181 34.4524 14.8897 34.7973 14.8897 34.7973C14.8897 34.7973 14.9207 34.5093 14.9587 34.2765C14.9967 34.0437 15.0993 33.8461 15.0993 33.8461Z" fill="#F3BBBA"/>
<path fill-rule="evenodd" clip-rule="evenodd" d="M18.8849 22.6212C18.8849 22.6212 18.2767 22.8127 17.8408 22.9676C17.0685 23.242 16.668 23.4375 16.3531 24.1901C16.0383 24.9427 15.7293 26.3543 15.2411 27.0761C14.9382 27.5239 14.8908 27.0146 14.8503 26.3955C14.8255 26.0167 14.8032 25.5968 14.7266 25.3298C14.5785 24.8142 13.8914 24.0894 13.0456 24.5228C12.1998 24.9561 11.64 26.6314 11.9862 27.4483C12.0903 27.6939 12.2438 27.8872 12.4076 28.0374C12.7949 28.3927 13.1201 28.9123 12.9578 29.4122C12.7303 30.113 12.3785 31.0356 11.9862 31.4831C11.3061 32.2589 10.524 32.709 9.92255 32.8511C9.3211 32.9931 8.72125 32.9025 8.3044 32.2946C7.88756 31.6868 8.69053 30.5106 7.23097 28.503C6.40414 27.3657 5.01147 22.9252 6.58431 21.3765C7.93219 20.0493 7.72301 19.8247 8.24921 18.6563C8.77542 17.4879 10.3404 15.9973 12.4761 16.5706C14.6118 17.1439 14.8048 17.1491 16.4817 16.7104C17.9325 16.331 19.6878 16.0168 20.7706 16.9323C22.3714 18.2856 22.4613 19.7617 22.1744 20.6764C21.8756 21.6286 21.4982 22.134 21.3075 22.8127C21.1168 23.4915 20.9898 23.8819 20.479 23.8819C19.851 23.8819 19.5357 23.5016 19.5357 23.5016L18.8849 22.6212Z" fill="#3C3D42"/>
<path fill-rule="evenodd" clip-rule="evenodd" d="M35.3582 56.4707C35.3582 56.4707 39.4263 60.7831 40.3685 61.5032C41.3106 62.2234 41.5918 62.7574 43.6226 62.4904C45.6533 62.2234 56.4843 59.9262 57.6602 59.5155C58.836 59.1048 59.2115 59.0245 59.2115 59.0245C59.2115 59.0245 60.9291 56.5354 63.7342 57.0738C66.5393 57.6122 69.9761 59.3538 70.7222 59.8072C71.4684 60.2606 71.2537 61.9181 70.3375 61.9181C69.4214 61.9181 66.3507 61.5032 65.2315 61.5032C64.1123 61.5032 62.8443 61.5933 61.8338 62.4904C60.8232 63.3875 59.7533 63.1917 59.2115 63.2052C58.6698 63.2187 44.4582 69.1083 41.7237 69.6915C38.9892 70.2746 38.6024 69.7504 37.188 68.9475C35.7735 68.1446 30.2363 62.911 29.1166 61.5032C27.9969 60.0954 35.3582 56.4707 35.3582 56.4707Z" fill="#F9DAD9"/>
<mask id="mask2_56_813" style="mask-type:luminance" maskUnits="userSpaceOnUse" x="29" y="56" width="43" height="14">
<path fill-rule="evenodd" clip-rule="evenodd" d="M35.3582 56.4707C35.3582 56.4707 39.4263 60.7831 40.3685 61.5032C41.3106 62.2234 41.5918 62.7574 43.6226 62.4904C45.6533 62.2234 56.4843 59.9262 57.6602 59.5155C58.836 59.1048 59.2115 59.0245 59.2115 59.0245C59.2115 59.0245 60.9291 56.5354 63.7342 57.0738C66.5393 57.6122 69.9761 59.3538 70.7222 59.8072C71.4684 60.2606 71.2537 61.9181 70.3375 61.9181C69.4214 61.9181 66.3507 61.5032 65.2315 61.5032C64.1123 61.5032 62.8443 61.5933 61.8338 62.4904C60.8232 63.3875 59.7533 63.1917 59.2115 63.2052C58.6698 63.2187 44.4582 69.1083 41.7237 69.6915C38.9892 70.2746 38.6024 69.7504 37.188 68.9475C35.7735 68.1446 30.2363 62.911 29.1166 61.5032C27.9969 60.0954 35.3582 56.4707 35.3582 56.4707Z" fill="white"/>
</mask>
<g mask="url(#mask2_56_813)">
<path fill-rule="evenodd" clip-rule="evenodd" d="M36.6291 56.926C36.6291 57.1032 35.6026 59.0714 34.1988 60.7131C32.7949 62.3548 33.0108 62.6201 33.3784 63.2052C34.8205 65.5004 36.3213 66.2327 37.4568 67.1332C38.5923 68.0338 40.0297 68.7276 43.2219 67.7414C44.9667 67.2023 54.5139 64.2988 55.6684 63.4842C57.4843 62.2028 59.5997 62.4767 60.3974 62.3548C61.1952 62.2329 61.7522 61.5693 62.1838 61.2746C63.6357 60.2836 63.8831 60.2821 65.3903 60.2821C66.8975 60.2821 69.1306 61.0854 69.812 61.3874C70.4933 61.6895 70.8292 62.1427 70.8292 62.1427L69.2434 63.4842C69.2434 63.4842 64.5302 62.99 63.7712 63.6795C63.0123 64.3689 47.028 71.5755 45.5888 71.9565C44.1495 72.3376 35.3165 72.5508 35.3165 72.5508C35.3165 72.5508 28.0635 62.5959 28.0635 62.1427C28.0635 61.6895 33.3784 56.4707 33.3784 56.4707L35.5178 55.3636L36.6291 56.7535C36.6291 56.7535 36.6291 56.7488 36.6291 56.926Z" fill="#F2C6C3"/>
</g>
<path fill-rule="evenodd" clip-rule="evenodd" d="M31.3342 50.3393C34.1393 50.8777 37.576 52.6193 38.3222 53.0727C39.0684 53.5261 38.8536 55.1836 37.9375 55.1836C37.0214 55.1836 33.9506 54.7687 32.8314 54.7687L32.6057 54.7701C31.5822 54.7838 30.4602 54.9091 29.5356 55.6688L29.4337 55.7559C28.4232 56.653 27.3533 56.4572 26.8115 56.4707C26.5805 56.4765 23.8628 57.5511 20.6096 58.827L20.6094 53.8822L22.0353 53.5672C23.611 53.2144 24.8335 52.9223 25.2283 52.7918L25.7198 52.6227C26.25 52.4432 26.6139 52.3323 26.8115 52.29C27.9566 50.6306 29.4641 49.9804 31.3342 50.3393Z" fill="#F9DAD9"/>
<path d="M32.9912 53.5475C34.4982 53.5477 36.7304 54.3509 37.4121 54.653C37.7231 54.7909 37.9796 54.9533 38.1826 55.1384C38.1075 55.1667 38.026 55.1833 37.9375 55.1833C37.0213 55.1833 33.9502 54.7682 32.8311 54.7682L32.6055 54.7702C31.5822 54.7839 30.4605 54.9093 29.5361 55.6686L29.4336 55.7556C28.423 56.6527 27.3533 56.4569 26.8115 56.4704C26.58 56.4764 23.8623 57.551 20.6094 58.8268V57.8532L20.9951 57.7145C22.0813 57.3208 22.9089 56.9842 23.2334 56.7731L23.2686 56.7497C25.0845 55.4683 27.2003 55.7417 27.998 55.6198C28.7957 55.4979 29.3526 54.8343 29.7842 54.5397L30.0225 54.3796C31.1575 53.6232 31.5088 53.5548 32.6357 53.5485L32.9912 53.5475Z" fill="#F2C6C3"/>
<path fill-rule="evenodd" clip-rule="evenodd" d="M32.3794 26.723C32.3794 26.723 34.2919 30.8479 34.9127 32.2321C35.5335 33.6164 35.8314 33.8803 35.0421 34.3044C34.2528 34.7284 33.6672 34.4995 33.6672 35.2907C33.6672 36.082 33.8773 37.5279 33.3698 38.4306C32.8623 39.3334 32.2564 40.8587 29.1838 40.524C29.1838 40.524 28.5918 44.4712 28.9687 46.245C29.3457 48.0188 29.1838 47.9168 29.1838 47.9168L23.4185 46.4367L21.965 43.7364C21.965 43.7364 23.27 40.7971 22.7942 38.2719C22.3185 35.7467 20.6094 31.8403 20.6094 31.8403L22.3185 25.8267L27.8795 23.4581L32.3794 26.723Z" fill="#F9DAD9"/>
<mask id="mask3_56_813" style="mask-type:luminance" maskUnits="userSpaceOnUse" x="20" y="23" width="16" height="25">
<path fill-rule="evenodd" clip-rule="evenodd" d="M32.3794 26.723C32.3794 26.723 34.2919 30.8479 34.9127 32.2321C35.5335 33.6164 35.8314 33.8803 35.0421 34.3044C34.2528 34.7284 33.6672 34.4995 33.6672 35.2907C33.6672 36.082 33.8773 37.5279 33.3698 38.4306C32.8623 39.3334 32.2564 40.8587 29.1838 40.524C29.1838 40.524 28.5918 44.4712 28.9687 46.245C29.3457 48.0188 29.1838 47.9168 29.1838 47.9168L23.4185 46.4367L21.965 43.7364C21.965 43.7364 23.27 40.7971 22.7942 38.2719C22.3185 35.7467 20.6094 31.8403 20.6094 31.8403L22.3185 25.8267L27.8795 23.4581L32.3794 26.723Z" fill="white"/>
</mask>
<g mask="url(#mask3_56_813)">
<path fill-rule="evenodd" clip-rule="evenodd" d="M29.184 40.524C29.184 40.524 26.8304 39.7025 25.0947 38.268C25.0947 38.268 26.0651 39.4808 26.6082 39.8996C27.1937 40.3511 28.4375 41.2731 29.0401 41.5311C29.0905 41.1275 29.184 40.524 29.184 40.524Z" fill="#F2C7C2"/>
<path fill-rule="evenodd" clip-rule="evenodd" d="M23.4924 42.9372C23.4924 42.9372 23.9036 40.8 23.737 39.8995C23.5704 38.9991 23.4924 38.268 23.4924 38.268C23.4924 38.268 23.9142 36.8457 23.9142 35.8137C23.9142 35.0699 23.2597 34.9543 23.2597 34.9543C23.2597 34.9543 22.2706 34.3439 22.0689 33.7658C21.8672 33.1877 21.9563 32.1595 22.7243 31.5626C23.4924 30.9656 24.9378 32.424 24.9378 32.424L24.3985 29.9491L22.5005 29.74L19.7393 31.3778L20.3007 34.6144L21.62 38.7575L22.0689 42.9372H23.4924Z" fill="#F2C7C2"/>
</g>
<path fill-rule="evenodd" clip-rule="evenodd" d="M21.633 24.8614C21.633 24.8614 18.4634 24.7308 17.4564 27.1417C16.0852 30.4242 18.6264 35.8773 21.4047 37.8779C24.1829 39.8785 23.7487 35.8303 23.5838 35.4916C23.4189 35.1529 21.633 34.9777 21.633 32.9173C21.633 31.1963 22.7358 30.2231 23.5838 30.4242C24.1649 30.562 24.1649 31.3612 24.809 32.2484C25.4532 33.1356 26.024 33.7925 25.8967 33.1616C25.7694 32.5308 25.206 31.3162 25.206 30.0394C25.206 28.7626 24.9108 26.1665 27.997 26.5451C30.2234 26.8182 30.6532 27.5703 32.2952 27.9712C33.9372 28.372 35.3321 27.6334 35.3583 26.5451C35.3845 25.4568 34.0092 23.4581 32.2952 21.9926C30.5812 20.5271 27.7769 19.1879 25.6187 19.8613C21.5295 21.1372 21.633 24.8614 21.633 24.8614Z" fill="#3C3D42"/>
<path fill-rule="evenodd" clip-rule="evenodd" d="M8.60938 71.0453C8.60938 70.03 10.754 53.4657 17.2713 46.0403C21.1328 41.6408 21.7736 41.253 23.7669 42.597C25.207 43.5679 26.9778 44.5493 28.6854 45.4416C30.3931 46.3338 30.5882 47.8917 31.7351 49.7998C32.882 51.708 35.8422 55.3405 36.3911 56.224C36.4656 57.2528 32.245 61.2933 29.5357 62.4811C29.5357 62.4811 27.6365 70.68 27.8166 75.7684L9.95603 74.3873C9.95603 74.3873 8.60938 72.0606 8.60938 71.0453Z" fill="#6CA3FF"/>
<path fill-rule="evenodd" clip-rule="evenodd" d="M29.5361 62.4811C29.5361 62.4811 24.9119 59.1472 22.7607 55.0097C22.7607 55.0097 23.8574 58.6439 27.4888 62.8238C27.4888 65.0041 27.1394 69.3872 26.5549 72.5508C25.9704 75.7144 25.8247 77.6422 25.8247 77.6422L28.7405 76.9882L29.5361 62.4811Z" fill="#5D8DDD"/>
</g>
</g>
<defs>
<clipPath id="clip0_56_813">
<rect width="72" height="72" rx="8" fill="white"/>
</clipPath>
</defs>
</svg>
