<svg width="72" height="72" viewBox="0 0 72 72" fill="none" xmlns="http://www.w3.org/2000/svg">
<g clip-path="url(#clip0_48_307)">
<rect width="72" height="72" rx="8" fill="white" fill-opacity="0.78"/>
<rect x="59.1411" y="48.0288" width="18.3094" height="18.9228" fill="#FFD9D8"/>
<path fill-rule="evenodd" clip-rule="evenodd" d="M59.1411 35.4137H77.4505V51.4693C77.4505 51.4693 75.939 57.4902 68.4145 57.7078C60.89 57.9254 59.1411 50.9133 59.1411 50.9133L59.1411 35.4137Z" fill="#FAC4C3"/>
<path fill-rule="evenodd" clip-rule="evenodd" d="M56.3334 36.2835C56.3334 36.2835 53.0553 36.2835 52.1834 38.2363C51.3114 40.1891 51.3504 43.4603 54.2584 44.8574C57.1664 46.2545 57.8782 46.3154 57.8782 46.3154L56.3334 36.2835Z" fill="#FAC4C3"/>
<path d="M80.8957 40.5563C80.8957 49.328 75.3076 56.4389 68.4144 56.4389C61.5212 56.4389 55.9331 49.328 55.9331 40.5563C55.9331 31.7845 55.9331 22 68.4144 24.6736C75.3076 24.6736 80.8957 31.7845 80.8957 40.5563Z" fill="#FFD9D8"/>
<path fill-rule="evenodd" clip-rule="evenodd" d="M55.9334 36.2835C55.9334 36.2835 55.8636 26.625 62.3535 27.5892C68.8435 28.5534 71.1284 26.6124 72.1753 26.3366C73.2222 26.0607 78.8438 24.7119 80.896 36.907C80.896 36.907 83.0113 30.3405 82.5084 24.6737C82.0054 19.0068 76.5142 17.0348 76.5142 16.7403C76.5142 16.4459 75.796 11.7 69.6752 11.7C63.5543 11.7 56.8856 14.9511 54.2284 20.7881C52.9603 23.5737 52.6187 27.7587 53.8076 31.6605C54.2794 33.2091 55.9334 36.2835 55.9334 36.2835Z" fill="#3D3D44"/>
<path fill-rule="evenodd" clip-rule="evenodd" d="M59.1411 60.8624L29.0497 71.2832L28.7998 86.4H112.5V72.3627L77.4504 60.8624C77.4504 60.8624 74.0396 65.6373 68.2957 65.6373C62.5519 65.6373 59.1411 60.8624 59.1411 60.8624Z" fill="#6CA3FF"/>
</g>
<defs>
<clipPath id="clip0_48_307">
<rect width="72" height="72" rx="8" fill="white"/>
</clipPath>
</defs>
</svg>
