<svg width="72" height="72" viewBox="0 0 72 72" fill="none" xmlns="http://www.w3.org/2000/svg">
<g clip-path="url(#clip0_56_793)">
<rect width="72" height="72" rx="8" fill="white"/>
<rect width="72" height="72" rx="8" fill="white"/>
<path fill-rule="evenodd" clip-rule="evenodd" d="M0 38.88H72V64.8H0L0 38.88Z" fill="#D9D9D9"/>
<path d="M14.4004 17.76C14.4004 16.6996 15.26 15.84 16.3204 15.84H55.6804C56.7408 15.84 57.6004 16.6996 57.6004 17.76V38.88H14.4004V17.76Z" fill="#3D3E43"/>
<rect x="15.8398" y="17.28" width="40.32" height="20.16" fill="#91A7F8"/>
<path d="M14.4004 38.88H57.6004V39.84C57.6004 40.9004 56.7408 41.76 55.6804 41.76H16.3204C15.26 41.76 14.4004 40.9004 14.4004 39.84V38.88Z" fill="#EEF1F6"/>
<rect x="33.4805" y="41.76" width="5.04" height="5.04" fill="#4A4B51"/>
<path d="M28.0801 48.24C28.0801 47.4447 28.7248 46.8 29.5201 46.8H42.4801C43.2754 46.8 43.9201 47.4447 43.9201 48.24V48.24H28.0801V48.24Z" fill="#3D3E43"/>
<path d="M29.5195 20.16H39.5995" stroke="#CFD8FC" stroke-width="1.44" stroke-linecap="round"/>
<path d="M29.5195 22.68H39.5995" stroke="#CFD8FC" stroke-width="1.44" stroke-linecap="round"/>
<path d="M43.2002 22.68H51.4802" stroke="#CFD8FC" stroke-width="1.44" stroke-linecap="round"/>
<path d="M39.96 25.2H51.48" stroke="#CFD8FC" stroke-width="1.44" stroke-linecap="round"/>
<path d="M29.5195 25.2H38.1595" stroke="#CFD8FC" stroke-width="1.44" stroke-linecap="round"/>
<path d="M22.9424 21.9686L24.39 23.7753L27.9747 20.3669" stroke="#CFD8FC" stroke-width="1.44" stroke-linecap="round" stroke-linejoin="round"/>
<rect x="21.5996" y="20.16" width="5.04" height="5.04" stroke="#CFD8FC" stroke-width="1.44" stroke-linejoin="round"/>
<path d="M29.5195 29.16H39.5995" stroke="#CFD8FC" stroke-width="1.44" stroke-linecap="round"/>
<path d="M29.5195 31.68H39.5995" stroke="#CFD8FC" stroke-width="1.44" stroke-linecap="round"/>
<path d="M41.4004 31.68H51.4804" stroke="#CFD8FC" stroke-width="1.44" stroke-linecap="round"/>
<path d="M44.2803 34.2C44.2803 34.2 51.4803 34.2 51.4803 34.2" stroke="#CFD8FC" stroke-width="1.44" stroke-linecap="round"/>
<path d="M29.5195 34.2H42.4795" stroke="#CFD8FC" stroke-width="1.44" stroke-linecap="round"/>
<path d="M22.9424 30.9686L24.39 32.7753L27.9747 29.3669" stroke="#CFD8FC" stroke-width="1.44" stroke-linecap="round" stroke-linejoin="round"/>
<rect x="21.5996" y="29.16" width="5.04" height="5.04" stroke="#CFD8FC" stroke-width="1.44" stroke-linejoin="round"/>
<rect x="31.5449" y="34.7634" width="8.78149" height="9.07782" fill="#FAC4C3"/>
<path fill-rule="evenodd" clip-rule="evenodd" d="M31.5449 28.7115H40.3264V36.4139C40.3264 36.4139 39.6015 39.3023 35.9926 39.4067C32.3837 39.5111 31.5449 36.1472 31.5449 36.1472L31.5449 28.7115Z" fill="#FAC4C3"/>
<path fill-rule="evenodd" clip-rule="evenodd" d="M29.8723 29.1288C29.8723 29.1288 28.3001 29.1288 27.8818 30.0656C27.4636 31.0024 27.4824 32.5717 28.8771 33.2419C30.2718 33.9122 30.6132 33.9414 30.6132 33.9414L29.8723 29.1288Z" fill="#FAC4C3"/>
<path fill-rule="evenodd" clip-rule="evenodd" d="M42.0086 29.1288C42.0086 29.1288 43.5808 29.1288 43.999 30.0656C44.4172 31.0024 44.3985 32.5717 43.0038 33.2419C41.6091 33.9122 41.2677 33.9414 41.2677 33.9414L42.0086 29.1288Z" fill="#FAC4C3"/>
<path fill-rule="evenodd" clip-rule="evenodd" d="M30.0068 31.4134C30.0068 31.4134 29.9733 26.78 33.086 27.2425C36.1987 27.7051 37.2946 26.7739 37.7967 26.6416C38.2988 26.5093 40.995 25.8622 41.9793 31.7126C41.9793 31.7126 42.9939 28.5624 42.7526 25.8438C42.5114 23.1253 39.8777 22.1792 39.8777 22.038C39.8777 21.8967 39.5333 19.62 36.5976 19.62C33.6619 19.62 30.4635 21.1796 29.1891 23.9798C28.5809 25.3162 28.417 27.3238 28.9872 29.1956C29.2135 29.9385 30.0068 31.4134 30.0068 31.4134Z" fill="#3D3D44"/>
<ellipse cx="35.682" cy="32.3209" rx="7.01896" ry="7.18547" fill="#3D3D44"/>
<path fill-rule="evenodd" clip-rule="evenodd" d="M49.1016 57.4763C49.1016 57.4763 53.2188 61.9852 54.5837 63.2487C55.9487 64.5122 60.6257 67.0391 62.2919 64.8081C64.6065 61.7092 54.9755 50.725 54.9755 50.725C54.9755 50.725 55.5425 48.1958 54.0192 47.1083C52.2246 45.827 50.2914 46.0508 49.7125 46.603C49.3695 46.9302 49.5969 47.7085 49.9086 47.9384C50.2003 48.1537 51.2983 48.4559 51.6158 49.0428C51.9333 49.6297 51.9253 50.5987 52.0225 51.0782C52.1196 51.5577 52.6585 51.9048 52.7623 52.3589C52.8661 52.813 57.0995 57.7224 57.0995 57.7224C57.0995 57.7224 53.8601 53.8772 53.8601 53.8772L49.1016 57.4763Z" fill="#F9DAD9"/>
<mask id="mask0_56_793" style="mask-type:luminance" maskUnits="userSpaceOnUse" x="49" y="46" width="14" height="20">
<path fill-rule="evenodd" clip-rule="evenodd" d="M49.1016 57.4763C49.1016 57.4763 53.2188 61.9852 54.5837 63.2487C55.9487 64.5122 60.6257 67.0391 62.2919 64.8081C64.6065 61.7092 54.9755 50.725 54.9755 50.725C54.9755 50.725 55.5425 48.1958 54.0192 47.1083C52.2246 45.827 50.2914 46.0508 49.7125 46.603C49.3695 46.9302 49.5969 47.7085 49.9086 47.9384C50.2003 48.1537 51.2983 48.4559 51.6158 49.0428C51.9333 49.6297 51.9253 50.5987 52.0225 51.0782C52.1196 51.5577 52.6585 51.9048 52.7623 52.3589C52.8661 52.813 57.0995 57.7224 57.0995 57.7224C57.0995 57.7224 53.8601 53.8772 53.8601 53.8772L49.1016 57.4763Z" fill="white"/>
</mask>
<g mask="url(#mask0_56_793)">
<path fill-rule="evenodd" clip-rule="evenodd" d="M55.4851 53.8793L55.9501 54.611C56.0489 54.7665 56.0504 54.9643 55.9529 55.1206C55.5315 55.7969 54.3865 57.6257 53.9364 58.2576C53.3797 59.0388 53.224 59.4872 53.6971 60.1786C54.1701 60.87 56.5088 63.2712 57.3529 63.7177C58.197 64.1642 60.5003 65.0154 61.2332 64.7538C61.9662 64.4922 62.4693 64.039 62.7404 63.1566C63.0115 62.2742 63.4343 65.1811 63.4343 65.1811C63.4343 65.1811 61.413 65.9037 61.413 65.9037C61.413 65.9037 57.8786 65.6956 57.8786 65.6956C57.8786 65.6956 52.8338 64.6469 52.8338 64.6469C52.8338 64.6469 50.0407 60.4899 50.0407 60.4899C50.0407 60.4899 49.1016 57.4763 49.1016 57.4763L55.4851 53.8793Z" fill="#F2C6C3"/>
</g>
<path fill-rule="evenodd" clip-rule="evenodd" d="M16.6583 54.266C16.6583 54.266 14.273 57.4954 13.1715 59.6191C11.7247 62.4086 10.1587 66.1551 15.1517 65.7531C20.1447 65.3512 28.0799 63.8774 28.0799 63.8774C28.0799 63.8774 27.7622 59.258 27.7622 59.258L20.201 60.2473C20.201 60.2473 22.2564 57.0551 22.2564 57.0551C22.2564 57.0551 16.6583 54.266 16.6583 54.266Z" fill="#F9DAD9"/>
<mask id="mask1_56_793" style="mask-type:luminance" maskUnits="userSpaceOnUse" x="11" y="54" width="18" height="12">
<path fill-rule="evenodd" clip-rule="evenodd" d="M16.6583 54.266C16.6583 54.266 14.273 57.4954 13.1715 59.6191C11.7247 62.4086 10.1587 66.1551 15.1517 65.7531C20.1447 65.3512 28.0799 63.8774 28.0799 63.8774C28.0799 63.8774 27.7622 59.258 27.7622 59.258L20.201 60.2473C20.201 60.2473 22.2564 57.0551 22.2564 57.0551C22.2564 57.0551 16.6583 54.266 16.6583 54.266Z" fill="white"/>
</mask>
<g mask="url(#mask1_56_793)">
<path fill-rule="evenodd" clip-rule="evenodd" d="M15.2471 55.4124C15.2471 55.4124 16.7441 57.6666 17.6621 58.4377C18.5801 59.2088 20.2849 60.0245 20.2849 60.0245C20.2849 60.0245 20.4549 59.8971 21.0458 58.8867C21.6367 57.8763 19.912 55.9946 19.912 55.9946C19.912 55.9946 15.9047 55.1956 15.9047 55.1956C15.9047 55.1956 15.2471 55.4124 15.2471 55.4124Z" fill="#F2C6C3"/>
<path fill-rule="evenodd" clip-rule="evenodd" d="M12.1268 61.932C12.1268 61.932 12.1498 63.3604 12.4098 63.7785C12.6697 64.1966 13.3299 64.7244 14.4321 64.8038C15.5342 64.8832 23.0759 64.086 25.1509 63.3229C27.226 62.5599 25.416 64.9181 25.416 64.9181C25.416 64.9181 20.1526 66.24 19.7871 66.24C19.4215 66.24 11.1685 65.9081 11.1685 65.9081L10.6201 63.5715L12.1268 61.932Z" fill="#F2C6C3"/>
<path fill-rule="evenodd" clip-rule="evenodd" d="M18.6032 59.0904C18.6032 59.0904 19.589 59.5533 19.4544 60.2487C19.3198 60.9442 18.3311 62.2901 18.3311 62.2901C18.3311 62.2901 19.9255 60.9177 20.5058 60.6049C21.0861 60.292 22.6805 59.8853 22.6805 59.8853L20.1735 59.2276L18.6032 59.0904Z" fill="#F2C6C3"/>
</g>
<path fill-rule="evenodd" clip-rule="evenodd" d="M31.5452 41.2464C31.5452 41.2464 33.0878 43.5371 35.936 43.5371C38.7841 43.5371 40.3267 41.2464 40.3267 41.2464C40.3267 41.2464 47.3352 42.5563 49.465 45.2757C52.0583 48.811 54.4081 52.1759 55.3193 53.4894C55.5586 53.8344 55.5426 54.2925 55.2588 54.6018C54.8009 55.101 54.0188 55.8848 52.9876 56.6613C51.7945 57.5597 50.5495 58.2364 49.9072 58.5628C49.6311 58.7031 49.3058 58.6881 49.0527 58.5098C48.59 58.1837 47.809 57.5638 47.0849 56.6613C45.963 55.2631 45.5632 54.266 45.5632 54.266C45.5632 54.266 45.8824 58.5769 46.239 63.2052C46.6164 68.1035 46.6952 73.2708 46.6952 73.2708L24.2608 73.8C24.2608 73.8 24.1433 67.9173 24.2608 63.2052C24.381 58.3852 24.7362 54.0157 24.7362 54.0157C24.7362 54.0157 24.2184 55.3278 23.4564 56.6613C22.9672 57.5174 22.3221 58.3607 21.9229 58.8548C21.6999 59.1308 21.3382 59.2466 20.9975 59.1471C20.2525 58.9296 18.9163 58.4794 17.9768 57.8221C17.0902 57.2019 16.2823 56.2829 15.8234 55.7128C15.5768 55.4065 15.5682 54.9802 15.7803 54.649C16.3348 53.7834 17.4061 52.0901 17.9768 51.0515C18.2534 50.5481 18.8297 49.5171 19.4626 48.3884C21.095 45.4773 23.8315 43.3475 27.0517 42.4704L31.5452 41.2464Z" fill="#6CA3FF"/>
<mask id="mask2_56_793" style="mask-type:luminance" maskUnits="userSpaceOnUse" x="15" y="41" width="41" height="33">
<path fill-rule="evenodd" clip-rule="evenodd" d="M31.5452 41.2464C31.5452 41.2464 33.0878 43.5371 35.936 43.5371C38.7841 43.5371 40.3267 41.2464 40.3267 41.2464C40.3267 41.2464 47.3352 42.5563 49.465 45.2757C52.0583 48.811 54.4081 52.1759 55.3193 53.4894C55.5586 53.8344 55.5426 54.2925 55.2588 54.6018C54.8009 55.101 54.0188 55.8848 52.9876 56.6613C51.7945 57.5597 50.5495 58.2364 49.9072 58.5628C49.6311 58.7031 49.3058 58.6881 49.0527 58.5098C48.59 58.1837 47.809 57.5638 47.0849 56.6613C45.963 55.2631 45.5632 54.266 45.5632 54.266C45.5632 54.266 45.8824 58.5769 46.239 63.2052C46.6164 68.1035 46.6952 73.2708 46.6952 73.2708L24.2608 73.8C24.2608 73.8 24.1433 67.9173 24.2608 63.2052C24.381 58.3852 24.7362 54.0157 24.7362 54.0157C24.7362 54.0157 24.2184 55.3278 23.4564 56.6613C22.9672 57.5174 22.3221 58.3607 21.9229 58.8548C21.6999 59.1308 21.3382 59.2466 20.9975 59.1471C20.2525 58.9296 18.9163 58.4794 17.9768 57.8221C17.0902 57.2019 16.2823 56.2829 15.8234 55.7128C15.5768 55.4065 15.5682 54.9802 15.7803 54.649C16.3348 53.7834 17.4061 52.0901 17.9768 51.0515C18.2534 50.5481 18.8297 49.5171 19.4626 48.3884C21.095 45.4773 23.8315 43.3475 27.0517 42.4704L31.5452 41.2464Z" fill="white"/>
</mask>
<g mask="url(#mask2_56_793)">
<path fill-rule="evenodd" clip-rule="evenodd" d="M18.4395 58.106C18.4395 58.106 19.5297 58.4823 20.1338 58.3539C20.7379 58.2255 21.153 58.0944 21.8232 57.2568C22.0584 56.9629 22.5369 56.366 23.2013 55.3836C23.8394 54.44 25.6773 51.5569 25.6773 51.5569L24.5093 57.8766L24.7357 54.0157C24.7357 54.0157 23.0079 58.6631 23.0079 58.6631C23.0079 58.6631 21.5664 59.8188 21.5664 59.8188C21.5664 59.8188 19.1079 58.9116 19.1079 58.9116L18.4395 58.106Z" fill="#5D8DDD"/>
<path fill-rule="evenodd" clip-rule="evenodd" d="M53.3314 56.6404C53.3314 56.6404 53.895 57.1521 52.6663 57.1521C51.4377 57.1521 51.0171 58.3968 48.2324 55.6879C45.4477 52.9789 44.7281 51.84 44.2895 50.2651C43.8509 48.6902 44.8919 57.576 44.8919 60.6902C44.8919 63.8044 44.8919 72.5942 44.8919 72.5942C44.8919 72.5942 47.7286 73.2677 47.7286 73.2677C47.7286 73.2677 53.3314 56.6404 53.3314 56.6404Z" fill="#5D8DDD"/>
</g>
</g>
<defs>
<clipPath id="clip0_56_793">
<rect width="72" height="72" rx="8" fill="white"/>
</clipPath>
</defs>
</svg>
