<svg width="72" height="72" viewBox="0 0 72 72" fill="none" xmlns="http://www.w3.org/2000/svg">
<g clip-path="url(#clip0_56_776)">
<rect width="72" height="72" rx="8" fill="white" fill-opacity="0.78"/>
<rect width="72" height="72" rx="8" fill="white"/>
<g filter="url(#filter0_f_56_776)">
<path fill-rule="evenodd" clip-rule="evenodd" d="M76.6798 42.8108L-14.2676 30.4834L-14.2676 64.9431L76.6798 77.2834V42.8108Z" fill="#D9D9D9"/>
</g>
<g filter="url(#filter1_f_56_776)">
<path fill-rule="evenodd" clip-rule="evenodd" d="M48.0535 64.0961C48.0535 64.0961 46.4446 64.3453 45.6692 63.3131C44.8937 62.2809 44.8414 61.4179 44.9138 61.0772C44.9862 60.7364 45.1463 59.9835 46.2547 59.5637C47.3759 59.1391 49.4408 58.4196 51.9639 58.759C53.7091 58.9937 54.2463 59.3916 54.6767 59.6966C55.1071 60.0016 56.0291 60.8981 56.2324 61.2517C56.4356 61.6053 56.2724 62.373 55.5386 62.5735C54.8478 62.7622 48.0535 64.0961 48.0535 64.0961Z" fill="#EEF1F6"/>
</g>
<g filter="url(#filter2_f_56_776)">
<path fill-rule="evenodd" clip-rule="evenodd" d="M48.3919 63.6026C48.3919 63.6026 47.3387 63.8791 46.8842 63.8301C46.4319 63.7812 45.9267 63.6563 45.6688 63.3131C44.8934 62.2809 44.8411 61.4179 44.9135 61.0772C44.9859 60.7364 45.146 59.9835 46.2544 59.5637C47.3756 59.1391 49.4985 58.4766 51.9876 58.6055C53.6769 58.6929 54.2399 59.1548 54.7625 59.534C55.285 59.9132 55.7332 60.5268 56.1318 61.0773C56.5305 61.6278 55.9807 62.2191 55.4897 62.2525C55.1572 62.2752 53.4645 62.2464 51.8166 62.5445C50.3691 62.8062 48.3919 63.6026 48.3919 63.6026Z" fill="#BCBEC2"/>
</g>
<g filter="url(#filter3_f_56_776)">
<rect x="41.7607" y="41.1927" width="5.04" height="8.64" fill="#4A4B51"/>
</g>
<g filter="url(#filter4_f_56_776)">
<path fill-rule="evenodd" clip-rule="evenodd" d="M36.084 47.9417C36.6411 47.4739 37.3545 47.2342 38.0811 47.2709L51.5099 47.9475C52.3833 47.9915 52.7478 49.0853 52.0753 49.6444L49.8628 51.4841C49.309 51.9446 48.6029 52.1808 47.8835 52.1463L34.4341 51.5011C33.5617 51.4593 33.1939 50.3687 33.8628 49.8071L36.084 47.9417Z" fill="#3D3E43"/>
</g>
<g filter="url(#filter5_f_56_776)">
<path fill-rule="evenodd" clip-rule="evenodd" d="M22.6797 17.7463C22.6797 16.6466 23.6016 15.7716 24.6998 15.8289L64.0598 17.8839C65.0799 17.9372 65.8797 18.7798 65.8797 19.8013V42.5003C65.8797 43.6001 64.9576 44.4751 63.8593 44.4176L24.4993 42.3571C23.4793 42.3037 22.6797 41.4611 22.6797 40.4397V17.7463Z" fill="#3D3E43"/>
</g>
<g filter="url(#filter6_f_56_776)">
<path fill-rule="evenodd" clip-rule="evenodd" d="M24.1201 17.1634L64.4401 19.1934V39.7189L24.1201 37.6834V17.1634Z" fill="#91A7F8"/>
</g>
<g filter="url(#filter7_f_56_776)">
<path fill-rule="evenodd" clip-rule="evenodd" d="M22.6797 39.1234L65.8797 41.3789V42.5003C65.8797 43.6001 64.9576 44.4751 63.8593 44.4176L24.4993 42.357C23.4793 42.3036 22.6797 41.461 22.6797 40.4397L22.6797 39.1234Z" fill="#EEF1F6"/>
</g>
<g filter="url(#filter8_f_56_776)">
<ellipse cx="44.2984" cy="41.9127" rx="0.648" ry="0.72" fill="#BCBEC2"/>
</g>
<g filter="url(#filter9_f_56_776)">
<path fill-rule="evenodd" clip-rule="evenodd" d="M30.2393 20.3317L35.2794 20.5855V25.6257L30.2393 25.3719V20.3317Z" stroke="#CFD8FC" stroke-width="1.44" stroke-linejoin="round"/>
</g>
<g filter="url(#filter10_f_56_776)">
<path fill-rule="evenodd" clip-rule="evenodd" d="M30.2393 29.6917L35.2794 29.9455V34.9857L30.2393 34.7318V29.6917Z" stroke="#CFD8FC" stroke-width="1.44" stroke-linejoin="round"/>
</g>
<g filter="url(#filter11_f_56_776)">
<path d="M31.4619 22.2863L32.5242 24.1731L36.7422 21.2681" stroke="#CFD8FC" stroke-width="1.44" stroke-linecap="round" stroke-linejoin="round"/>
</g>
<g filter="url(#filter12_f_56_776)">
<path d="M31.4619 31.6463L32.5242 33.5331L36.7422 30.6281" stroke="#CFD8FC" stroke-width="1.44" stroke-linecap="round" stroke-linejoin="round"/>
</g>
<g filter="url(#filter13_f_56_776)">
<path d="M38.1641 20.7324L48.2398 21.2396" stroke="#CFD8FC" stroke-width="1.44" stroke-linecap="round" stroke-linejoin="round"/>
</g>
<g filter="url(#filter14_f_56_776)">
<path d="M59.4707 23.6037L60.1898 23.6398C60.2097 23.2427 59.904 22.9046 59.5069 22.8846L59.4707 23.6037ZM59.4346 24.3235L60.1537 24.3596L60.1537 24.3596L59.4346 24.3235ZM59.3984 25.0422L59.3622 25.7613C59.5529 25.7709 59.7397 25.7043 59.8813 25.5763C60.023 25.4482 60.1079 25.2691 60.1175 25.0784L59.3984 25.0422ZM50.3848 24.5881L49.6657 24.552C49.6457 24.9491 49.9514 25.2872 50.3485 25.3072L50.3848 24.5881ZM50.457 23.1506L50.4932 22.4315C50.096 22.4115 49.7579 22.7173 49.7379 23.1145L50.457 23.1506ZM48.3027 23.0412L49.0218 23.0773C49.0418 22.6802 48.736 22.3421 48.3389 22.3221L48.3027 23.0412ZM48.2666 23.761L48.9857 23.7971L48.9857 23.7971L48.2666 23.761ZM48.2305 24.4797L48.1942 25.1988C48.385 25.2084 48.5717 25.1418 48.7134 25.0138C48.855 24.8857 48.94 24.7066 48.9496 24.5159L48.2305 24.4797ZM38.1318 23.9709L37.4127 23.9348C37.3928 24.3319 37.6985 24.67 38.0956 24.69L38.1318 23.9709ZM38.2041 22.5334L38.2403 21.8143C38.0495 21.8047 37.8628 21.8713 37.7212 21.9994C37.5796 22.1275 37.4946 22.3066 37.485 22.4973L38.2041 22.5334ZM59.4707 23.6037L58.7516 23.5676L58.7155 24.2874L59.4346 24.3235L60.1537 24.3596L60.1898 23.6398L59.4707 23.6037ZM59.4346 24.3235L58.7155 24.2873L58.6793 25.0061L59.3984 25.0422L60.1175 25.0784L60.1537 24.3596L59.4346 24.3235ZM59.3984 25.0422L59.4347 24.3231L50.421 23.869L50.3848 24.5881L50.3485 25.3072L59.3622 25.7613L59.3984 25.0422ZM50.3848 24.5881L51.1039 24.6243L51.1761 23.1868L50.457 23.1506L49.7379 23.1145L49.6657 24.552L50.3848 24.5881ZM50.457 23.1506L50.4209 23.8697L59.4346 24.3228L59.4707 23.6037L59.5069 22.8846L50.4932 22.4315L50.457 23.1506ZM48.3027 23.0412L47.5836 23.0051L47.5475 23.7249L48.2666 23.761L48.9857 23.7971L49.0218 23.0773L48.3027 23.0412ZM48.2666 23.761L47.5475 23.7248L47.5114 24.4436L48.2305 24.4797L48.9496 24.5159L48.9857 23.7971L48.2666 23.761ZM48.2305 24.4797L48.2667 23.7606L38.1681 23.2518L38.1318 23.9709L38.0956 24.69L48.1942 25.1988L48.2305 24.4797ZM38.1318 23.9709L38.8509 24.0071L38.9232 22.5696L38.2041 22.5334L37.485 22.4973L37.4127 23.9348L38.1318 23.9709ZM38.2041 22.5334L38.1679 23.2525L48.2666 23.7603L48.3027 23.0412L48.3389 22.3221L38.2403 21.8143L38.2041 22.5334Z" fill="#CFD8FC"/>
</g>
<g filter="url(#filter15_f_56_776)">
<path d="M59.4531 26.1237L59.4893 25.4046L59.4893 25.4046L59.4531 26.1237ZM60.1357 26.8785L60.8548 26.9149L60.8548 26.9146L60.1357 26.8785ZM59.3809 27.5612L59.3447 28.2802L59.3448 28.2803L59.3809 27.5612ZM47.1387 26.9449L47.1025 27.664L47.1025 27.664L47.1387 26.9449ZM46.4561 26.1901L45.737 26.1539L45.737 26.1541L46.4561 26.1901ZM47.2109 25.5074L47.2471 24.7884L47.2471 24.7884L47.2109 25.5074ZM45.0332 25.3971L45.0695 24.678L45.0694 24.678L45.0332 25.3971ZM45.7168 26.153L46.4359 26.1896L46.4359 26.1891L45.7168 26.153ZM44.9609 26.8356L44.9247 27.5547L44.9249 27.5547L44.9609 26.8356ZM38.127 26.4908L38.1632 25.7718L38.1632 25.7718L38.127 26.4908ZM37.4443 25.736L36.7253 25.6996L36.7252 25.6998L37.4443 25.736ZM38.1992 25.0533L38.2354 24.3343L38.2354 24.3343L38.1992 25.0533ZM59.4531 26.1237L59.4169 26.8427L59.4166 26.8425L60.1357 26.8785L60.8548 26.9146C60.8946 26.1205 60.2836 25.4446 59.4893 25.4046L59.4531 26.1237ZM60.1357 26.8785L59.4167 26.8422L59.417 26.8421L59.3809 27.5612L59.3448 28.2803C60.1391 28.3201 60.8147 27.7088 60.8548 26.9149L60.1357 26.8785ZM59.3809 27.5612L59.4171 26.8421L47.1749 26.2259L47.1387 26.9449L47.1025 27.664L59.3447 28.2802L59.3809 27.5612ZM47.1387 26.9449L47.1749 26.2259L47.1752 26.2261L46.4561 26.1901L45.737 26.1541C45.6972 26.948 46.3082 27.624 47.1025 27.664L47.1387 26.9449ZM46.4561 26.1901L47.1751 26.2263L47.1748 26.2265L47.2109 25.5074L47.2471 24.7884C46.4528 24.7484 45.7769 25.3597 45.737 26.1539L46.4561 26.1901ZM47.2109 25.5074L47.1747 26.2265L59.4169 26.8427L59.4531 26.1237L59.4893 25.4046L47.2471 24.7884L47.2109 25.5074ZM45.0332 25.3971L44.9969 26.1162C44.998 26.1162 44.9975 26.1163 44.9966 26.1159C44.9963 26.1157 44.9967 26.1159 44.9974 26.1166C44.9981 26.1174 44.9982 26.1178 44.998 26.1173C44.9977 26.1164 44.9978 26.1158 44.9977 26.1168L45.7168 26.153L46.4359 26.1891C46.4758 25.3946 45.8633 24.7181 45.0695 24.678L45.0332 25.3971ZM45.7168 26.153L44.9977 26.1163L44.997 26.1165L44.9609 26.8356L44.9249 27.5547C45.7181 27.5944 46.3954 26.9841 46.4359 26.1896L45.7168 26.153ZM44.9609 26.8356L44.9972 26.1165L38.1632 25.7718L38.127 26.4908L38.0907 27.2099L44.9247 27.5547L44.9609 26.8356ZM38.127 26.4908L38.1632 25.7718L38.1634 25.7722L37.4443 25.736L36.7252 25.6998C36.6853 26.4942 37.2966 27.17 38.0907 27.2099L38.127 26.4908ZM37.4443 25.736L38.1634 25.7723L38.1631 25.7724L38.1992 25.0533L38.2354 24.3343C37.441 24.2943 36.7654 24.9058 36.7253 25.6996L37.4443 25.736ZM38.1992 25.0533L38.163 25.7724L44.997 26.1162L45.0332 25.3971L45.0694 24.678L38.2354 24.3343L38.1992 25.0533Z" fill="#CFD8FC"/>
</g>
<g filter="url(#filter16_f_56_776)">
<path d="M38.1602 30.0922L50.415 30.7092" stroke="#CFD8FC" stroke-width="1.44" stroke-linecap="round"/>
</g>
<g filter="url(#filter17_f_56_776)">
<path d="M59.4561 32.9633L59.4925 32.2442L59.4922 32.2442L59.4561 32.9633ZM60.1387 33.7182L60.8578 33.7544L60.8578 33.7539L60.1387 33.7182ZM59.3838 34.4018L59.3475 35.1209L59.3479 35.1209L59.3838 34.4018ZM45.3369 33.6938L45.3732 32.9747L45.3731 32.9747L45.3369 33.6938ZM44.6543 32.9389L43.9352 32.9025L43.9352 32.9028L44.6543 32.9389ZM45.4092 32.2563L45.4454 31.5372L45.4453 31.5372L45.4092 32.2563ZM43.251 32.1479L43.2872 31.4288L43.2872 31.4288L43.251 32.1479ZM43.9336 32.9028L44.6527 32.9392L44.6527 32.9387L43.9336 32.9028ZM43.1787 33.5864L43.1425 34.3055L43.1427 34.3055L43.1787 33.5864ZM38.1387 33.3325L38.1749 32.6134L38.1749 32.6134L38.1387 33.3325ZM37.4561 32.5766L36.737 32.5401L36.737 32.5406L37.4561 32.5766ZM38.2109 31.894L38.2472 31.1749L38.2471 31.1749L38.2109 31.894ZM59.4561 32.9633L59.4197 33.6824L59.4196 33.6825L60.1387 33.7182L60.8578 33.7539C60.8972 32.9604 60.2865 32.2844 59.4925 32.2442L59.4561 32.9633ZM60.1387 33.7182L59.4196 33.682L59.4196 33.6827L59.3838 34.4018L59.3479 35.1209C60.1429 35.1605 60.8178 34.5474 60.8578 33.7544L60.1387 33.7182ZM59.3838 34.4018L59.42 33.6827L45.3732 32.9747L45.3369 33.6938L45.3007 34.4129L59.3475 35.1209L59.3838 34.4018ZM45.3369 33.6938L45.3731 32.9747L45.3734 32.9751L44.6543 32.9389L43.9352 32.9028C43.8953 33.6971 44.5065 34.3729 45.3007 34.4129L45.3369 33.6938ZM44.6543 32.9389L45.3734 32.9753L45.373 32.9754L45.4092 32.2563L45.4453 31.5372C44.6509 31.4973 43.9754 32.1088 43.9352 32.9025L44.6543 32.9389ZM45.4092 32.2563L45.373 32.9754L59.4199 33.6824L59.4561 32.9633L59.4922 32.2442L45.4454 31.5372L45.4092 32.2563ZM43.251 32.1479L43.2147 32.867L43.2145 32.8668L43.9336 32.9028L44.6527 32.9387C44.6924 32.1449 44.0815 31.4688 43.2872 31.4288L43.251 32.1479ZM43.9336 32.9028L43.2145 32.8664L43.2147 32.8673L43.1787 33.5864L43.1427 34.3055C43.9381 34.3453 44.6126 33.7317 44.6527 32.9392L43.9336 32.9028ZM43.1787 33.5864L43.2149 32.8673L38.1749 32.6134L38.1387 33.3325L38.1024 34.0515L43.1425 34.3055L43.1787 33.5864ZM38.1387 33.3325L38.1749 32.6134L38.1752 32.6126L37.4561 32.5766L36.737 32.5406C36.6972 33.3334 37.307 34.0115 38.1025 34.0515L38.1387 33.3325ZM37.4561 32.5766L38.1751 32.6131L38.1748 32.6131L38.2109 31.894L38.2471 31.1749C37.4526 31.135 36.7773 31.7466 36.737 32.5401L37.4561 32.5766ZM38.2109 31.894L38.1747 32.6131L43.2148 32.867L43.251 32.1479L43.2872 31.4288L38.2472 31.1749L38.2109 31.894Z" fill="#CFD8FC"/>
</g>
<g filter="url(#filter18_f_56_776)">
<path d="M59.4736 35.4849L59.5104 34.7659L59.5099 34.7658L59.4736 35.4849ZM60.1562 36.2398L60.8753 36.2765L60.8754 36.2758L60.1562 36.2398ZM59.4004 36.9234L59.3642 37.6425L59.3643 37.6425L59.4004 36.9234ZM52.54 36.5777L52.5763 35.8586L52.5762 35.8586L52.54 36.5777ZM51.8574 35.8218L51.1384 35.7852L51.1383 35.7861L51.8574 35.8218ZM52.6123 35.1392L52.6485 34.4201L52.6484 34.4201L52.6123 35.1392ZM50.4531 35.0298L50.4893 34.3108L50.4893 34.3108L50.4531 35.0298ZM51.1367 35.7857L51.8558 35.8223L51.8558 35.8217L51.1367 35.7857ZM50.3809 36.4683L50.3446 37.1874L50.3447 37.1874L50.3809 36.4683ZM38.1514 35.8521L38.1151 36.5712L38.1151 36.5712L38.1514 35.8521ZM37.4688 35.0972L36.7497 35.0609L36.7497 35.0611L37.4688 35.0972ZM38.2236 34.4146L38.2598 33.6955L38.2597 33.6955L38.2236 34.4146ZM59.4736 35.4849L59.4369 36.204L59.4371 36.2038L60.1562 36.2398L60.8754 36.2758C60.9151 35.4815 60.3034 34.8064 59.5104 34.7659L59.4736 35.4849ZM60.1562 36.2398L59.4372 36.2032C59.4371 36.2043 59.4371 36.2038 59.4374 36.2031C59.4375 36.2028 59.4374 36.2033 59.4365 36.204C59.4357 36.2047 59.4353 36.2048 59.4358 36.2046C59.4368 36.2043 59.4375 36.2044 59.4365 36.2043L59.4004 36.9234L59.3643 37.6425C60.1589 37.6824 60.8349 37.0695 60.8753 36.2765L60.1562 36.2398ZM59.4004 36.9234L59.4366 36.2043L52.5763 35.8586L52.54 36.5777L52.5038 37.2968L59.3642 37.6425L59.4004 36.9234ZM52.54 36.5777L52.5762 35.8586C52.5753 35.8586 52.5761 35.8585 52.5772 35.8591C52.5778 35.8594 52.5776 35.8594 52.577 35.8588C52.5764 35.8581 52.5763 35.8577 52.5764 35.8579C52.5766 35.8587 52.5765 35.859 52.5765 35.8576L51.8574 35.8218L51.1383 35.7861C51.0989 36.5783 51.7082 37.2567 52.5038 37.2968L52.54 36.5777ZM51.8574 35.8218L52.5765 35.8584L52.5762 35.8583L52.6123 35.1392L52.6484 34.4201C51.8539 34.3802 51.1787 34.992 51.1384 35.7852L51.8574 35.8218ZM52.6123 35.1392L52.5761 35.8583L59.4374 36.204L59.4736 35.4849L59.5099 34.7658L52.6485 34.4201L52.6123 35.1392ZM50.4531 35.0298L50.4169 35.7489C50.418 35.749 50.4175 35.749 50.4166 35.7486C50.4162 35.7484 50.4166 35.7486 50.4173 35.7493C50.418 35.7501 50.418 35.7505 50.4179 35.7501C50.4176 35.7492 50.4177 35.7486 50.4176 35.7497L51.1367 35.7857L51.8558 35.8217C51.8956 35.0276 51.2835 34.3507 50.4893 34.3108L50.4531 35.0298ZM51.1367 35.7857L50.4176 35.7491L50.4171 35.7492L50.3809 36.4683L50.3447 37.1874C51.1381 37.2274 51.8154 36.6168 51.8558 35.8223L51.1367 35.7857ZM50.3809 36.4683L50.4171 35.7492L38.1876 35.133L38.1514 35.8521L38.1151 36.5712L50.3446 37.1874L50.3809 36.4683ZM38.1514 35.8521L38.1876 35.133L38.1878 35.1334L37.4688 35.0972L36.7497 35.0611C36.7097 35.8554 37.3211 36.5312 38.1151 36.5712L38.1514 35.8521ZM37.4688 35.0972L38.1878 35.1336L38.1875 35.1337L38.2236 34.4146L38.2597 33.6955C37.4654 33.6556 36.7898 34.267 36.7497 35.0609L37.4688 35.0972ZM38.2236 34.4146L38.1875 35.1337L50.4169 35.7489L50.4531 35.0298L50.4893 34.3108L38.2598 33.6955L38.2236 34.4146Z" fill="#CFD8FC"/>
</g>
<g filter="url(#filter19_f_56_776)">
<path fill-rule="evenodd" clip-rule="evenodd" d="M21.8984 53.0877C22.4554 52.6199 23.1689 52.3802 23.8954 52.4168L52.8659 53.8766C53.7394 53.9206 54.1038 55.0144 53.4314 55.5735L46.6838 61.184C46.1301 61.6445 45.4239 61.8807 44.7045 61.8462L15.7134 60.4554C14.841 60.4136 14.4732 59.3231 15.1421 58.7614L21.8984 53.0877Z" fill="#3D3E43"/>
</g>
<g filter="url(#filter20_f_56_776)">
<path fill-rule="evenodd" clip-rule="evenodd" d="M23.7707 54.1432C23.8634 54.0654 23.982 54.0255 24.1028 54.0314L25.4448 54.0966C25.6628 54.1072 25.7546 54.3797 25.5875 54.52L24.7015 55.2643C24.6089 55.3421 24.4903 55.382 24.3695 55.3762L23.0275 55.311C22.8095 55.3004 22.7177 55.0279 22.8848 54.8875L23.7707 54.1432Z" fill="#5F6169"/>
</g>
<g filter="url(#filter21_f_56_776)">
<path fill-rule="evenodd" clip-rule="evenodd" d="M21.6683 55.9115C21.7615 55.8333 21.8808 55.7933 22.0023 55.7997L25.4491 55.9808C25.6666 55.9922 25.7577 56.2642 25.5909 56.4042L24.7031 57.15C24.61 57.2283 24.4906 57.2682 24.3692 57.2618L20.9223 57.0807C20.7048 57.0693 20.6137 56.7974 20.7805 56.6573L21.6683 55.9115Z" fill="#5F6169"/>
</g>
<g filter="url(#filter22_f_56_776)">
<path fill-rule="evenodd" clip-rule="evenodd" d="M19.4514 57.7648C19.544 57.687 19.6626 57.647 19.7834 57.6529L21.1254 57.7181C21.3434 57.7287 21.4353 58.0012 21.2682 58.1416L20.3822 58.8858C20.2896 58.9636 20.171 59.0036 20.0502 58.9977L18.7082 58.9325C18.4902 58.9219 18.3983 58.6494 18.5654 58.509L19.4514 57.7648Z" fill="#5F6169"/>
</g>
<g filter="url(#filter23_f_56_776)">
<path fill-rule="evenodd" clip-rule="evenodd" d="M42.1282 55.0691C42.2208 54.9913 42.3394 54.9513 42.4602 54.9572L43.8022 55.0224C44.0202 55.033 44.112 55.3055 43.9449 55.4459L43.059 56.1901C42.9663 56.2679 42.8477 56.3078 42.7269 56.302L41.3849 56.2368C41.1669 56.2262 41.0751 55.9537 41.2422 55.8133L42.1282 55.0691Z" fill="#5F6169"/>
</g>
<g filter="url(#filter24_f_56_776)">
<path fill-rule="evenodd" clip-rule="evenodd" d="M42.1282 56.9555C42.2208 56.8777 42.3394 56.8378 42.4602 56.8436L43.8022 56.9089C44.0202 56.9194 44.112 57.1919 43.9449 57.3323L43.059 58.0766C42.9663 58.1544 42.8477 58.1943 42.7269 58.1885L41.3849 58.1232C41.1669 58.1126 41.0751 57.8401 41.2422 57.6998L42.1282 56.9555Z" fill="#5F6169"/>
</g>
<g filter="url(#filter25_f_56_776)">
<path fill-rule="evenodd" clip-rule="evenodd" d="M29.8469 54.4481C29.9395 54.3703 30.0581 54.3303 30.1789 54.3362L31.5209 54.4014C31.739 54.412 31.8308 54.6845 31.6637 54.8249L30.7777 55.5691C30.6851 55.6469 30.5665 55.6869 30.4457 55.681L29.1037 55.6158C28.8857 55.6052 28.7938 55.3327 28.961 55.1923L29.8469 54.4481Z" fill="#5F6169"/>
</g>
<g filter="url(#filter26_f_56_776)">
<path fill-rule="evenodd" clip-rule="evenodd" d="M29.8469 56.3346C29.9395 56.2568 30.0581 56.2168 30.1789 56.2227L31.5209 56.2879C31.739 56.2985 31.8308 56.571 31.6637 56.7114L30.7777 57.4556C30.6851 57.5334 30.5665 57.5734 30.4457 57.5675L29.1037 57.5023C28.8857 57.4917 28.7938 57.2192 28.961 57.0788L29.8469 56.3346Z" fill="#5F6169"/>
</g>
<g filter="url(#filter27_f_56_776)">
<path fill-rule="evenodd" clip-rule="evenodd" d="M25.5286 58.0696C25.6212 57.9918 25.7398 57.9519 25.8606 57.9577L27.2026 58.023C27.4206 58.0335 27.5124 58.3061 27.3453 58.4464L26.4593 59.1907C26.3667 59.2685 26.2481 59.3084 26.1273 59.3026L24.7853 59.2373C24.5673 59.2267 24.4755 58.9542 24.6426 58.8139L25.5286 58.0696Z" fill="#5F6169"/>
</g>
<g filter="url(#filter28_f_56_776)">
<path fill-rule="evenodd" clip-rule="evenodd" d="M43.885 58.9955C43.9776 58.9176 44.0962 58.8777 44.217 58.8836L45.559 58.9488C45.777 58.9594 45.8689 59.2319 45.7017 59.3723L44.8158 60.1165C44.7232 60.1943 44.6046 60.2342 44.4838 60.2284L43.1418 60.1632C42.9238 60.1526 42.8319 59.8801 42.999 59.7397L43.885 58.9955Z" fill="#5F6169"/>
</g>
<g filter="url(#filter29_f_56_776)">
<path fill-rule="evenodd" clip-rule="evenodd" d="M26.8039 54.2946C26.8966 54.2168 27.0152 54.1769 27.136 54.1827L28.478 54.248C28.696 54.2586 28.7878 54.5311 28.6207 54.6714L27.7347 55.4157C27.6421 55.4935 27.5235 55.5334 27.4027 55.5276L26.0607 55.4623C25.8427 55.4518 25.7509 55.1792 25.918 55.0389L26.8039 54.2946Z" fill="#5F6169"/>
</g>
<g filter="url(#filter30_f_56_776)">
<path fill-rule="evenodd" clip-rule="evenodd" d="M26.8039 56.1811C26.8966 56.1033 27.0152 56.0633 27.136 56.0692L28.478 56.1344C28.696 56.145 28.7878 56.4175 28.6207 56.5579L27.7347 57.3021C27.6421 57.3799 27.5235 57.4199 27.4027 57.414L26.0607 57.3488C25.8427 57.3382 25.7509 57.0657 25.918 56.9253L26.8039 56.1811Z" fill="#5F6169"/>
</g>
<g filter="url(#filter31_f_56_776)">
<path fill-rule="evenodd" clip-rule="evenodd" d="M22.4856 57.9162C22.5782 57.8384 22.6968 57.7984 22.8176 57.8043L24.1596 57.8695C24.3776 57.8801 24.4695 58.1526 24.3023 58.293L23.4164 59.0372C23.3238 59.115 23.2052 59.155 23.0843 59.1491L21.7423 59.0839C21.5243 59.0733 21.4325 58.8008 21.5996 58.6604L22.4856 57.9162Z" fill="#5F6169"/>
</g>
<g filter="url(#filter32_f_56_776)">
<path fill-rule="evenodd" clip-rule="evenodd" d="M45.1623 55.2205C45.255 55.1427 45.3736 55.1027 45.4944 55.1086L46.8364 55.1738C47.0544 55.1844 47.1462 55.4569 46.9791 55.5973L46.0931 56.3415C46.0005 56.4193 45.8819 56.4592 45.7611 56.4534L44.4191 56.3882C44.2011 56.3776 44.1093 56.1051 44.2764 55.9647L45.1623 55.2205Z" fill="#5F6169"/>
</g>
<g filter="url(#filter33_f_56_776)">
<path fill-rule="evenodd" clip-rule="evenodd" d="M31.6911 58.4176C31.7834 58.34 31.9017 58.3001 32.0222 58.3057L42.5144 58.7963C42.7326 58.8065 42.8248 59.0793 42.6575 59.2198L41.7724 59.9633C41.68 60.0409 41.5618 60.0809 41.4413 60.0753L30.9491 59.5846C30.7309 59.5744 30.6387 59.3016 30.806 59.1611L31.6911 58.4176Z" fill="#5F6169"/>
</g>
<g filter="url(#filter34_f_56_776)">
<path fill-rule="evenodd" clip-rule="evenodd" d="M32.8811 54.5995C32.9737 54.5217 33.0923 54.4817 33.2131 54.4876L34.5551 54.5528C34.7731 54.5634 34.865 54.8359 34.6978 54.9763L33.8119 55.7205C33.7193 55.7983 33.6007 55.8383 33.4799 55.8324L32.1379 55.7672C31.9198 55.7566 31.828 55.4841 31.9951 55.3437L32.8811 54.5995Z" fill="#5F6169"/>
</g>
<g filter="url(#filter35_f_56_776)">
<path fill-rule="evenodd" clip-rule="evenodd" d="M32.8811 56.486C32.9737 56.4082 33.0923 56.3682 33.2131 56.3741L34.5551 56.4393C34.7731 56.4499 34.865 56.7224 34.6978 56.8628L33.8119 57.607C33.7193 57.6848 33.6007 57.7247 33.4799 57.7189L32.1379 57.6537C31.9198 57.6431 31.828 57.3706 31.9951 57.2302L32.8811 56.486Z" fill="#5F6169"/>
</g>
<g filter="url(#filter36_f_56_776)">
<path fill-rule="evenodd" clip-rule="evenodd" d="M28.5618 58.221C28.6544 58.1432 28.773 58.1032 28.8938 58.1091L30.2358 58.1743C30.4538 58.1849 30.5456 58.4574 30.3785 58.5978L29.4925 59.342C29.3999 59.4198 29.2813 59.4598 29.1605 59.4539L27.8185 59.3887C27.6005 59.3781 27.5087 59.1056 27.6758 58.9652L28.5618 58.221Z" fill="#5F6169"/>
</g>
<g filter="url(#filter37_f_56_776)">
<path fill-rule="evenodd" clip-rule="evenodd" d="M36.011 54.7599C36.1036 54.6821 36.2222 54.6421 36.343 54.648L37.685 54.7132C37.903 54.7238 37.9948 54.9963 37.8277 55.1367L36.9418 55.8809C36.8491 55.9587 36.7306 55.9986 36.6097 55.9928L35.2677 55.9276C35.0497 55.917 34.9579 55.6445 35.125 55.5041L36.011 54.7599Z" fill="#5F6169"/>
</g>
<g filter="url(#filter38_f_56_776)">
<path fill-rule="evenodd" clip-rule="evenodd" d="M36.011 56.6463C36.1036 56.5685 36.2222 56.5286 36.343 56.5344L37.685 56.5996C37.903 56.6102 37.9948 56.8827 37.8277 57.0231L36.9418 57.7673C36.8491 57.8452 36.7306 57.8851 36.6097 57.8792L35.2677 57.814C35.0497 57.8034 34.9579 57.5309 35.125 57.3905L36.011 56.6463Z" fill="#5F6169"/>
</g>
<g filter="url(#filter39_f_56_776)">
<path fill-rule="evenodd" clip-rule="evenodd" d="M39.0442 54.9112C39.1368 54.8334 39.2554 54.7935 39.3762 54.7993L40.7182 54.8645C40.9362 54.8751 41.0281 55.1476 40.8609 55.288L39.975 56.0322C39.8823 56.11 39.7638 56.15 39.6429 56.1441L38.3009 56.0789C38.0829 56.0683 37.9911 55.7958 38.1582 55.6554L39.0442 54.9112Z" fill="#5F6169"/>
</g>
<g filter="url(#filter40_f_56_776)">
<path fill-rule="evenodd" clip-rule="evenodd" d="M39.0442 56.7977C39.1368 56.7199 39.2554 56.6799 39.3762 56.6858L40.7182 56.751C40.9362 56.7616 41.0281 57.0341 40.8609 57.1745L39.975 57.9187C39.8823 57.9965 39.7638 58.0365 39.6429 58.0306L38.3009 57.9654C38.0829 57.9548 37.9911 57.6823 38.1582 57.5419L39.0442 56.7977Z" fill="#5F6169"/>
</g>
<g filter="url(#filter41_f_56_776)">
<path fill-rule="evenodd" clip-rule="evenodd" d="M48.5378 55.262C48.4166 55.2561 48.2976 55.2964 48.2049 55.3747L46.3886 56.9085C46.296 56.9866 46.1773 57.0269 46.0563 57.0212L45.494 56.9947C45.3734 56.989 45.2551 57.029 45.1627 57.1066L44.2756 57.8517C44.1086 57.992 44.2002 58.2644 44.4181 58.2752L46.7339 58.3903C46.8561 58.3963 46.9761 58.3555 47.0692 58.276L50.0301 55.7498C50.1954 55.6088 50.1031 55.3381 49.886 55.3275L48.5378 55.262Z" fill="#5F6169"/>
</g>
<g filter="url(#filter42_f_56_776)">
<path fill-rule="evenodd" clip-rule="evenodd" d="M20.9578 56.4707C20.9578 56.4707 25.026 60.7831 25.9681 61.5032C26.9102 62.2234 27.1914 62.7574 29.2222 62.4904C31.2529 62.2234 42.0839 59.9262 43.2598 59.5155C44.4356 59.1048 44.8112 59.0245 44.8112 59.0245C44.8112 59.0245 46.5287 56.5354 49.3338 57.0738C52.1389 57.6122 55.5757 59.3538 56.3218 59.8072C57.068 60.2606 56.8533 61.9181 55.9371 61.9181C55.021 61.9181 51.9503 61.5032 50.8311 61.5032C49.7119 61.5032 48.4439 61.5933 47.4334 62.4904C46.4228 63.3875 45.3529 63.1917 44.8112 63.2052C44.2694 63.2187 30.0578 69.1083 27.3233 69.6915C24.5889 70.2746 24.202 69.7504 22.7876 68.9475C21.3731 68.1446 15.8359 62.911 14.7162 61.5032C13.5965 60.0954 20.9578 56.4707 20.9578 56.4707Z" fill="#F9DAD9"/>
</g>
<g filter="url(#filter43_f_56_776)">
<path d="M20.9582 56.4707C20.9655 56.4785 21.3751 56.9102 21.9601 57.5215C21.5678 58.2662 20.7766 59.5696 19.799 60.7129C18.3952 62.3546 18.611 62.6199 18.9787 63.2051C20.4207 65.5002 21.9213 66.2323 23.0568 67.1328C24.1923 68.0333 25.6294 68.7274 28.8215 67.7412C30.5661 67.2022 40.1114 64.2995 41.2677 63.4844C43.0837 62.203 45.1995 62.4764 45.9972 62.3545C46.7949 62.2326 47.3518 61.5691 47.7834 61.2744C49.2353 60.2834 49.4832 60.2822 50.9904 60.2822C52.4974 60.2823 54.7296 61.0856 55.4113 61.3877C55.7512 61.5384 56.0058 61.7261 56.175 61.877C56.1021 61.9034 56.023 61.9179 55.9377 61.918C55.0216 61.918 51.9504 61.5029 50.8312 61.5029C49.7121 61.5029 48.4443 61.5933 47.4338 62.4902C46.4234 63.3871 45.3536 63.1917 44.8117 63.2051C44.2699 63.2186 30.0579 69.1082 27.3234 69.6914C24.589 70.2745 24.2017 69.7501 22.7873 68.9473C21.3721 68.1435 15.8356 62.9106 14.716 61.5029C14.5749 61.3253 14.5692 61.1124 14.6662 60.876C15.0776 60.4264 15.5772 59.9031 16.0881 59.377C17.9669 57.9443 20.9582 56.4707 20.9582 56.4707Z" fill="#F2C7C2"/>
</g>
<g filter="url(#filter44_f_56_776)">
<path fill-rule="evenodd" clip-rule="evenodd" d="M-11.4416 49.7362C-11.4416 49.7362 -7.37346 54.0486 -6.43133 54.7687C-5.48919 55.4889 -5.20801 56.0229 -3.17725 55.7559C-1.1465 55.4889 9.68453 53.1917 10.8604 52.781C12.0362 52.3703 12.4117 52.29 12.4117 52.29C12.4117 52.29 14.1293 49.8009 16.9344 50.3393C19.7395 50.8777 23.1763 52.6193 23.9224 53.0727C24.6686 53.5261 24.4539 55.1836 23.5377 55.1836C22.6216 55.1836 19.5509 54.7687 18.4317 54.7687C17.3125 54.7687 16.0445 54.8588 15.034 55.7559C14.0234 56.653 12.9535 56.4572 12.4117 56.4707C11.87 56.4842 -2.34161 62.3738 -5.07608 62.957C-7.81056 63.5401 -8.1974 63.0159 -9.61185 62.213C-11.0263 61.4101 -16.5635 56.1765 -17.6832 54.7687C-18.8029 53.3609 -11.4416 49.7362 -11.4416 49.7362Z" fill="#F9DAD9"/>
</g>
<g filter="url(#filter45_f_56_776)">
<path d="M-11.4412 49.7362C-11.4311 49.7469 -11.0223 50.1778 -10.4392 50.787C-10.8316 51.5318 -11.6236 52.835 -12.6013 53.9784C-14.0049 55.6198 -13.7892 55.8856 -13.4217 56.4706C-11.9796 58.7658 -10.4781 59.4978 -9.34256 60.3983C-8.20706 61.2988 -6.77003 61.9929 -3.57791 61.0067C-1.83313 60.4677 7.7126 57.5648 8.86838 56.7499C10.6843 55.4685 12.8001 55.7419 13.5979 55.62C14.3955 55.498 14.9524 54.8345 15.384 54.5399C16.8357 53.549 17.0833 53.5477 18.5901 53.5477C20.0972 53.5477 22.3304 54.3511 23.0119 54.6532C23.3519 54.8039 23.6065 54.9916 23.7756 55.1425C23.7026 55.169 23.6228 55.1835 23.5373 55.1835C22.6207 55.1833 19.551 54.7685 18.4319 54.7684C17.3128 54.7684 16.0449 54.8589 15.0344 55.7557C14.0238 56.6529 12.9531 56.4571 12.4114 56.4706C11.8629 56.487 -2.34188 62.3737 -5.07595 62.9569C-7.81043 63.5401 -8.19764 63.0157 -9.61209 62.2128C-11.027 61.4093 -16.5638 56.1761 -17.6834 54.7684C-17.8245 54.5908 -17.8302 54.378 -17.7332 54.1415C-17.3214 53.6915 -16.8217 53.1671 -16.3103 52.6405C-14.4313 51.2082 -11.4412 49.7362 -11.4412 49.7362Z" fill="#F2C7C2"/>
</g>
<mask id="mask0_56_776" style="mask-type:luminance" maskUnits="userSpaceOnUse" x="-18" y="49" width="42" height="15">
<path d="M-11.4412 49.7362C-11.4311 49.7469 -11.0223 50.1778 -10.4392 50.787C-10.8316 51.5318 -11.6236 52.835 -12.6013 53.9784C-14.0049 55.6198 -13.7892 55.8856 -13.4217 56.4706C-11.9796 58.7658 -10.4781 59.4978 -9.34256 60.3983C-8.20706 61.2988 -6.77003 61.9929 -3.57791 61.0067C-1.83313 60.4677 7.7126 57.5648 8.86838 56.7499C10.6843 55.4685 12.8001 55.7419 13.5979 55.62C14.3955 55.498 14.9524 54.8345 15.384 54.5399C16.8357 53.549 17.0833 53.5477 18.5901 53.5477C20.0972 53.5477 22.3304 54.3511 23.0119 54.6532C23.3519 54.8039 23.6065 54.9916 23.7756 55.1425C23.7026 55.169 23.6228 55.1835 23.5373 55.1835C22.6207 55.1833 19.551 54.7685 18.4319 54.7684C17.3128 54.7684 16.0449 54.8589 15.0344 55.7557C14.0238 56.6529 12.9531 56.4571 12.4114 56.4706C11.8629 56.487 -2.34188 62.3737 -5.07595 62.9569C-7.81043 63.5401 -8.19764 63.0157 -9.61209 62.2128C-11.027 61.4093 -16.5638 56.1761 -17.6834 54.7684C-17.8245 54.5908 -17.8302 54.378 -17.7332 54.1415C-17.3214 53.6915 -16.8217 53.1671 -16.3103 52.6405C-14.4313 51.2082 -11.4412 49.7362 -11.4412 49.7362Z" fill="white"/>
</mask>
<g mask="url(#mask0_56_776)">
</g>
<g filter="url(#filter46_f_56_776)">
<path fill-rule="evenodd" clip-rule="evenodd" d="M17.979 26.723C17.979 26.723 19.8915 30.8479 20.5123 32.2321C21.1331 33.6164 21.431 33.8803 20.6417 34.3044C19.8524 34.7284 19.2668 34.4995 19.2668 35.2907C19.2668 36.082 19.477 37.5279 18.9695 38.4306C18.4619 39.3334 17.8561 40.8587 14.7834 40.524C14.7834 40.524 14.1914 44.4712 14.5684 46.245C14.9453 48.0188 14.7834 47.9168 14.7834 47.9168L9.01814 46.4367L7.56458 43.7364C7.56458 43.7364 8.86962 40.7971 8.39384 38.2719C7.91806 35.7467 6.20898 31.8403 6.20898 31.8403L7.91806 25.8267L13.4791 23.4581L17.979 26.723Z" fill="#FFD9D8"/>
</g>
<mask id="mask1_56_776" style="mask-type:luminance" maskUnits="userSpaceOnUse" x="6" y="23" width="16" height="25">
<path fill-rule="evenodd" clip-rule="evenodd" d="M17.979 26.723C17.979 26.723 19.8915 30.8479 20.5123 32.2321C21.1331 33.6164 21.431 33.8803 20.6417 34.3044C19.8524 34.7284 19.2668 34.4995 19.2668 35.2907C19.2668 36.082 19.477 37.5279 18.9695 38.4306C18.4619 39.3334 17.8561 40.8587 14.7834 40.524C14.7834 40.524 14.1914 44.4712 14.5684 46.245C14.9453 48.0188 14.7834 47.9168 14.7834 47.9168L9.01814 46.4367L7.56458 43.7364C7.56458 43.7364 8.86962 40.7971 8.39384 38.2719C7.91806 35.7467 6.20898 31.8403 6.20898 31.8403L7.91806 25.8267L13.4791 23.4581L17.979 26.723Z" fill="white"/>
</mask>
<g mask="url(#mask1_56_776)">
<g filter="url(#filter47_f_56_776)">
<path fill-rule="evenodd" clip-rule="evenodd" d="M14.7836 40.524C14.7836 40.524 12.43 39.7025 10.6943 38.268C10.6943 38.268 11.6648 39.4808 12.2078 39.8996C12.7933 40.3511 14.0371 41.2731 14.6397 41.5311C14.6901 41.1275 14.7836 40.524 14.7836 40.524Z" fill="#F2C7C2"/>
</g>
</g>
<g filter="url(#filter48_f_56_776)">
<path d="M9.99902 29.949L10.5381 32.4236C10.5122 32.3976 9.08637 30.9714 8.3252 31.5623C7.55722 32.1591 7.46832 33.1873 7.66992 33.7654C7.87031 34.3397 8.84761 34.946 8.86035 34.9539C8.86338 34.9544 9.51465 35.0721 9.51465 35.8142C9.51452 36.8462 9.09277 38.2683 9.09277 38.2683C9.09457 38.285 9.17327 39.0093 9.33789 39.8992C9.50449 40.7997 9.09277 42.9373 9.09277 42.9373H7.86426C8.21723 41.8906 8.71844 39.9867 8.39551 38.2722C7.92185 35.7583 6.22605 31.8751 6.21094 31.8406L6.54492 30.6619L8.10156 29.74L9.99902 29.949Z" fill="#F2C7C2"/>
</g>
<mask id="mask2_56_776" style="mask-type:luminance" maskUnits="userSpaceOnUse" x="6" y="29" width="5" height="14">
<path d="M9.99902 29.949L10.5381 32.4236C10.5122 32.3976 9.08637 30.9714 8.3252 31.5623C7.55722 32.1591 7.46832 33.1873 7.66992 33.7654C7.87031 34.3397 8.84761 34.946 8.86035 34.9539C8.86338 34.9544 9.51465 35.0721 9.51465 35.8142C9.51452 36.8462 9.09277 38.2683 9.09277 38.2683C9.09457 38.285 9.17327 39.0093 9.33789 39.8992C9.50449 40.7997 9.09277 42.9373 9.09277 42.9373H7.86426C8.21723 41.8906 8.71844 39.9867 8.39551 38.2722C7.92185 35.7583 6.22605 31.8751 6.21094 31.8406L6.54492 30.6619L8.10156 29.74L9.99902 29.949Z" fill="white"/>
</mask>
<g mask="url(#mask2_56_776)">
</g>
<g filter="url(#filter49_f_56_776)">
<path fill-rule="evenodd" clip-rule="evenodd" d="M7.23261 24.8614C7.23261 24.8614 4.06302 24.7308 3.05597 27.1417C1.68482 30.4242 4.22606 35.8773 7.0043 37.8779C9.78255 39.8785 9.34834 35.8303 9.18343 35.4916C9.01851 35.1529 7.23261 34.9777 7.23261 32.9173C7.23261 31.1963 8.33538 30.2231 9.18343 30.4242C9.76451 30.562 9.76451 31.3612 10.4087 32.2484C11.0528 33.1356 11.6236 33.7925 11.4963 33.1616C11.369 32.5308 10.8056 31.3162 10.8056 30.0394C10.8056 28.7626 10.5104 26.1665 13.5966 26.5451C15.823 26.8182 16.2528 27.5703 17.8948 27.9712C19.5368 28.372 20.9317 27.6334 20.9579 26.5451C20.9841 25.4568 19.6088 23.4581 17.8948 21.9926C16.1808 20.5271 13.3766 19.1879 11.2183 19.8613C7.12911 21.1372 7.23261 24.8614 7.23261 24.8614Z" fill="#3C3D42"/>
</g>
<g filter="url(#filter50_f_56_776)">
<path fill-rule="evenodd" clip-rule="evenodd" d="M-5.79004 71.0453C-5.79004 70.03 -3.64543 53.4657 2.87187 46.0403C6.73339 41.6408 7.37419 41.253 9.3675 42.597C10.8076 43.5679 12.5783 44.5493 14.286 45.4416C15.9937 46.3338 16.1888 47.8917 17.3357 49.7998C18.4826 51.708 21.4428 55.3405 21.9917 56.224C22.0662 57.2528 17.8456 61.2933 15.1363 62.4811C15.1363 62.4811 13.237 70.68 13.4172 75.7684L-4.44339 74.3873C-4.44339 74.3873 -5.79004 72.0606 -5.79004 71.0453Z" fill="#6CA3FF"/>
</g>
<g filter="url(#filter51_f_56_776)">
<path fill-rule="evenodd" clip-rule="evenodd" d="M15.1357 62.4811C15.1357 62.4811 10.5115 59.1472 8.36035 55.0097C8.36035 55.0097 9.45703 58.6439 13.0884 62.8238C13.0884 65.0041 12.739 69.3872 12.1545 72.5508C11.57 75.7144 11.4244 77.6422 11.4244 77.6422L14.3401 76.9882L15.1357 62.4811Z" fill="#5D8DDD"/>
</g>
</g>
<defs>
<filter id="filter0_f_56_776" x="-19.7041" y="25.0468" width="101.82" height="57.6731" filterUnits="userSpaceOnUse" color-interpolation-filters="sRGB">
<feFlood flood-opacity="0" result="BackgroundImageFix"/>
<feBlend mode="normal" in="SourceGraphic" in2="BackgroundImageFix" result="shape"/>
<feGaussianBlur stdDeviation="2.71828" result="effect1_foregroundBlur_56_776"/>
</filter>
<filter id="filter1_f_56_776" x="39.4531" y="53.2342" width="22.297" height="16.3249" filterUnits="userSpaceOnUse" color-interpolation-filters="sRGB">
<feFlood flood-opacity="0" result="BackgroundImageFix"/>
<feBlend mode="normal" in="SourceGraphic" in2="BackgroundImageFix" result="shape"/>
<feGaussianBlur stdDeviation="2.71828" result="effect1_foregroundBlur_56_776"/>
</filter>
<filter id="filter2_f_56_776" x="39.4531" y="53.1525" width="22.252" height="16.1199" filterUnits="userSpaceOnUse" color-interpolation-filters="sRGB">
<feFlood flood-opacity="0" result="BackgroundImageFix"/>
<feBlend mode="normal" in="SourceGraphic" in2="BackgroundImageFix" result="shape"/>
<feGaussianBlur stdDeviation="2.71828" result="effect1_foregroundBlur_56_776"/>
</filter>
<filter id="filter3_f_56_776" x="36.3242" y="35.7561" width="15.9132" height="19.5131" filterUnits="userSpaceOnUse" color-interpolation-filters="sRGB">
<feFlood flood-opacity="0" result="BackgroundImageFix"/>
<feBlend mode="normal" in="SourceGraphic" in2="BackgroundImageFix" result="shape"/>
<feGaussianBlur stdDeviation="2.71828" result="effect1_foregroundBlur_56_776"/>
</filter>
<filter id="filter4_f_56_776" x="28.082" y="41.8306" width="29.7774" height="15.7555" filterUnits="userSpaceOnUse" color-interpolation-filters="sRGB">
<feFlood flood-opacity="0" result="BackgroundImageFix"/>
<feBlend mode="normal" in="SourceGraphic" in2="BackgroundImageFix" result="shape"/>
<feGaussianBlur stdDeviation="2.71828" result="effect1_foregroundBlur_56_776"/>
</filter>
<filter id="filter5_f_56_776" x="17.2431" y="10.3897" width="54.0733" height="39.4672" filterUnits="userSpaceOnUse" color-interpolation-filters="sRGB">
<feFlood flood-opacity="0" result="BackgroundImageFix"/>
<feBlend mode="normal" in="SourceGraphic" in2="BackgroundImageFix" result="shape"/>
<feGaussianBlur stdDeviation="2.71828" result="effect1_foregroundBlur_56_776"/>
</filter>
<filter id="filter6_f_56_776" x="18.6836" y="11.7269" width="51.1934" height="33.4286" filterUnits="userSpaceOnUse" color-interpolation-filters="sRGB">
<feFlood flood-opacity="0" result="BackgroundImageFix"/>
<feBlend mode="normal" in="SourceGraphic" in2="BackgroundImageFix" result="shape"/>
<feGaussianBlur stdDeviation="2.71828" result="effect1_foregroundBlur_56_776"/>
</filter>
<filter id="filter7_f_56_776" x="17.2431" y="33.6868" width="54.0733" height="16.17" filterUnits="userSpaceOnUse" color-interpolation-filters="sRGB">
<feFlood flood-opacity="0" result="BackgroundImageFix"/>
<feBlend mode="normal" in="SourceGraphic" in2="BackgroundImageFix" result="shape"/>
<feGaussianBlur stdDeviation="2.71828" result="effect1_foregroundBlur_56_776"/>
</filter>
<filter id="filter8_f_56_776" x="38.2138" y="35.7561" width="12.169" height="12.3131" filterUnits="userSpaceOnUse" color-interpolation-filters="sRGB">
<feFlood flood-opacity="0" result="BackgroundImageFix"/>
<feBlend mode="normal" in="SourceGraphic" in2="BackgroundImageFix" result="shape"/>
<feGaussianBlur stdDeviation="2.71828" result="effect1_foregroundBlur_56_776"/>
</filter>
<filter id="filter9_f_56_776" x="24.083" y="14.1751" width="17.3526" height="17.6071" filterUnits="userSpaceOnUse" color-interpolation-filters="sRGB">
<feFlood flood-opacity="0" result="BackgroundImageFix"/>
<feBlend mode="normal" in="SourceGraphic" in2="BackgroundImageFix" result="shape"/>
<feGaussianBlur stdDeviation="2.71828" result="effect1_foregroundBlur_56_776"/>
</filter>
<filter id="filter10_f_56_776" x="24.083" y="23.5351" width="17.3526" height="17.6071" filterUnits="userSpaceOnUse" color-interpolation-filters="sRGB">
<feFlood flood-opacity="0" result="BackgroundImageFix"/>
<feBlend mode="normal" in="SourceGraphic" in2="BackgroundImageFix" result="shape"/>
<feGaussianBlur stdDeviation="2.71828" result="effect1_foregroundBlur_56_776"/>
</filter>
<filter id="filter11_f_56_776" x="25.3056" y="15.1115" width="17.5929" height="15.2182" filterUnits="userSpaceOnUse" color-interpolation-filters="sRGB">
<feFlood flood-opacity="0" result="BackgroundImageFix"/>
<feBlend mode="normal" in="SourceGraphic" in2="BackgroundImageFix" result="shape"/>
<feGaussianBlur stdDeviation="2.71828" result="effect1_foregroundBlur_56_776"/>
</filter>
<filter id="filter12_f_56_776" x="25.3056" y="24.4715" width="17.5929" height="15.2182" filterUnits="userSpaceOnUse" color-interpolation-filters="sRGB">
<feFlood flood-opacity="0" result="BackgroundImageFix"/>
<feBlend mode="normal" in="SourceGraphic" in2="BackgroundImageFix" result="shape"/>
<feGaussianBlur stdDeviation="2.71828" result="effect1_foregroundBlur_56_776"/>
</filter>
<filter id="filter13_f_56_776" x="32.0078" y="14.5758" width="22.3888" height="12.8205" filterUnits="userSpaceOnUse" color-interpolation-filters="sRGB">
<feFlood flood-opacity="0" result="BackgroundImageFix"/>
<feBlend mode="normal" in="SourceGraphic" in2="BackgroundImageFix" result="shape"/>
<feGaussianBlur stdDeviation="2.71828" result="effect1_foregroundBlur_56_776"/>
</filter>
<filter id="filter14_f_56_776" x="31.9755" y="16.3769" width="33.6514" height="14.8219" filterUnits="userSpaceOnUse" color-interpolation-filters="sRGB">
<feFlood flood-opacity="0" result="BackgroundImageFix"/>
<feBlend mode="normal" in="SourceGraphic" in2="BackgroundImageFix" result="shape"/>
<feGaussianBlur stdDeviation="2.71828" result="effect1_foregroundBlur_56_776"/>
</filter>
<filter id="filter15_f_56_776" x="31.2871" y="18.8958" width="35.0059" height="14.8228" filterUnits="userSpaceOnUse" color-interpolation-filters="sRGB">
<feFlood flood-opacity="0" result="BackgroundImageFix"/>
<feBlend mode="normal" in="SourceGraphic" in2="BackgroundImageFix" result="shape"/>
<feGaussianBlur stdDeviation="2.71828" result="effect1_foregroundBlur_56_776"/>
</filter>
<filter id="filter16_f_56_776" x="32.0039" y="23.9356" width="24.5675" height="12.9302" filterUnits="userSpaceOnUse" color-interpolation-filters="sRGB">
<feFlood flood-opacity="0" result="BackgroundImageFix"/>
<feBlend mode="normal" in="SourceGraphic" in2="BackgroundImageFix" result="shape"/>
<feGaussianBlur stdDeviation="2.71828" result="effect1_foregroundBlur_56_776"/>
</filter>
<filter id="filter17_f_56_776" x="31.2988" y="25.7365" width="34.9972" height="14.8228" filterUnits="userSpaceOnUse" color-interpolation-filters="sRGB">
<feFlood flood-opacity="0" result="BackgroundImageFix"/>
<feBlend mode="normal" in="SourceGraphic" in2="BackgroundImageFix" result="shape"/>
<feGaussianBlur stdDeviation="2.71828" result="effect1_foregroundBlur_56_776"/>
</filter>
<filter id="filter18_f_56_776" x="31.3115" y="28.2571" width="35.002" height="14.8238" filterUnits="userSpaceOnUse" color-interpolation-filters="sRGB">
<feFlood flood-opacity="0" result="BackgroundImageFix"/>
<feBlend mode="normal" in="SourceGraphic" in2="BackgroundImageFix" result="shape"/>
<feGaussianBlur stdDeviation="2.71828" result="effect1_foregroundBlur_56_776"/>
</filter>
<filter id="filter19_f_56_776" x="9.36129" y="46.9766" width="49.8546" height="20.3095" filterUnits="userSpaceOnUse" color-interpolation-filters="sRGB">
<feFlood flood-opacity="0" result="BackgroundImageFix"/>
<feBlend mode="normal" in="SourceGraphic" in2="BackgroundImageFix" result="shape"/>
<feGaussianBlur stdDeviation="2.71828" result="effect1_foregroundBlur_56_776"/>
</filter>
<filter id="filter20_f_56_776" x="17.3623" y="48.5942" width="13.7481" height="12.2191" filterUnits="userSpaceOnUse" color-interpolation-filters="sRGB">
<feFlood flood-opacity="0" result="BackgroundImageFix"/>
<feBlend mode="normal" in="SourceGraphic" in2="BackgroundImageFix" result="shape"/>
<feGaussianBlur stdDeviation="2.71828" result="effect1_foregroundBlur_56_776"/>
</filter>
<filter id="filter21_f_56_776" x="15.2578" y="50.3625" width="15.8555" height="12.3366" filterUnits="userSpaceOnUse" color-interpolation-filters="sRGB">
<feFlood flood-opacity="0" result="BackgroundImageFix"/>
<feBlend mode="normal" in="SourceGraphic" in2="BackgroundImageFix" result="shape"/>
<feGaussianBlur stdDeviation="2.71828" result="effect1_foregroundBlur_56_776"/>
</filter>
<filter id="filter22_f_56_776" x="13.0429" y="52.2157" width="13.7481" height="12.2191" filterUnits="userSpaceOnUse" color-interpolation-filters="sRGB">
<feFlood flood-opacity="0" result="BackgroundImageFix"/>
<feBlend mode="normal" in="SourceGraphic" in2="BackgroundImageFix" result="shape"/>
<feGaussianBlur stdDeviation="2.71828" result="effect1_foregroundBlur_56_776"/>
</filter>
<filter id="filter23_f_56_776" x="35.7197" y="49.52" width="13.7481" height="12.2191" filterUnits="userSpaceOnUse" color-interpolation-filters="sRGB">
<feFlood flood-opacity="0" result="BackgroundImageFix"/>
<feBlend mode="normal" in="SourceGraphic" in2="BackgroundImageFix" result="shape"/>
<feGaussianBlur stdDeviation="2.71828" result="effect1_foregroundBlur_56_776"/>
</filter>
<filter id="filter24_f_56_776" x="35.7197" y="51.4065" width="13.7481" height="12.2191" filterUnits="userSpaceOnUse" color-interpolation-filters="sRGB">
<feFlood flood-opacity="0" result="BackgroundImageFix"/>
<feBlend mode="normal" in="SourceGraphic" in2="BackgroundImageFix" result="shape"/>
<feGaussianBlur stdDeviation="2.71828" result="effect1_foregroundBlur_56_776"/>
</filter>
<filter id="filter25_f_56_776" x="23.4384" y="48.8991" width="13.7481" height="12.2191" filterUnits="userSpaceOnUse" color-interpolation-filters="sRGB">
<feFlood flood-opacity="0" result="BackgroundImageFix"/>
<feBlend mode="normal" in="SourceGraphic" in2="BackgroundImageFix" result="shape"/>
<feGaussianBlur stdDeviation="2.71828" result="effect1_foregroundBlur_56_776"/>
</filter>
<filter id="filter26_f_56_776" x="23.4384" y="50.7855" width="13.7481" height="12.2191" filterUnits="userSpaceOnUse" color-interpolation-filters="sRGB">
<feFlood flood-opacity="0" result="BackgroundImageFix"/>
<feBlend mode="normal" in="SourceGraphic" in2="BackgroundImageFix" result="shape"/>
<feGaussianBlur stdDeviation="2.71828" result="effect1_foregroundBlur_56_776"/>
</filter>
<filter id="filter27_f_56_776" x="19.1201" y="52.5206" width="13.7481" height="12.2191" filterUnits="userSpaceOnUse" color-interpolation-filters="sRGB">
<feFlood flood-opacity="0" result="BackgroundImageFix"/>
<feBlend mode="normal" in="SourceGraphic" in2="BackgroundImageFix" result="shape"/>
<feGaussianBlur stdDeviation="2.71828" result="effect1_foregroundBlur_56_776"/>
</filter>
<filter id="filter28_f_56_776" x="37.4765" y="53.4464" width="13.7481" height="12.2191" filterUnits="userSpaceOnUse" color-interpolation-filters="sRGB">
<feFlood flood-opacity="0" result="BackgroundImageFix"/>
<feBlend mode="normal" in="SourceGraphic" in2="BackgroundImageFix" result="shape"/>
<feGaussianBlur stdDeviation="2.71828" result="effect1_foregroundBlur_56_776"/>
</filter>
<filter id="filter29_f_56_776" x="20.3955" y="48.7456" width="13.7481" height="12.2191" filterUnits="userSpaceOnUse" color-interpolation-filters="sRGB">
<feFlood flood-opacity="0" result="BackgroundImageFix"/>
<feBlend mode="normal" in="SourceGraphic" in2="BackgroundImageFix" result="shape"/>
<feGaussianBlur stdDeviation="2.71828" result="effect1_foregroundBlur_56_776"/>
</filter>
<filter id="filter30_f_56_776" x="20.3955" y="50.6321" width="13.7481" height="12.2191" filterUnits="userSpaceOnUse" color-interpolation-filters="sRGB">
<feFlood flood-opacity="0" result="BackgroundImageFix"/>
<feBlend mode="normal" in="SourceGraphic" in2="BackgroundImageFix" result="shape"/>
<feGaussianBlur stdDeviation="2.71828" result="effect1_foregroundBlur_56_776"/>
</filter>
<filter id="filter31_f_56_776" x="16.0771" y="52.3671" width="13.7481" height="12.2191" filterUnits="userSpaceOnUse" color-interpolation-filters="sRGB">
<feFlood flood-opacity="0" result="BackgroundImageFix"/>
<feBlend mode="normal" in="SourceGraphic" in2="BackgroundImageFix" result="shape"/>
<feGaussianBlur stdDeviation="2.71828" result="effect1_foregroundBlur_56_776"/>
</filter>
<filter id="filter32_f_56_776" x="38.7539" y="49.6714" width="13.7481" height="12.2191" filterUnits="userSpaceOnUse" color-interpolation-filters="sRGB">
<feFlood flood-opacity="0" result="BackgroundImageFix"/>
<feBlend mode="normal" in="SourceGraphic" in2="BackgroundImageFix" result="shape"/>
<feGaussianBlur stdDeviation="2.71828" result="effect1_foregroundBlur_56_776"/>
</filter>
<filter id="filter33_f_56_776" x="25.2832" y="52.8686" width="22.8966" height="12.6437" filterUnits="userSpaceOnUse" color-interpolation-filters="sRGB">
<feFlood flood-opacity="0" result="BackgroundImageFix"/>
<feBlend mode="normal" in="SourceGraphic" in2="BackgroundImageFix" result="shape"/>
<feGaussianBlur stdDeviation="2.71828" result="effect1_foregroundBlur_56_776"/>
</filter>
<filter id="filter34_f_56_776" x="26.4726" y="49.0505" width="13.7481" height="12.2191" filterUnits="userSpaceOnUse" color-interpolation-filters="sRGB">
<feFlood flood-opacity="0" result="BackgroundImageFix"/>
<feBlend mode="normal" in="SourceGraphic" in2="BackgroundImageFix" result="shape"/>
<feGaussianBlur stdDeviation="2.71828" result="effect1_foregroundBlur_56_776"/>
</filter>
<filter id="filter35_f_56_776" x="26.4726" y="50.9369" width="13.7481" height="12.2191" filterUnits="userSpaceOnUse" color-interpolation-filters="sRGB">
<feFlood flood-opacity="0" result="BackgroundImageFix"/>
<feBlend mode="normal" in="SourceGraphic" in2="BackgroundImageFix" result="shape"/>
<feGaussianBlur stdDeviation="2.71828" result="effect1_foregroundBlur_56_776"/>
</filter>
<filter id="filter36_f_56_776" x="22.1533" y="52.672" width="13.7481" height="12.2191" filterUnits="userSpaceOnUse" color-interpolation-filters="sRGB">
<feFlood flood-opacity="0" result="BackgroundImageFix"/>
<feBlend mode="normal" in="SourceGraphic" in2="BackgroundImageFix" result="shape"/>
<feGaussianBlur stdDeviation="2.71828" result="effect1_foregroundBlur_56_776"/>
</filter>
<filter id="filter37_f_56_776" x="29.6025" y="49.2108" width="13.7481" height="12.2191" filterUnits="userSpaceOnUse" color-interpolation-filters="sRGB">
<feFlood flood-opacity="0" result="BackgroundImageFix"/>
<feBlend mode="normal" in="SourceGraphic" in2="BackgroundImageFix" result="shape"/>
<feGaussianBlur stdDeviation="2.71828" result="effect1_foregroundBlur_56_776"/>
</filter>
<filter id="filter38_f_56_776" x="29.6025" y="51.0973" width="13.7481" height="12.2191" filterUnits="userSpaceOnUse" color-interpolation-filters="sRGB">
<feFlood flood-opacity="0" result="BackgroundImageFix"/>
<feBlend mode="normal" in="SourceGraphic" in2="BackgroundImageFix" result="shape"/>
<feGaussianBlur stdDeviation="2.71828" result="effect1_foregroundBlur_56_776"/>
</filter>
<filter id="filter39_f_56_776" x="32.6357" y="49.3622" width="13.7481" height="12.2191" filterUnits="userSpaceOnUse" color-interpolation-filters="sRGB">
<feFlood flood-opacity="0" result="BackgroundImageFix"/>
<feBlend mode="normal" in="SourceGraphic" in2="BackgroundImageFix" result="shape"/>
<feGaussianBlur stdDeviation="2.71828" result="effect1_foregroundBlur_56_776"/>
</filter>
<filter id="filter40_f_56_776" x="32.6357" y="51.2487" width="13.7481" height="12.2191" filterUnits="userSpaceOnUse" color-interpolation-filters="sRGB">
<feFlood flood-opacity="0" result="BackgroundImageFix"/>
<feBlend mode="normal" in="SourceGraphic" in2="BackgroundImageFix" result="shape"/>
<feGaussianBlur stdDeviation="2.71828" result="effect1_foregroundBlur_56_776"/>
</filter>
<filter id="filter41_f_56_776" x="38.7529" y="49.8249" width="16.7979" height="14.0025" filterUnits="userSpaceOnUse" color-interpolation-filters="sRGB">
<feFlood flood-opacity="0" result="BackgroundImageFix"/>
<feBlend mode="normal" in="SourceGraphic" in2="BackgroundImageFix" result="shape"/>
<feGaussianBlur stdDeviation="2.71828" result="effect1_foregroundBlur_56_776"/>
</filter>
<filter id="filter42_f_56_776" x="9.16402" y="51.0341" width="53.045" height="24.3422" filterUnits="userSpaceOnUse" color-interpolation-filters="sRGB">
<feFlood flood-opacity="0" result="BackgroundImageFix"/>
<feBlend mode="normal" in="SourceGraphic" in2="BackgroundImageFix" result="shape"/>
<feGaussianBlur stdDeviation="2.71828" result="effect1_foregroundBlur_56_776"/>
</filter>
<filter id="filter43_f_56_776" x="9.16402" y="51.0341" width="52.4473" height="24.3421" filterUnits="userSpaceOnUse" color-interpolation-filters="sRGB">
<feFlood flood-opacity="0" result="BackgroundImageFix"/>
<feBlend mode="normal" in="SourceGraphic" in2="BackgroundImageFix" result="shape"/>
<feGaussianBlur stdDeviation="2.71828" result="effect1_foregroundBlur_56_776"/>
</filter>
<filter id="filter44_f_56_776" x="-23.2354" y="44.2996" width="53.045" height="24.3422" filterUnits="userSpaceOnUse" color-interpolation-filters="sRGB">
<feFlood flood-opacity="0" result="BackgroundImageFix"/>
<feBlend mode="normal" in="SourceGraphic" in2="BackgroundImageFix" result="shape"/>
<feGaussianBlur stdDeviation="2.71828" result="effect1_foregroundBlur_56_776"/>
</filter>
<filter id="filter45_f_56_776" x="-23.2354" y="44.2996" width="52.4473" height="24.3421" filterUnits="userSpaceOnUse" color-interpolation-filters="sRGB">
<feFlood flood-opacity="0" result="BackgroundImageFix"/>
<feBlend mode="normal" in="SourceGraphic" in2="BackgroundImageFix" result="shape"/>
<feGaussianBlur stdDeviation="2.71828" result="effect1_foregroundBlur_56_776"/>
</filter>
<filter id="filter46_f_56_776" x="0.772421" y="18.0215" width="25.7813" height="35.3329" filterUnits="userSpaceOnUse" color-interpolation-filters="sRGB">
<feFlood flood-opacity="0" result="BackgroundImageFix"/>
<feBlend mode="normal" in="SourceGraphic" in2="BackgroundImageFix" result="shape"/>
<feGaussianBlur stdDeviation="2.71828" result="effect1_foregroundBlur_56_776"/>
</filter>
<filter id="filter47_f_56_776" x="5.25777" y="32.8314" width="14.962" height="14.1362" filterUnits="userSpaceOnUse" color-interpolation-filters="sRGB">
<feFlood flood-opacity="0" result="BackgroundImageFix"/>
<feBlend mode="normal" in="SourceGraphic" in2="BackgroundImageFix" result="shape"/>
<feGaussianBlur stdDeviation="2.71828" result="effect1_foregroundBlur_56_776"/>
</filter>
<filter id="filter48_f_56_776" x="0.774374" y="24.3034" width="15.2003" height="24.0704" filterUnits="userSpaceOnUse" color-interpolation-filters="sRGB">
<feFlood flood-opacity="0" result="BackgroundImageFix"/>
<feBlend mode="normal" in="SourceGraphic" in2="BackgroundImageFix" result="shape"/>
<feGaussianBlur stdDeviation="2.71828" result="effect1_foregroundBlur_56_776"/>
</filter>
<filter id="filter49_f_56_776" x="-2.76371" y="14.2457" width="29.1583" height="29.6215" filterUnits="userSpaceOnUse" color-interpolation-filters="sRGB">
<feFlood flood-opacity="0" result="BackgroundImageFix"/>
<feBlend mode="normal" in="SourceGraphic" in2="BackgroundImageFix" result="shape"/>
<feGaussianBlur stdDeviation="2.71828" result="effect1_foregroundBlur_56_776"/>
</filter>
<filter id="filter50_f_56_776" x="-11.2266" y="36.4769" width="38.6554" height="44.7281" filterUnits="userSpaceOnUse" color-interpolation-filters="sRGB">
<feFlood flood-opacity="0" result="BackgroundImageFix"/>
<feBlend mode="normal" in="SourceGraphic" in2="BackgroundImageFix" result="shape"/>
<feGaussianBlur stdDeviation="2.71828" result="effect1_foregroundBlur_56_776"/>
</filter>
<filter id="filter51_f_56_776" x="2.92379" y="49.5731" width="17.6485" height="33.5056" filterUnits="userSpaceOnUse" color-interpolation-filters="sRGB">
<feFlood flood-opacity="0" result="BackgroundImageFix"/>
<feBlend mode="normal" in="SourceGraphic" in2="BackgroundImageFix" result="shape"/>
<feGaussianBlur stdDeviation="2.71828" result="effect1_foregroundBlur_56_776"/>
</filter>
<clipPath id="clip0_56_776">
<rect width="72" height="72" rx="8" fill="white"/>
</clipPath>
</defs>
</svg>
