<svg width="148" height="148" viewBox="0 0 148 148" fill="none" xmlns="http://www.w3.org/2000/svg">
<g clip-path="url(#clip0_56_744)">
<rect width="148" height="148" rx="8" fill="white" fill-opacity="0.78"/>
<rect x="0.40625" width="148" height="148" rx="8" fill="#EEF0F5"/>
<mask id="mask0_56_744" style="mask-type:luminance" maskUnits="userSpaceOnUse" x="0" y="0" width="149" height="148">
<rect x="0.40625" width="148" height="148" rx="8" fill="white"/>
</mask>
<g mask="url(#mask0_56_744)">
<rect x="0.40625" width="148" height="148" fill="white"/>
<mask id="mask1_56_744" style="mask-type:luminance" maskUnits="userSpaceOnUse" x="0" y="0" width="149" height="148">
<rect x="0.40625" width="148" height="148" fill="white"/>
</mask>
<g mask="url(#mask1_56_744)">
<path fill-rule="evenodd" clip-rule="evenodd" d="M158.026 88L-28.9209 62.6604L-28.9209 133.494L158.026 158.86V88Z" fill="#D9D9D9"/>
<path fill-rule="evenodd" clip-rule="evenodd" d="M99.1822 131.753C99.1822 131.753 95.875 132.265 94.2811 130.144C92.6872 128.022 92.5796 126.248 92.7285 125.548C92.8773 124.847 93.2063 123.299 95.4848 122.437C97.7893 121.564 102.034 120.085 107.22 120.782C110.808 121.265 111.912 122.083 112.797 122.71C113.681 123.337 115.577 125.18 115.994 125.906C116.412 126.633 116.077 128.211 114.568 128.623C113.148 129.011 99.1822 131.753 99.1822 131.753Z" fill="#EEF1F6"/>
<path fill-rule="evenodd" clip-rule="evenodd" d="M99.8783 130.739C99.8783 130.739 97.7133 131.307 96.7792 131.206C95.8494 131.106 94.8109 130.849 94.2809 130.144C92.6869 128.022 92.5794 126.248 92.7282 125.548C92.8771 124.847 93.2061 123.299 95.4846 122.437C97.7891 121.564 102.153 120.202 107.27 120.467C110.742 120.647 111.899 121.596 112.973 122.376C114.048 123.155 114.969 124.416 115.788 125.548C116.608 126.679 115.477 127.895 114.468 127.964C113.785 128.01 110.305 127.951 106.918 128.564C103.943 129.102 99.8783 130.739 99.8783 130.739Z" fill="#BCBEC2"/>
<rect x="86.2461" y="84.6739" width="10.36" height="17.76" fill="#4A4B51"/>
<path fill-rule="evenodd" clip-rule="evenodd" d="M74.77 98.3852C75.7913 97.5276 77.0993 97.0882 78.4312 97.1553L106.832 98.5863C108.433 98.667 109.102 100.672 107.869 101.697L102.709 105.988C101.694 106.832 100.399 107.265 99.0804 107.202L70.6418 105.837C69.0423 105.761 68.368 103.761 69.5943 102.732L74.77 98.3852Z" fill="#3D3E43"/>
<path fill-rule="evenodd" clip-rule="evenodd" d="M47.0273 36.0289C47.0273 34.0128 48.7175 32.4086 50.7309 32.5137L132.491 36.7825C134.361 36.8801 135.827 38.425 135.827 40.2977V87.8113C135.827 89.8276 134.137 91.4319 132.123 91.3264L50.3633 87.0461C48.4933 86.9482 47.0273 85.4034 47.0273 83.5309V36.0289Z" fill="#3D3E43"/>
<mask id="mask2_56_744" style="mask-type:luminance" maskUnits="userSpaceOnUse" x="47" y="32" width="89" height="60">
<path fill-rule="evenodd" clip-rule="evenodd" d="M47.0273 36.0289C47.0273 34.0128 48.7175 32.4086 50.7309 32.5137L132.491 36.7825C134.361 36.8801 135.827 38.425 135.827 40.2977V87.8113C135.827 89.8276 134.137 91.4319 132.123 91.3264L50.3633 87.0461C48.4933 86.9482 47.0273 85.4034 47.0273 83.5309V36.0289Z" fill="white"/>
</mask>
<g mask="url(#mask2_56_744)">
<path fill-rule="evenodd" clip-rule="evenodd" d="M49.9854 35.2803L132.865 39.453V81.6444L49.9854 77.4603V35.2803Z" fill="#91A7F8"/>
<path fill-rule="evenodd" clip-rule="evenodd" d="M49.9854 35.2803L132.865 39.453V81.6444L49.9854 77.4603V35.2803Z" fill="#91A7F8"/>
<path fill-rule="evenodd" clip-rule="evenodd" d="M47.0273 80.4203L135.827 85.0567V135.911C135.827 137.928 134.137 139.532 132.123 139.426L50.3633 135.146C48.4933 135.048 47.0273 133.503 47.0273 131.631V80.4203Z" fill="#EEF1F6"/>
</g>
<ellipse cx="91.4629" cy="86.1539" rx="1.332" ry="1.48" fill="#BCBEC2"/>
<path fill-rule="evenodd" clip-rule="evenodd" d="M62.5664 41.7929L72.9268 42.3147V52.675L62.5664 52.1533V41.7929Z" stroke="#CFD8FC" stroke-width="2" stroke-linejoin="round"/>
<path fill-rule="evenodd" clip-rule="evenodd" d="M62.5664 61.0329L72.9268 61.5546V71.915L62.5664 71.3933V61.0329Z" stroke="#CFD8FC" stroke-width="2" stroke-linejoin="round"/>
<path d="M65.0811 45.8107L67.2647 49.6892L75.935 43.7178" stroke="#CFD8FC" stroke-width="2" stroke-linecap="round" stroke-linejoin="round"/>
<path d="M65.0811 65.0508L67.2647 68.9293L75.935 62.9578" stroke="#CFD8FC" stroke-width="2" stroke-linecap="round" stroke-linejoin="round"/>
<path d="M78.8555 42.6165L99.5666 43.6593" stroke="#CFD8FC" stroke-width="2.64" stroke-linecap="round" stroke-linejoin="round"/>
<path d="M122.604 49.4987L123.922 49.5657C123.94 49.216 123.818 48.8735 123.583 48.6137C123.348 48.3538 123.02 48.1979 122.67 48.1803L122.604 49.4987ZM122.578 49.9977L121.26 49.9306L121.26 49.9333L122.578 49.9977ZM122.554 50.4977L122.487 51.816C122.837 51.8337 123.18 51.7114 123.44 51.4762C123.699 51.241 123.855 50.9121 123.872 50.5621L122.554 50.4977ZM104.025 49.5641L102.707 49.497C102.689 49.8468 102.811 50.1893 103.046 50.4491C103.281 50.7089 103.609 50.8648 103.959 50.8824L104.025 49.5641ZM104.076 48.5661L104.143 47.2477C103.415 47.2111 102.795 47.7712 102.758 48.499L104.076 48.5661ZM99.6465 48.3424L100.965 48.4069C101 47.6795 100.44 47.0607 99.7128 47.0241L99.6465 48.3424ZM99.6221 48.8414L100.94 48.9084L100.94 48.9059L99.6221 48.8414ZM99.5967 49.3414L99.5303 50.6598C100.258 50.6964 100.878 50.1363 100.915 49.4084L99.5967 49.3414ZM78.8379 48.2955L77.5196 48.2285C77.5018 48.5782 77.6237 48.9207 77.8585 49.1805C78.0933 49.4404 78.4217 49.5963 78.7715 49.6139L78.8379 48.2955ZM78.8887 47.2975L78.955 45.9792C78.2272 45.9425 77.6074 46.5026 77.5704 47.2304L78.8887 47.2975ZM122.604 49.4987L121.285 49.4316L121.26 49.9306L122.578 49.9977L123.896 50.0648L123.922 49.5657L122.604 49.4987ZM122.578 49.9977L121.26 49.9333L121.235 50.4333L122.554 50.4977L123.872 50.5621L123.897 50.0621L122.578 49.9977ZM122.554 50.4977L122.62 49.1794L104.092 48.2458L104.025 49.5641L103.959 50.8824L122.487 51.816L122.554 50.4977ZM104.025 49.5641L105.344 49.6312L105.394 48.6331L104.076 48.5661L102.758 48.499L102.707 49.497L104.025 49.5641ZM104.076 48.5661L104.01 49.8844L122.537 50.817L122.604 49.4987L122.67 48.1803L104.143 47.2477L104.076 48.5661ZM99.6465 48.3424L98.3281 48.2779L98.3036 48.7769L99.6221 48.8414L100.94 48.9059L100.965 48.4069L99.6465 48.3424ZM99.6221 48.8414L98.3038 48.7745L98.2784 49.2745L99.5967 49.3414L100.915 49.4084L100.94 48.9084L99.6221 48.8414ZM99.5967 49.3414L99.6631 48.0231L78.9043 46.9772L78.8379 48.2955L78.7715 49.6139L99.5303 50.6598L99.5967 49.3414ZM78.8379 48.2955L80.1562 48.3626L80.207 47.3646L78.8887 47.2975L77.5704 47.2304L77.5196 48.2285L78.8379 48.2955ZM78.8887 47.2975L78.8223 48.6158L99.5801 49.6608L99.6465 48.3424L99.7128 47.0241L78.955 45.9792L78.8887 47.2975Z" fill="#CFD8FC"/>
<path d="M122.566 54.6768L122.633 53.3585L122.633 53.3585L122.566 54.6768ZM123.041 55.2012L124.359 55.2678L124.359 55.2673L123.041 55.2012ZM122.517 55.6758L122.45 56.9941L122.451 56.9942L122.517 55.6758ZM97.3516 54.4082L97.2845 55.7265L97.2852 55.7266L97.3516 54.4082ZM96.8779 53.8838L95.5596 53.8168L95.5596 53.8177L96.8779 53.8838ZM97.4023 53.4102L97.336 54.7285L97.336 54.7285L97.4023 53.4102ZM92.9248 53.1846L92.8584 54.5029L92.8584 54.5029L92.9248 53.1846ZM93.3994 53.709L94.7177 53.776L94.7177 53.7753L93.3994 53.709ZM92.875 54.1826L92.8087 55.501L92.8089 55.501L92.875 54.1826ZM78.8262 53.4756L78.7585 54.7939L78.7598 54.7939L78.8262 53.4756ZM78.3525 52.9512L77.0342 52.8847L77.0342 52.8848L78.3525 52.9512ZM78.877 52.4766L78.9434 51.1583L78.9426 51.1582L78.877 52.4766ZM122.566 54.6768L122.5 55.9951C122.049 55.9724 121.7 55.5887 121.723 55.1351L123.041 55.2012L124.359 55.2673C124.41 54.2622 123.635 53.4089 122.633 53.3585L122.566 54.6768ZM123.041 55.2012L121.723 55.1346C121.746 54.6832 122.129 54.335 122.582 54.3574L122.517 55.6758L122.451 56.9942C123.455 57.0439 124.309 56.2704 124.359 55.2678L123.041 55.2012ZM122.517 55.6758L122.583 54.3575L97.418 53.0899L97.3516 54.4082L97.2852 55.7266L122.45 56.9941L122.517 55.6758ZM97.3516 54.4082L97.4186 53.0899C97.8719 53.113 98.2189 53.4991 98.1963 53.9499L96.8779 53.8838L95.5596 53.8177C95.5093 54.8199 96.2799 55.6754 97.2845 55.7265L97.3516 54.4082ZM96.8779 53.8838L98.1962 53.9509C98.1732 54.4039 97.7872 54.7512 97.336 54.7285L97.4023 53.4102L97.4687 52.0919C96.4661 52.0414 95.6107 52.8124 95.5596 53.8168L96.8779 53.8838ZM97.4023 53.4102L97.336 54.7285L122.5 55.9951L122.566 54.6768L122.633 53.3585L97.4687 52.0919L97.4023 53.4102ZM92.9248 53.1846L92.8584 54.5029C92.4077 54.4802 92.0583 54.0966 92.0811 53.6427L93.3994 53.709L94.7177 53.7753C94.7683 52.7699 93.9934 51.9167 92.9912 51.8663L92.9248 53.1846ZM93.3994 53.709L92.0811 53.642C92.1042 53.1885 92.4904 52.8417 92.9411 52.8643L92.875 54.1826L92.8089 55.501C93.8109 55.5512 94.6667 54.7808 94.7177 53.776L93.3994 53.709ZM92.875 54.1826L92.9413 52.8643L78.8925 52.1573L78.8262 53.4756L78.7598 54.7939L92.8087 55.501L92.875 54.1826ZM78.8262 53.4756L78.8939 52.1574C79.3459 52.1806 79.6936 52.5656 79.6709 53.0176L78.3525 52.9512L77.0342 52.8848C76.9837 53.888 77.7554 54.7424 78.7585 54.7939L78.8262 53.4756ZM78.3525 52.9512L79.6709 53.0177C79.6481 53.4689 79.2643 53.8175 78.8113 53.795L78.877 52.4766L78.9426 51.1582C77.9383 51.1082 77.0848 51.8822 77.0342 52.8847L78.3525 52.9512ZM78.877 52.4766L78.8105 53.7949L92.8584 54.5029L92.9248 53.1846L92.9912 51.8663L78.9434 51.1583L78.877 52.4766Z" fill="#CFD8FC"/>
<path d="M78.8477 61.8562L104.038 63.1244" stroke="#CFD8FC" stroke-width="2.64" stroke-linecap="round"/>
<path d="M122.571 68.7367L122.639 67.4184L122.638 67.4184L122.571 68.7367ZM123.046 69.2611L124.364 69.3276L124.364 69.3267L123.046 69.2611ZM122.521 69.7357L122.455 71.054L122.457 71.0541L122.521 69.7357ZM93.6475 68.2816L93.5804 69.5999L93.5811 69.5999L93.6475 68.2816ZM93.1738 67.7572L91.8555 67.6901L91.8555 67.6909L93.1738 67.7572ZM93.6982 67.2836L93.6319 68.6019L93.6319 68.6019L93.6982 67.2836ZM89.2637 67.0599L89.1972 68.3783L89.1973 68.3783L89.2637 67.0599ZM89.7383 67.5844L91.0566 67.6515L91.0567 67.6497L89.7383 67.5844ZM89.2139 68.058L89.1475 69.3763L89.148 69.3763L89.2139 68.058ZM78.8535 67.5365L78.7863 68.8548L78.7872 68.8548L78.8535 67.5365ZM78.3799 67.0121L77.0616 66.9445L77.0616 66.9457L78.3799 67.0121ZM78.9043 66.5375L78.9708 65.2192L78.9705 65.2191L78.9043 66.5375ZM122.571 68.7367L122.504 70.055C122.054 70.032 121.705 69.6494 121.728 69.1955L123.046 69.2611L124.364 69.3267C124.414 68.3218 123.64 67.4695 122.639 67.4184L122.571 68.7367ZM123.046 69.2611L121.728 69.1946C121.75 68.7426 122.135 68.3951 122.586 68.4173L122.521 69.7357L122.457 71.0541C123.459 71.1035 124.314 70.3308 124.364 69.3276L123.046 69.2611ZM122.521 69.7357L122.588 68.4174L93.7139 66.9633L93.6475 68.2816L93.5811 69.5999L122.455 71.054L122.521 69.7357ZM93.6475 68.2816L93.7145 66.9633C94.1677 66.9864 94.5148 67.3724 94.4922 67.8235L93.1738 67.7572L91.8555 67.6909C91.8051 68.6934 92.576 69.5488 93.5804 69.5999L93.6475 68.2816ZM93.1738 67.7572L94.4921 67.8243C94.4691 68.2773 94.0831 68.6246 93.6319 68.6019L93.6982 67.2836L93.7646 65.9652C92.762 65.9148 91.9066 66.6858 91.8555 67.6901L93.1738 67.7572ZM93.6982 67.2836L93.6319 68.6019L122.505 70.055L122.571 68.7367L122.638 67.4184L93.7646 65.9652L93.6982 67.2836ZM89.2637 67.0599L89.1973 68.3783C88.7456 68.3555 88.3975 67.9714 88.4199 67.519L89.7383 67.5844L91.0567 67.6497C91.1064 66.6461 90.3331 65.7921 89.33 65.7416L89.2637 67.0599ZM89.7383 67.5844L88.42 67.5172C88.4431 67.0637 88.8292 66.7171 89.2797 66.7396L89.2139 68.058L89.148 69.3763C90.1498 69.4264 91.0054 68.6561 91.0566 67.6515L89.7383 67.5844ZM89.2139 68.058L89.2802 66.7397L78.9199 66.2182L78.8535 67.5365L78.7872 68.8548L89.1475 69.3763L89.2139 68.058ZM78.8535 67.5365L78.9208 66.2182C79.3735 66.2413 79.7209 66.627 79.6982 67.0785L78.3799 67.0121L77.0616 66.9457C77.0111 67.9485 77.7823 68.8036 78.7863 68.8548L78.8535 67.5365ZM78.3799 67.0121L79.6981 67.0797C79.6751 67.5285 79.2932 67.8787 78.8381 67.8558L78.9043 66.5375L78.9705 65.2191C77.9642 65.1686 77.1129 65.9446 77.0616 66.9445L78.3799 67.0121ZM78.9043 66.5375L78.8378 67.8558L89.1972 68.3783L89.2637 67.0599L89.3302 65.7416L78.9708 65.2192L78.9043 66.5375Z" fill="#CFD8FC"/>
<path d="M122.608 73.919L122.675 72.6007L122.675 72.6007L122.608 73.919ZM123.083 74.4434L124.401 74.5108L124.401 74.5094L123.083 74.4434ZM122.558 74.918L122.624 73.5997L122.624 73.5997L122.558 74.918ZM108.455 74.2081L108.388 75.5264L108.389 75.5264L108.455 74.2081ZM107.981 73.6837L106.663 73.6173L106.663 73.6192L107.981 73.6837ZM108.506 73.2091L108.572 71.8907L108.572 71.8907L108.506 73.2091ZM104.068 72.9854L104.135 71.6671L104.135 71.6671L104.068 72.9854ZM104.543 73.5098L105.861 73.5767L105.861 73.5758L104.543 73.5098ZM104.019 73.9835L103.952 75.3018L103.953 75.3018L104.019 73.9835ZM78.8789 72.7178L78.8118 74.0361L78.8125 74.0362L78.8789 72.7178ZM78.4053 72.1934L77.087 72.1259L77.0869 72.1271L78.4053 72.1934ZM78.9297 71.7198L78.8633 73.0381H78.8633L78.9297 71.7198ZM122.608 73.919L122.542 75.2373C122.091 75.2146 121.742 74.831 121.765 74.3775L123.083 74.4434L124.401 74.5094C124.452 73.5045 123.677 72.6513 122.675 72.6007L122.608 73.919ZM123.083 74.4434L121.765 74.3761C121.788 73.9239 122.172 73.577 122.624 73.5997L122.558 74.918L122.491 76.2364C123.494 76.2869 124.35 75.5142 124.401 74.5108L123.083 74.4434ZM122.558 74.918L122.624 73.5997L108.521 72.8898L108.455 74.2081L108.389 75.5264L122.491 76.2364L122.558 74.918ZM108.455 74.2081L108.523 72.8898C108.977 72.9131 109.322 73.2994 109.3 73.7481L107.981 73.6837L106.663 73.6192C106.614 74.6186 107.383 75.4749 108.388 75.5264L108.455 74.2081ZM107.981 73.6837L109.3 73.75C109.277 74.2013 108.893 74.55 108.44 74.5274L108.506 73.2091L108.572 71.8907C107.567 71.8406 106.714 72.6146 106.663 73.6173L107.981 73.6837ZM108.506 73.2091L108.439 74.5274L122.542 75.2374L122.608 73.919L122.675 72.6007L108.572 71.8907L108.506 73.2091ZM104.068 72.9854L104.002 74.3037C103.551 74.2809 103.202 73.8975 103.225 73.4439L104.543 73.5098L105.861 73.5758C105.912 72.5708 105.137 71.7178 104.135 71.6671L104.068 72.9854ZM104.543 73.5098L103.225 73.4429C103.248 72.9887 103.634 72.6428 104.084 72.6651L104.019 73.9835L103.953 75.3018C104.954 75.3516 105.81 74.5821 105.861 73.5767L104.543 73.5098ZM104.019 73.9835L104.085 72.6651L78.9453 71.3995L78.8789 72.7178L78.8125 74.0362L103.952 75.3018L104.019 73.9835ZM78.8789 72.7178L78.946 71.3996C79.399 71.4226 79.7463 71.8086 79.7236 72.2598L78.4053 72.1934L77.0869 72.1271C77.0365 73.1297 77.8075 73.9851 78.8118 74.0361L78.8789 72.7178ZM78.4053 72.1934L79.7235 72.2609C79.7004 72.7132 79.3151 73.0609 78.8633 73.0381L78.9297 71.7198L78.9961 70.4015C77.993 70.351 77.1384 71.1225 77.087 72.1259L78.4053 72.1934ZM78.9297 71.7198L78.8633 73.0381L104.002 74.3038L104.068 72.9854L104.135 71.6671L78.9961 70.4015L78.9297 71.7198Z" fill="#CFD8FC"/>
<path fill-rule="evenodd" clip-rule="evenodd" d="M45.6135 108.963C46.6348 108.105 47.9428 107.666 49.2747 107.733L109.622 110.774C111.224 110.854 111.892 112.86 110.659 113.885L96.1775 125.926C95.1623 126.77 93.8676 127.203 92.5487 127.14L32.1632 124.243C30.5638 124.167 29.8895 122.167 31.1157 121.138L45.6135 108.963Z" fill="#3D3E43"/>
<path fill-rule="evenodd" clip-rule="evenodd" d="M49.3011 111.268C49.4709 111.125 49.6883 111.052 49.9098 111.062L52.846 111.205C53.2457 111.224 53.4141 111.724 53.1077 111.981L51.1504 113.626C50.9806 113.768 50.7631 113.842 50.5416 113.831L47.6054 113.688C47.2058 113.669 47.0374 113.169 47.3438 112.912L49.3011 111.268Z" fill="#5F6169"/>
<path fill-rule="evenodd" clip-rule="evenodd" d="M44.9783 114.902C45.149 114.759 45.3678 114.685 45.5905 114.697L52.8528 115.079C53.2515 115.1 53.4185 115.598 53.1127 115.855L51.152 117.502C50.9812 117.645 50.7624 117.719 50.5398 117.707L43.2775 117.325C42.8787 117.304 42.7118 116.806 43.0175 116.549L44.9783 114.902Z" fill="#5F6169"/>
<path fill-rule="evenodd" clip-rule="evenodd" d="M40.4232 118.712C40.593 118.569 40.8104 118.496 41.0319 118.507L43.9681 118.649C44.3678 118.669 44.5362 119.168 44.2298 119.426L42.2724 121.07C42.1026 121.213 41.8852 121.286 41.6637 121.275L38.7275 121.132C38.3278 121.113 38.1595 120.613 38.4659 120.356L40.4232 118.712Z" fill="#5F6169"/>
<path fill-rule="evenodd" clip-rule="evenodd" d="M87.0365 113.171C87.2063 113.028 87.4237 112.955 87.6452 112.965L90.5814 113.108C90.9811 113.128 91.1494 113.627 90.843 113.884L88.8857 115.529C88.7159 115.671 88.4985 115.745 88.277 115.734L85.3408 115.591C84.9411 115.572 84.7727 115.072 85.0791 114.815L87.0365 113.171Z" fill="#5F6169"/>
<path fill-rule="evenodd" clip-rule="evenodd" d="M87.0365 117.048C87.2063 116.906 87.4237 116.832 87.6452 116.843L90.5814 116.986C90.9811 117.005 91.1494 117.505 90.843 117.762L88.8857 119.406C88.7159 119.549 88.4985 119.622 88.277 119.612L85.3408 119.469C84.9411 119.449 84.7727 118.95 85.0791 118.692L87.0365 117.048Z" fill="#5F6169"/>
<path fill-rule="evenodd" clip-rule="evenodd" d="M61.7923 111.894C61.9621 111.751 62.1795 111.678 62.401 111.689L65.3373 111.832C65.7369 111.851 65.9053 112.351 65.5989 112.608L63.6416 114.252C63.4718 114.395 63.2544 114.468 63.0328 114.457L60.0966 114.315C59.697 114.295 59.5286 113.796 59.835 113.538L61.7923 111.894Z" fill="#5F6169"/>
<path fill-rule="evenodd" clip-rule="evenodd" d="M61.7923 115.772C61.9621 115.629 62.1795 115.556 62.401 115.567L65.3373 115.709C65.7369 115.729 65.9053 116.228 65.5989 116.486L63.6416 118.13C63.4718 118.273 63.2544 118.346 63.0328 118.335L60.0966 118.192C59.697 118.173 59.5286 117.673 59.835 117.416L61.7923 115.772Z" fill="#5F6169"/>
<path fill-rule="evenodd" clip-rule="evenodd" d="M52.9134 119.338C53.0832 119.196 53.3006 119.122 53.5221 119.133L56.4583 119.276C56.858 119.295 57.0264 119.795 56.72 120.052L54.7627 121.697C54.5929 121.839 54.3754 121.912 54.1539 121.902L51.2177 121.759C50.8181 121.74 50.6497 121.24 50.9561 120.983L52.9134 119.338Z" fill="#5F6169"/>
<path fill-rule="evenodd" clip-rule="evenodd" d="M90.6478 121.241C90.8176 121.099 91.035 121.026 91.2565 121.036L94.1927 121.179C94.5924 121.198 94.7608 121.698 94.4544 121.955L92.497 123.6C92.3272 123.742 92.1098 123.815 91.8883 123.805L88.9521 123.662C88.5524 123.643 88.3841 123.143 88.6905 122.886L90.6478 121.241Z" fill="#5F6169"/>
<path fill-rule="evenodd" clip-rule="evenodd" d="M55.5384 111.579C55.7082 111.436 55.9256 111.363 56.1471 111.374L59.0833 111.516C59.483 111.536 59.6514 112.035 59.345 112.293L57.3877 113.937C57.2179 114.079 57.0004 114.153 56.7789 114.142L53.8427 113.999C53.4431 113.98 53.2747 113.48 53.5811 113.223L55.5384 111.579Z" fill="#5F6169"/>
<path fill-rule="evenodd" clip-rule="evenodd" d="M55.5384 115.456C55.7082 115.314 55.9256 115.241 56.1471 115.251L59.0833 115.394C59.483 115.413 59.6514 115.913 59.345 116.17L57.3877 117.815C57.2179 117.957 57.0004 118.03 56.7789 118.02L53.8427 117.877C53.4431 117.858 53.2747 117.358 53.5811 117.101L55.5384 115.456Z" fill="#5F6169"/>
<path fill-rule="evenodd" clip-rule="evenodd" d="M46.6585 119.023C46.8283 118.88 47.0457 118.807 47.2673 118.818L50.2035 118.961C50.6031 118.98 50.7715 119.48 50.4651 119.737L48.5078 121.381C48.338 121.524 48.1206 121.597 47.8991 121.586L44.9629 121.444C44.5632 121.424 44.3948 120.925 44.7012 120.667L46.6585 119.023Z" fill="#5F6169"/>
<path fill-rule="evenodd" clip-rule="evenodd" d="M93.2718 113.482C93.4416 113.339 93.659 113.266 93.8805 113.277L96.8167 113.419C97.2164 113.439 97.3848 113.938 97.0784 114.196L95.1211 115.84C94.9513 115.982 94.7338 116.056 94.5123 116.045L91.5761 115.902C91.1765 115.883 91.0081 115.383 91.3145 115.126L93.2718 113.482Z" fill="#5F6169"/>
<path fill-rule="evenodd" clip-rule="evenodd" d="M65.584 120.054C65.7534 119.912 65.9702 119.838 66.1912 119.849L87.9363 120.865C88.3364 120.884 88.5054 121.384 88.1987 121.642L86.243 123.285C86.0736 123.427 85.8569 123.5 85.6359 123.49L63.8908 122.473C63.4907 122.454 63.3216 121.954 63.6283 121.697L65.584 120.054Z" fill="#5F6169"/>
<path fill-rule="evenodd" clip-rule="evenodd" d="M68.0287 112.205C68.1985 112.063 68.4159 111.989 68.6374 112L71.5736 112.143C71.9733 112.162 72.1416 112.662 71.8352 112.919L69.8779 114.563C69.7081 114.706 69.4907 114.779 69.2692 114.769L66.333 114.626C65.9333 114.606 65.7649 114.107 66.0713 113.849L68.0287 112.205Z" fill="#5F6169"/>
<path fill-rule="evenodd" clip-rule="evenodd" d="M68.0287 116.083C68.1985 115.94 68.4159 115.867 68.6374 115.878L71.5736 116.021C71.9733 116.04 72.1416 116.54 71.8352 116.797L69.8779 118.441C69.7081 118.584 69.4907 118.657 69.2692 118.646L66.333 118.504C65.9333 118.484 65.7649 117.985 66.0713 117.727L68.0287 116.083Z" fill="#5F6169"/>
<path fill-rule="evenodd" clip-rule="evenodd" d="M59.1507 119.65C59.3205 119.507 59.5379 119.434 59.7594 119.444L62.6956 119.587C63.0953 119.607 63.2637 120.106 62.9573 120.364L61 122.008C60.8302 122.15 60.6128 122.224 60.3912 122.213L57.455 122.07C57.0554 122.051 56.887 121.551 57.1934 121.294L59.1507 119.65Z" fill="#5F6169"/>
<path fill-rule="evenodd" clip-rule="evenodd" d="M74.4613 112.535C74.6311 112.392 74.8485 112.319 75.07 112.33L78.0062 112.472C78.4059 112.492 78.5742 112.991 78.2678 113.249L76.3105 114.893C76.1407 115.036 75.9233 115.109 75.7018 115.098L72.7656 114.956C72.3659 114.936 72.1975 114.436 72.5039 114.179L74.4613 112.535Z" fill="#5F6169"/>
<path fill-rule="evenodd" clip-rule="evenodd" d="M74.4613 116.413C74.6311 116.27 74.8485 116.197 75.07 116.208L78.0062 116.35C78.4059 116.37 78.5742 116.869 78.2678 117.127L76.3105 118.771C76.1407 118.913 75.9233 118.987 75.7018 118.976L72.7656 118.833C72.3659 118.814 72.1975 118.314 72.5039 118.057L74.4613 116.413Z" fill="#5F6169"/>
<path fill-rule="evenodd" clip-rule="evenodd" d="M80.6966 112.846C80.8664 112.703 81.0838 112.63 81.3053 112.641L84.2415 112.784C84.6412 112.803 84.8096 113.303 84.5032 113.56L82.5459 115.204C82.3761 115.347 82.1587 115.42 81.9371 115.409L79.0009 115.267C78.6013 115.247 78.4329 114.748 78.7393 114.49L80.6966 112.846Z" fill="#5F6169"/>
<path fill-rule="evenodd" clip-rule="evenodd" d="M80.6966 116.724C80.8664 116.581 81.0838 116.508 81.3053 116.519L84.2415 116.661C84.6412 116.681 84.8096 117.18 84.5032 117.438L82.5459 119.082C82.3761 119.225 82.1587 119.298 81.9371 119.287L79.0009 119.144C78.6013 119.125 78.4329 118.625 78.7393 118.368L80.6966 116.724Z" fill="#5F6169"/>
<path fill-rule="evenodd" clip-rule="evenodd" d="M100.136 113.592C99.9141 113.581 99.696 113.655 99.5259 113.799L95.7283 117.006C95.5586 117.149 95.341 117.223 95.1192 117.212L93.8798 117.154C93.6587 117.143 93.4419 117.217 93.2724 117.359L91.3131 119.005C91.0069 119.262 91.1749 119.761 91.5743 119.781L96.5125 120.026C96.7366 120.038 96.9565 119.963 97.1273 119.817L103.348 114.51C103.651 114.251 103.482 113.755 103.084 113.735L100.136 113.592Z" fill="#5F6169"/>
<path fill-rule="evenodd" clip-rule="evenodd" d="M43.4874 116.079C43.4874 116.079 51.8497 124.943 53.7863 126.423C55.7229 127.904 56.3009 129.001 60.4752 128.453C64.6495 127.904 86.9133 123.182 89.3303 122.337C91.7474 121.493 92.5193 121.328 92.5193 121.328C92.5193 121.328 96.0499 116.212 101.816 117.318C107.582 118.425 114.646 122.005 116.18 122.937C117.714 123.869 117.272 127.276 115.389 127.276C113.506 127.276 107.194 126.423 104.894 126.423C102.593 126.423 99.9866 126.608 97.9094 128.453C95.8321 130.297 93.6328 129.894 92.5193 129.922C91.4057 129.95 62.1929 142.056 56.5721 143.255C50.9512 144.453 50.156 143.376 47.2485 141.726C44.3411 140.075 32.959 129.317 30.6574 126.423C28.3558 123.53 43.4874 116.079 43.4874 116.079Z" fill="#F9DAD9"/>
<mask id="mask3_56_744" style="mask-type:luminance" maskUnits="userSpaceOnUse" x="30" y="116" width="88" height="28">
<path fill-rule="evenodd" clip-rule="evenodd" d="M43.4874 116.079C43.4874 116.079 51.8497 124.943 53.7863 126.423C55.7229 127.904 56.3009 129.001 60.4752 128.453C64.6495 127.904 86.9133 123.182 89.3303 122.337C91.7474 121.493 92.5193 121.328 92.5193 121.328C92.5193 121.328 96.0499 116.212 101.816 117.318C107.582 118.425 114.646 122.005 116.18 122.937C117.714 123.869 117.272 127.276 115.389 127.276C113.506 127.276 107.194 126.423 104.894 126.423C102.593 126.423 99.9866 126.608 97.9094 128.453C95.8321 130.297 93.6328 129.894 92.5193 129.922C91.4057 129.95 62.1929 142.056 56.5721 143.255C50.9512 144.453 50.156 143.376 47.2485 141.726C44.3411 140.075 32.959 129.317 30.6574 126.423C28.3558 123.53 43.4874 116.079 43.4874 116.079Z" fill="white"/>
</mask>
<g mask="url(#mask3_56_744)">
<path fill-rule="evenodd" clip-rule="evenodd" d="M46.1012 117.015C46.1012 117.379 43.9912 121.425 41.1056 124.799C38.2199 128.174 38.6637 128.719 39.4193 129.922C42.3835 134.64 45.4685 136.145 47.8026 137.996C50.1367 139.847 53.0914 141.273 59.6531 139.246C63.2397 138.138 82.8644 132.17 85.2376 130.495C88.9704 127.861 93.3186 128.424 94.9584 128.174C96.5982 127.923 97.7432 126.559 98.6304 125.953C101.615 123.916 102.123 123.913 105.222 123.913C108.32 123.913 112.91 125.564 114.311 126.185C115.711 126.806 116.401 127.738 116.401 127.738L113.142 130.495C113.142 130.495 103.453 129.479 101.893 130.897C100.333 132.314 67.4769 147.127 64.5184 147.911C61.5599 148.694 43.4032 149.132 43.4032 149.132C43.4032 149.132 28.4941 128.669 28.4941 127.738C28.4941 126.806 39.4193 116.079 39.4193 116.079L43.8169 113.803L46.1012 116.66C46.1012 116.66 46.1012 116.65 46.1012 117.015Z" fill="#F2C6C3"/>
</g>
<path fill-rule="evenodd" clip-rule="evenodd" d="M-23.1123 102.236C-23.1123 102.236 -14.7499 111.1 -12.8133 112.58C-10.8767 114.06 -10.2987 115.158 -6.1244 114.609C-1.95007 114.06 20.3137 109.338 22.7307 108.494C25.1478 107.65 25.9196 107.485 25.9196 107.485C25.9196 107.485 29.4502 102.369 35.2163 103.475C40.9823 104.582 48.0468 108.162 49.5805 109.094C51.1143 110.026 50.6729 113.433 48.7897 113.433C46.9066 113.433 40.5945 112.58 38.2939 112.58C35.9933 112.58 33.387 112.765 31.3098 114.609C29.2325 116.453 27.0332 116.051 25.9196 116.079C24.8061 116.106 -4.40668 128.213 -10.0275 129.412C-15.6484 130.61 -16.4436 129.533 -19.3511 127.882C-22.2585 126.232 -33.6406 115.474 -35.9422 112.58C-38.2438 109.686 -23.1123 102.236 -23.1123 102.236Z" fill="#F9DAD9"/>
<mask id="mask4_56_744" style="mask-type:luminance" maskUnits="userSpaceOnUse" x="-37" y="102" width="88" height="28">
<path fill-rule="evenodd" clip-rule="evenodd" d="M-23.1123 102.236C-23.1123 102.236 -14.7499 111.1 -12.8133 112.58C-10.8767 114.06 -10.2987 115.158 -6.1244 114.609C-1.95007 114.06 20.3137 109.338 22.7307 108.494C25.1478 107.65 25.9196 107.485 25.9196 107.485C25.9196 107.485 29.4502 102.369 35.2163 103.475C40.9823 104.582 48.0468 108.162 49.5805 109.094C51.1143 110.026 50.6729 113.433 48.7897 113.433C46.9066 113.433 40.5945 112.58 38.2939 112.58C35.9933 112.58 33.387 112.765 31.3098 114.609C29.2325 116.453 27.0332 116.051 25.9196 116.079C24.8061 116.106 -4.40668 128.213 -10.0275 129.412C-15.6484 130.61 -16.4436 129.533 -19.3511 127.882C-22.2585 126.232 -33.6406 115.474 -35.9422 112.58C-38.2438 109.686 -23.1123 102.236 -23.1123 102.236Z" fill="white"/>
</mask>
<g mask="url(#mask4_56_744)">
<path fill-rule="evenodd" clip-rule="evenodd" d="M-20.4994 103.171C-20.4994 103.536 -22.6094 107.581 -25.495 110.956C-28.3807 114.331 -27.9369 114.876 -27.1812 116.079C-24.2171 120.797 -21.1321 122.302 -18.798 124.153C-16.4639 126.004 -13.5092 127.43 -6.94748 125.403C-3.36086 124.295 16.2638 118.327 18.637 116.652C22.3698 114.018 26.718 114.581 28.3578 114.331C29.9976 114.08 31.1426 112.716 32.0298 112.11C35.0143 110.073 35.5228 110.07 38.6209 110.07C41.7191 110.07 46.3094 111.721 47.7099 112.342C49.1105 112.963 49.8008 113.895 49.8008 113.895L46.5412 116.652C46.5412 116.652 36.8529 115.636 35.2928 117.053C33.7328 118.471 0.876271 133.284 -2.08219 134.067C-5.04065 134.851 -23.1974 135.289 -23.1974 135.289C-23.1974 135.289 -38.1064 114.826 -38.1064 113.895C-38.1064 112.963 -27.1812 102.236 -27.1812 102.236L-22.7837 99.9598L-20.4994 102.817C-20.4994 102.817 -20.4994 102.807 -20.4994 103.171Z" fill="#F2C6C3"/>
</g>
<path fill-rule="evenodd" clip-rule="evenodd" d="M37.3639 54.9307C37.3639 54.9307 41.295 63.4095 42.5712 66.2549C43.8473 69.1004 44.4595 69.6429 42.8371 70.5145C41.2148 71.3861 40.0109 70.9156 40.0109 72.542C40.0109 74.1685 40.443 77.1406 39.3998 78.9963C38.3566 80.852 37.1111 83.9873 30.7951 83.2993C30.7951 83.2993 29.5782 91.4131 30.3531 95.0592C31.128 98.7052 30.7951 98.4956 30.7951 98.4956L18.9443 95.4533L15.9564 89.9025C15.9564 89.9025 18.639 83.8607 17.661 78.67C16.683 73.4793 13.1699 65.4495 13.1699 65.4495L16.683 53.0882L28.1141 48.2194L37.3639 54.9307Z" fill="#F9DAD9"/>
<mask id="mask5_56_744" style="mask-type:luminance" maskUnits="userSpaceOnUse" x="13" y="48" width="31" height="51">
<path fill-rule="evenodd" clip-rule="evenodd" d="M37.3639 54.9307C37.3639 54.9307 41.295 63.4095 42.5712 66.2549C43.8473 69.1004 44.4595 69.6429 42.8371 70.5145C41.2148 71.3861 40.0109 70.9156 40.0109 72.542C40.0109 74.1685 40.443 77.1406 39.3998 78.9963C38.3566 80.852 37.1111 83.9873 30.7951 83.2993C30.7951 83.2993 29.5782 91.4131 30.3531 95.0592C31.128 98.7052 30.7951 98.4956 30.7951 98.4956L18.9443 95.4533L15.9564 89.9025C15.9564 89.9025 18.639 83.8607 17.661 78.67C16.683 73.4793 13.1699 65.4495 13.1699 65.4495L16.683 53.0882L28.1141 48.2194L37.3639 54.9307Z" fill="white"/>
</mask>
<g mask="url(#mask5_56_744)">
<path fill-rule="evenodd" clip-rule="evenodd" d="M30.7963 83.2993C30.7963 83.2993 25.9584 81.6107 22.3906 78.662C22.3906 78.662 24.3854 81.155 25.5016 82.0157C26.7052 82.9438 29.2618 84.8391 30.5005 85.3695C30.6042 84.5399 30.7963 83.2993 30.7963 83.2993Z" fill="#F2C7C2"/>
<path fill-rule="evenodd" clip-rule="evenodd" d="M19.0967 88.2599C19.0967 88.2599 19.9418 83.8667 19.5994 82.0157C19.2569 80.1647 19.0967 78.662 19.0967 78.662C19.0967 78.662 19.9637 75.7384 19.9637 73.6171C19.9637 72.0881 18.6183 71.8505 18.6183 71.8505C18.6183 71.8505 16.5851 70.5957 16.1705 69.4074C15.7559 68.2192 15.939 66.1056 17.5178 64.8786C19.0967 63.6515 22.0677 66.6494 22.0677 66.6494L20.9591 61.5621L17.0577 61.1322L11.3818 64.4988L12.5358 71.1518L15.2477 79.6683L16.1705 88.2599H19.0967Z" fill="#F2C7C2"/>
</g>
<path fill-rule="evenodd" clip-rule="evenodd" d="M15.2742 51.104C15.2742 51.104 8.75894 50.8356 6.6889 55.7913C3.87042 62.5387 9.09406 73.7478 14.8049 77.8601C20.5157 81.9725 19.6232 73.6513 19.2842 72.955C18.9452 72.2588 15.2742 71.8987 15.2742 67.6634C15.2742 64.1258 17.541 62.1254 19.2842 62.5387C20.4787 62.8219 20.4787 64.4648 21.8027 66.2884C23.1268 68.112 24.3001 69.4623 24.0385 68.1656C23.7769 66.8688 22.6187 64.3722 22.6187 61.7477C22.6187 59.1232 22.0119 53.7868 28.3558 54.5649C32.9323 55.1262 33.8157 56.6724 37.191 57.4963C40.5662 58.3202 43.4335 56.8019 43.4874 54.5649C43.5412 52.3279 40.7142 48.2194 37.191 45.207C33.6677 42.1946 27.9034 39.4417 23.4671 40.826C15.0615 43.4488 15.2742 51.104 15.2742 51.104Z" fill="#3C3D42"/>
<path fill-rule="evenodd" clip-rule="evenodd" d="M-11.4951 146.038C-11.4951 143.951 -7.08676 109.902 6.30992 94.6384C14.2475 85.5949 15.5647 84.7979 19.6621 87.5605C22.6222 89.5563 26.2621 91.5735 29.7723 93.4077C33.2826 95.2418 33.6836 98.444 36.0411 102.366C38.3986 106.289 44.4834 113.755 45.6117 115.572C45.765 117.686 37.0891 125.992 31.5201 128.433C31.5201 128.433 27.6161 145.287 27.9864 155.746L-8.727 152.907C-8.727 152.907 -11.4951 148.124 -11.4951 146.038Z" fill="#6CA3FF"/>
<path fill-rule="evenodd" clip-rule="evenodd" d="M31.5198 128.433C31.5198 128.433 22.0146 121.58 17.5928 113.076C17.5928 113.076 19.8471 120.546 27.3116 129.138C27.3116 133.62 26.5933 142.629 25.3919 149.132C24.1905 155.635 23.891 159.598 23.891 159.598L29.8845 158.254L31.5198 128.433Z" fill="#3D54B5"/>
</g>
</g>
</g>
<defs>
<clipPath id="clip0_56_744">
<rect width="148" height="148" rx="8" fill="white"/>
</clipPath>
</defs>
</svg>
