<svg width="72" height="72" viewBox="0 0 72 72" fill="none" xmlns="http://www.w3.org/2000/svg">
<g clip-path="url(#clip0_56_803)">
<rect width="72" height="72" rx="8" fill="white" fill-opacity="0.78"/>
<rect width="72" height="72" rx="8" fill="white"/>
<mask id="mask0_56_803" style="mask-type:luminance" maskUnits="userSpaceOnUse" x="0" y="0" width="72" height="72">
<rect width="72" height="72" rx="8" fill="white"/>
</mask>
<g mask="url(#mask0_56_803)">
<path fill-rule="evenodd" clip-rule="evenodd" d="M39.6762 62.3114C39.6762 62.3114 38.0493 62.2491 37.4851 61.0879C36.9208 59.9267 37.0341 59.0696 37.1702 58.7489C37.3064 58.4282 37.6071 57.7197 38.7753 57.5191C39.9569 57.3163 42.1211 57.004 44.5331 57.8185C46.2015 58.382 46.6529 58.875 47.0172 59.2565C47.3815 59.6381 48.1155 60.6941 48.2475 61.0799C48.3796 61.4658 48.0729 62.1883 47.3143 62.245C46.6002 62.2985 39.6762 62.3114 39.6762 62.3114Z" fill="#EEF1F6"/>
<path fill-rule="evenodd" clip-rule="evenodd" d="M40.1036 61.8917C40.1036 61.8917 39.017 61.9621 38.5802 61.8273C38.1455 61.693 37.6735 61.474 37.4858 61.0879C36.9216 59.9267 37.1392 59.8123 37.2753 59.4916C37.4114 59.1709 38.0081 58.3106 39.1763 58.11C40.3578 57.9072 41.7802 57.5086 44.199 58.11C45.8405 58.5182 46.6928 58.6415 47.1334 59.1134C47.5741 59.5853 47.8969 60.2731 48.1832 60.8896C48.4695 61.5061 47.8169 61.9816 47.3286 61.9207C46.9979 61.8795 45.3418 61.5283 43.6673 61.5064C42.1965 61.4872 40.1036 61.8917 40.1036 61.8917Z" fill="#BCBEC2"/>
<path fill-rule="evenodd" clip-rule="evenodd" d="M28.7998 61.92H71.9998V64.8H28.7998V61.92Z" fill="#D9D9D9"/>
<path fill-rule="evenodd" clip-rule="evenodd" d="M58.6797 39.24L59.5197 39.24C59.5197 39.24 60.3363 45.9855 60.768 53.4127C61.1997 60.84 61.1997 60.84 61.1997 60.84H58.6797V39.24Z" fill="#4A4B51"/>
<path d="M49.6797 61.92C49.6797 61.3235 50.1632 60.84 50.7597 60.84H61.1997V61.92H49.6797V61.92Z" fill="#3D3E43"/>
<path fill-rule="evenodd" clip-rule="evenodd" d="M60.832 21.6C61.811 21.7726 62.4647 22.7062 62.2921 23.6852L57.166 52.7568C56.9934 53.7358 56.0598 54.3895 55.0808 54.2168L60.832 21.6Z" fill="#3D3E43"/>
<path fill-rule="evenodd" clip-rule="evenodd" d="M20.9578 56.4707C20.9578 56.4707 23.0245 59.946 23.9564 61.2994C24.8884 62.6527 25.1722 63.4314 27.5522 62.425C29.9322 61.4187 34.8235 59.9599 35.9994 59.5492C37.1752 59.1386 37.5507 59.0062 37.5507 59.0062C37.5507 59.0062 39.5001 56.6401 42.3052 57.1785C45.1103 57.7169 47.2716 58.9755 48.0177 59.4289C48.7639 59.8823 48.5491 61.5398 47.633 61.5398C46.7169 61.5398 44.6899 61.2994 43.5707 61.2994C42.4515 61.2994 41.0136 61.5808 40.2433 62.1268C39.4729 62.6729 38.4119 62.8056 37.8702 62.8191C37.3284 62.8326 28.3879 69.0429 25.6534 69.6261C22.9189 70.2093 22.5321 69.685 21.1176 68.8822C19.7032 68.0793 15.8359 62.911 14.7162 61.5032C13.5965 60.0954 20.9578 56.4707 20.9578 56.4707Z" fill="#F9DAD9"/>
<mask id="mask1_56_803" style="mask-type:luminance" maskUnits="userSpaceOnUse" x="14" y="56" width="35" height="14">
<path fill-rule="evenodd" clip-rule="evenodd" d="M20.9578 56.4707C20.9578 56.4707 23.0245 59.946 23.9564 61.2994C24.8884 62.6527 25.1722 63.4314 27.5522 62.425C29.9322 61.4187 34.8235 59.9599 35.9994 59.5492C37.1752 59.1386 37.5507 59.0062 37.5507 59.0062C37.5507 59.0062 39.5001 56.6401 42.3052 57.1785C45.1103 57.7169 47.2716 58.9755 48.0177 59.4289C48.7639 59.8823 48.5491 61.5398 47.633 61.5398C46.7169 61.5398 44.6899 61.2994 43.5707 61.2994C42.4515 61.2994 41.0136 61.5808 40.2433 62.1268C39.4729 62.6729 38.4119 62.8056 37.8702 62.8191C37.3284 62.8326 28.3879 69.0429 25.6534 69.6261C22.9189 70.2093 22.5321 69.685 21.1176 68.8822C19.7032 68.0793 15.8359 62.911 14.7162 61.5032C13.5965 60.0954 20.9578 56.4707 20.9578 56.4707Z" fill="white"/>
</mask>
<g mask="url(#mask1_56_803)">
<path fill-rule="evenodd" clip-rule="evenodd" d="M22.2287 56.926C22.2287 57.1032 21.2022 59.0714 19.7984 60.7131C18.3945 62.3548 18.142 62.8154 18.5096 63.4005C19.9516 65.6957 20.6255 66.2762 21.761 67.1767C22.8966 68.0772 23.6945 68.7747 26.8867 67.7885C28.6316 67.2494 33.8914 64.0199 35.0459 63.2052C36.8619 61.9239 37.6323 62.2645 38.43 62.1427C39.2278 62.0208 39.6591 61.5632 40.1071 61.2745C41.2501 60.5378 41.9694 60.2124 43.3732 60.3456C44.777 60.4787 47.3727 60.9724 48.0541 61.2745C48.7354 61.5765 49.0297 61.8311 49.0297 61.8311L47.4439 63.1726C47.4439 63.1726 43.9077 62.7111 43.1488 63.4005C42.3898 64.09 31.3323 71.6189 29.8931 72C28.4538 72.3811 19.6208 72.5943 19.6208 72.5943C19.6208 72.5943 13.6631 62.5959 13.6631 62.1427C13.6631 61.6895 18.9781 56.4707 18.9781 56.4707L21.1174 55.3636L22.2287 56.7535C22.2287 56.7535 22.2287 56.7488 22.2287 56.926Z" fill="#F2C6C3"/>
</g>
<path fill-rule="evenodd" clip-rule="evenodd" d="M18.7116 26.9476C18.7116 26.9476 19.9875 30.165 20.2143 32.6987C20.4411 35.2323 19.477 37.5279 18.9695 38.4306C18.4619 39.3334 17.6891 40.8243 14.7834 40.524C14.7834 40.524 14.1914 44.4712 14.5684 46.245C14.9453 48.0188 14.7834 47.9168 14.7834 47.9168L9.01814 46.4367L7.56458 43.7364C7.56458 43.7364 8.86962 40.7971 8.39384 38.2719C7.91807 35.7467 6.20898 31.8403 6.20898 31.8403L7.91807 25.8267L13.4791 23.4581L18.7116 26.9476Z" fill="#F9DAD9"/>
<mask id="mask2_56_803" style="mask-type:luminance" maskUnits="userSpaceOnUse" x="6" y="23" width="15" height="25">
<path fill-rule="evenodd" clip-rule="evenodd" d="M18.7116 26.9476C18.7116 26.9476 19.9875 30.165 20.2143 32.6987C20.4411 35.2323 19.477 37.5279 18.9695 38.4306C18.4619 39.3334 17.6891 40.8243 14.7834 40.524C14.7834 40.524 14.1914 44.4712 14.5684 46.245C14.9453 48.0188 14.7834 47.9168 14.7834 47.9168L9.01814 46.4367L7.56458 43.7364C7.56458 43.7364 8.86962 40.7971 8.39384 38.2719C7.91807 35.7467 6.20898 31.8403 6.20898 31.8403L7.91807 25.8267L13.4791 23.4581L18.7116 26.9476Z" fill="white"/>
</mask>
<g mask="url(#mask2_56_803)">
<path fill-rule="evenodd" clip-rule="evenodd" d="M14.7836 40.524C14.7836 40.524 12.43 39.7025 10.6943 38.268C10.6943 38.268 11.6648 39.4808 12.2078 39.8996C12.7933 40.3511 14.0371 41.2731 14.6397 41.5311C14.6901 41.1275 14.7836 40.524 14.7836 40.524Z" fill="#F2C7C2"/>
<path fill-rule="evenodd" clip-rule="evenodd" d="M9.09224 42.9372C9.09224 42.9372 9.52178 40.907 9.39534 39.9799C9.26889 39.0528 9.09224 37.8895 9.09224 37.8895C9.09224 37.8895 11.0883 36.7697 11.3773 35.5191C11.5177 34.911 11.0534 34.8771 10.8586 34.7538C10.407 34.4679 9.91502 33.9509 9.75148 33.4822C9.54978 32.9041 9.63889 31.8759 10.407 31.279C11.175 30.682 12.6204 32.1405 12.6204 32.1405L12.0811 29.6655L10.1831 29.4564L7.42188 31.0942L7.98328 34.3308L7.42188 38.88L7.66869 42.9372H9.09224Z" fill="#F2C7C2"/>
</g>
<path fill-rule="evenodd" clip-rule="evenodd" d="M7.23254 24.8614C7.23254 24.8614 4.56942 24.8452 3.56237 27.2561C2.19122 30.5386 4.45429 35.7519 7.23254 37.7525C10.0108 39.7531 11.3754 35.5423 11.2105 35.2036C11.0456 34.8648 9.25969 34.6897 9.25969 32.6293C9.25969 30.9083 10.3625 29.9351 11.2105 30.1361C11.7916 30.2739 11.7916 31.0732 12.4357 31.9603C13.0799 32.8475 13.6507 33.5044 13.5234 32.8736C13.3961 32.2427 12.8327 31.0281 12.8327 29.7513C12.8327 28.4746 12.4357 25.7951 15.6884 26.5451C16.551 26.744 17.17 27.4069 18.1819 27.7418C19.1937 28.0766 20.9317 27.6334 20.9579 26.5451C20.9841 25.4568 19.6088 23.4581 17.8947 21.9926C16.1807 20.5271 13.3765 19.1879 11.2182 19.8613C7.12903 21.1372 7.23254 24.8614 7.23254 24.8614Z" fill="#3C3D42"/>
<path fill-rule="evenodd" clip-rule="evenodd" d="M-5.79004 71.0453C-5.79004 70.03 -3.64543 53.4657 2.87187 46.0403C6.73339 41.6408 7.37419 41.253 9.3675 42.597C10.8076 43.5679 12.5783 44.5493 14.286 45.4416C15.9937 46.3338 16.1888 47.8917 17.3357 49.7998C18.4826 51.708 20.6101 54.2321 21.9917 56.224C22.0662 57.2528 17.8456 61.2933 15.1363 62.4811C15.1363 62.4811 13.237 70.68 13.4172 75.7684L-4.44339 74.3873C-4.44339 74.3873 -5.79004 72.0606 -5.79004 71.0453Z" fill="#6CA3FF"/>
<path fill-rule="evenodd" clip-rule="evenodd" d="M15.1366 62.4811C15.1366 62.4811 10.5125 59.1472 8.36133 55.0097C8.36133 55.0097 9.45801 58.6439 13.0894 62.8238C13.0894 65.0041 12.7399 69.3872 12.1555 72.5508C11.571 75.7144 11.4253 77.6422 11.4253 77.6422L14.3411 76.9882L15.1366 62.4811Z" fill="#5D8DDD"/>
</g>
</g>
<defs>
<clipPath id="clip0_56_803">
<rect width="72" height="72" rx="8" fill="white"/>
</clipPath>
</defs>
</svg>
