<svg width="148" height="148" viewBox="0 0 148 148" fill="none" xmlns="http://www.w3.org/2000/svg">
<g clip-path="url(#clip0_38_261)">
<rect width="148" height="148" rx="8" fill="white" fill-opacity="0.78"/>
<mask id="mask0_38_261" style="mask-type:luminance" maskUnits="userSpaceOnUse" x="0" y="0" width="148" height="148">
<rect width="148" height="148" rx="8" fill="white"/>
</mask>
<g mask="url(#mask0_38_261)">
<rect x="56.582" y="91.1359" width="37.7169" height="38.9905" fill="#FFD9D8"/>
<path fill-rule="evenodd" clip-rule="evenodd" d="M56.582 65.1422H94.2989V98.2249C94.2989 98.2249 91.1852 110.631 75.6849 111.079C60.1846 111.528 56.582 97.0794 56.582 97.0794L56.582 65.1422Z" fill="#FAC4C3"/>
<path fill-rule="evenodd" clip-rule="evenodd" d="M50.7986 66.9346C50.7986 66.9346 44.0458 66.9346 42.2496 70.9583C40.4533 74.982 40.5337 81.7223 46.5241 84.601C52.5144 87.4798 53.9809 87.6054 53.9809 87.6054L50.7986 66.9346Z" fill="#FAC4C3"/>
<path fill-rule="evenodd" clip-rule="evenodd" d="M101.522 66.9346C101.522 66.9346 108.275 66.9346 110.071 70.9583C111.867 74.982 111.787 81.7223 105.797 84.601C99.8064 87.4798 98.3399 87.6054 98.3399 87.6054L101.522 66.9346Z" fill="#FAC4C3"/>
<path d="M101.396 75.7386C101.396 93.8129 89.8852 108.465 75.6853 108.465C61.4854 108.465 49.9741 93.8129 49.9741 75.7386C49.9741 57.6644 49.9741 40.5 75.6853 43.0123C98.5 38 101.396 57.6644 101.396 75.7386Z" fill="#FFD9D8"/>
<path fill-rule="evenodd" clip-rule="evenodd" d="M49.9743 66.9346C49.9743 66.9346 49.8304 47.0331 63.1996 49.0198C76.5688 51.0065 81.2757 47.0071 83.4322 46.4387C85.5888 45.8704 97.1692 43.0912 101.397 68.2193C101.397 68.2193 105.754 54.689 104.718 43.0123C103.682 31.3357 92.3702 27.2723 92.3702 26.6656C92.3702 26.0589 90.8908 16.28 78.282 16.28C65.6732 16.28 51.9358 22.9789 46.4621 35.006C43.8498 40.7459 43.146 49.3692 45.5951 57.4088C46.5671 60.5996 49.9743 66.9346 49.9743 66.9346Z" fill="#3D3D44"/>
<path fill-rule="evenodd" clip-rule="evenodd" d="M56.5823 117.58L-5.40524 139.052L-5.91992 170.2H166.5V141.276L94.2992 117.58C94.2992 117.58 87.2729 127.418 75.4408 127.418C63.6086 127.418 56.5823 117.58 56.5823 117.58Z" fill="#6CA3FF"/>
</g>
</g>
<defs>
<clipPath id="clip0_38_261">
<rect width="148" height="148" rx="8" fill="white"/>
</clipPath>
</defs>
</svg>
