<svg width="43" height="32" viewBox="0 0 43 32" fill="none" xmlns="http://www.w3.org/2000/svg">
<path d="M3.21503 19.4613C1.79932 20.2928 1 21.2439 1 22.2469C1 25.6386 10.1335 26.5835 21.3999 26.5835C32.6663 26.5835 41.7987 25.6386 41.7987 22.2469C41.7987 18.8553 32.6663 16.106 21.3999 16.106C16.7921 16.106 12.5418 16.5654 9.12732 17.3408C6.9362 17.8428 5.3834 19.7933 5.38536 22.0411V23.8653C5.38536 29.7142 14.4658 30.9335 21.3988 31H21.4113C28.3433 30.9304 37.4248 29.7142 37.4248 23.8653V13.1654C37.4248 9.31954 36.5454 5.51418 34.188 2.83348C31.9376 0.275442 26.0087 -1.49055 24.9048 11.0138C24.7157 13.1613 23.8082 13.8733 21.3999 13.8733H21.4103C19.0019 13.8733 18.0945 13.1613 17.9053 11.0138C16.8014 -1.49055 10.8725 0.275442 8.62215 2.83348C6.26472 5.51418 5.38536 9.16882 5.38536 13.0199C5.38536 13.4554 5.44461 14.2454 5.56207 14.5562" stroke="#5478EE" stroke-width="2" stroke-linecap="round" stroke-linejoin="round"/>
<path d="M22.8908 27.9783L24.5019 25.5854C24.7337 25.2336 24.7548 24.7833 24.5571 24.4113C24.3594 24.0392 23.9744 23.8048 23.5531 23.8H19.1387C18.7175 23.8048 18.3324 24.0392 18.1347 24.4113C17.937 24.7833 17.9582 25.2336 18.1899 25.5854L19.801 27.9783C20.1473 28.4921 20.7264 28.8 21.3459 28.8C21.9655 28.8 22.5445 28.4921 22.8908 27.9783Z" fill="#5478EE"/>
</svg>
