<svg width="37" height="34" viewBox="0 0 37 34" fill="none" xmlns="http://www.w3.org/2000/svg">
<path fill-rule="evenodd" clip-rule="evenodd" d="M8.51272 25.8157L14.9561 29.7601C19.4812 32.5302 21.7445 33.9157 24.0094 33.8659C24.9866 33.8449 25.9467 33.6331 26.8347 33.2426C28.8779 32.3438 30.2118 30.1647 32.878 25.8093C35.5442 21.4539 36.8782 19.2748 36.7494 17.0464C36.6933 16.078 36.4453 15.1266 36.0195 14.2468C35.3871 12.9354 34.2264 11.8946 32.2763 10.5835C31.3208 9.99863 30.9251 8.79886 31.2906 7.78173C31.5524 7.03306 31.5437 6.2132 31.2661 5.4607C30.9884 4.70821 30.4587 4.06924 29.7666 3.65177L25.0283 0.751185C23.5958 -0.125737 21.7658 0.0926445 20.657 1.27227C19.9174 2.06041 18.669 2.25367 17.7135 1.66876C15.6604 0.5292 14.2047 -0.0297418 12.7486 0.00125118C11.7718 0.0226938 10.8122 0.234792 9.92475 0.625423C7.88014 1.52336 6.54705 3.70105 3.87998 8.05785C1.21292 12.4147 -0.119306 14.5909 0.00861647 16.8207C0.0641849 17.7849 0.311446 18.7355 0.738515 19.6204C1.72428 21.6601 3.98758 23.0456 8.51272 25.8157ZM21.9389 11.1184C18.6026 9.07605 14.3038 10.0225 12.3381 13.2336C10.3724 16.4447 11.4835 20.7088 14.8183 22.7502C18.153 24.7916 22.4542 23.8446 24.4199 20.6335C26.3856 17.4224 25.2736 13.1598 21.9389 11.1184ZM20.5153 13.4439C18.5144 12.219 15.9342 12.7871 14.7542 14.7146C13.5752 16.6407 14.2427 19.197 16.2436 20.4219C18.2445 21.6467 20.8247 21.0786 22.0038 19.1525C23.1828 17.2264 22.5161 14.6687 20.5153 13.4439ZM28.0735 16.4722C28.4668 15.8297 29.3261 15.6405 29.9945 16.0497L31.6039 17.0349C32.2709 17.4432 32.4946 18.2954 32.1013 18.9379C31.9078 19.2472 31.5969 19.4655 31.237 19.5449C30.877 19.6243 30.4975 19.5583 30.1818 19.3613L28.5709 18.3752C28.4127 18.2805 28.2744 18.156 28.1638 18.0091C28.0531 17.8622 27.9724 17.6956 27.9262 17.5189C27.8801 17.3422 27.8693 17.1588 27.8945 16.9792C27.9198 16.7996 27.9806 16.6273 28.0735 16.4722Z" fill="url(#paint0_linear_135_227)"/>
<defs>
<linearGradient id="paint0_linear_135_227" x1="34.0649" y1="23.8704" x2="5.06691" y2="6.11893" gradientUnits="userSpaceOnUse">
<stop stop-color="#5478EE"/>
<stop offset="1" stop-color="#00CCC7"/>
</linearGradient>
</defs>
</svg>
