<svg width="42" height="60" viewBox="0 0 42 60" fill="none" xmlns="http://www.w3.org/2000/svg">
<g clip-path="url(#clip0_136_229)">
<path d="M29.604 12.243L29.3199 12.3322L26.8851 4.57742C26.5114 3.38708 25.6788 2.39436 24.5705 1.81766C23.4622 1.24095 22.169 1.1275 20.9754 1.50226L4.50059 6.67485C3.30697 7.04961 2.3107 7.88188 1.73095 8.98857C1.15119 10.0953 1.03544 11.3857 1.40915 12.5761L14.7666 55.12C15.1404 56.3103 15.973 57.303 17.0812 57.8797C18.1895 58.4564 19.4827 58.5699 20.6763 58.1951L37.1513 53.0225C38.3449 52.6477 39.3412 51.8154 39.9209 50.7087C40.5007 49.6021 40.6164 48.3116 40.2427 47.1213L31.0532 17.8524L31.3373 17.7632L29.604 12.243Z" fill="url(#paint0_linear_136_229)"/>
<path d="M21.524 2.61285L19.3736 3.28802C19.5484 3.49876 19.6685 3.74925 19.7234 4.01743C19.7782 4.2856 19.7661 4.56322 19.6881 4.82583C19.6101 5.08844 19.4686 5.32798 19.276 5.52334C19.0835 5.7187 18.8458 5.8639 18.584 5.94613L9.14533 8.90956C8.88345 8.99184 8.6054 9.00862 8.3357 8.95842C8.06599 8.90822 7.81291 8.79258 7.59874 8.62169C7.38458 8.45081 7.21591 8.22992 7.10761 7.97849C6.9993 7.72707 6.95468 7.45283 6.97768 7.17994L4.96933 7.8105C4.07795 8.09036 3.33396 8.71189 2.90101 9.53835C2.46807 10.3648 2.38164 11.3285 2.66073 12.2174L15.9987 54.6993C16.2778 55.5882 16.8996 56.3296 17.7272 56.7603C18.5549 57.1909 19.5206 57.2757 20.412 56.9958L36.966 51.7983C37.8574 51.5185 38.6014 50.897 39.0343 50.0705C39.4673 49.244 39.5537 48.2803 39.2746 47.3914L25.9366 4.90967C25.6576 4.02084 25.0359 3.27955 24.2084 2.84886C23.3809 2.41816 22.4153 2.33332 21.524 2.613L21.524 2.61285Z" fill="white"/>
<path d="M21.525 2.61272L19.3745 3.28789C19.5494 3.49864 19.6695 3.74913 19.7244 4.0173C19.7792 4.28548 19.7671 4.5631 19.6891 4.82571C19.6111 5.08831 19.4696 5.32785 19.277 5.52322C19.0845 5.71858 18.8468 5.86377 18.5849 5.946L9.1463 8.90944C8.88442 8.99172 8.60638 9.0085 8.33667 8.9583C8.06697 8.9081 7.81388 8.79246 7.59972 8.62157C7.38556 8.45068 7.21689 8.2298 7.10859 7.97837C7.00028 7.72695 6.95566 7.45271 6.97866 7.17982L4.9703 7.81038C4.07893 8.09024 3.33493 8.71177 2.90199 9.53823C2.46904 10.3647 2.38261 11.3284 2.66171 12.2173L15.9997 54.6992C16.2788 55.5881 16.9006 56.3295 17.7282 56.7601C18.5559 57.1908 19.5216 57.2755 20.413 56.9957L36.967 51.7982C37.8584 51.5184 38.6023 50.8968 39.0353 50.0704C39.4682 49.2439 39.5547 48.2802 39.2756 47.3913L25.9376 4.90955C25.6586 4.02072 25.0369 3.27943 24.2094 2.84873C23.3819 2.41804 22.4163 2.3332 21.5249 2.61287L21.525 2.61272Z" fill="url(#paint1_linear_136_229)"/>
<path d="M26.6948 47.8983C27.1079 47.7686 27.55 47.764 27.9652 47.885C28.3805 48.006 28.7503 48.2472 29.0279 48.5782C29.3054 48.9091 29.4782 49.3148 29.5245 49.7441C29.5708 50.1734 29.4884 50.607 29.2878 50.9899C29.0871 51.3729 28.7773 51.6881 28.3974 51.8956C28.0176 52.1032 27.5847 52.1938 27.1536 52.156C26.7225 52.1181 26.3126 51.9536 25.9756 51.6832C25.6386 51.4127 25.3897 51.0485 25.2603 50.6366C25.0869 50.0843 25.1406 49.4854 25.4096 48.9719C25.6786 48.4584 26.1409 48.0722 26.6948 47.8983Z" fill="#5478EE"/>
</g>
<defs>
<linearGradient id="paint0_linear_136_229" x1="33.8481" y1="25.7601" x2="8.08789" y2="33.848" gradientUnits="userSpaceOnUse">
<stop stop-color="#5478EE"/>
<stop offset="1" stop-color="#00CCC7"/>
</linearGradient>
<linearGradient id="paint1_linear_136_229" x1="28.69" y1="54.3969" x2="13.2473" y2="5.21165" gradientUnits="userSpaceOnUse">
<stop stop-color="#5478EE" stop-opacity="0.2"/>
<stop offset="1" stop-color="#00CCC7" stop-opacity="0.1"/>
</linearGradient>
<clipPath id="clip0_136_229">
<rect width="27" height="54" fill="white" transform="translate(0 8.0879) rotate(-17.4307)"/>
</clipPath>
</defs>
</svg>
